<svg width="33" height="19" fill="none" xmlns="http://www.w3.org/2000/svg"><path d="M1.32 0h30.36a1.374 1.374 0 01.837.287 1.312 1.312 0 01.327.382 1.28 1.28 0 01.13.35 1.189 1.189 0 01.026.247v16.468a1.198 1.198 0 01-.1.484 1.273 1.273 0 01-.715.686 1.358 1.358 0 01-.505.096H1.32a1.362 1.362 0 01-.933-.37 1.272 1.272 0 01-.362-.65A1.217 1.217 0 010 17.735V1.266A1.215 1.215 0 01.222.563 1.271 1.271 0 01.698.15 1.345 1.345 0 011.32 0z" fill="#F7931A"/><path fill-rule="evenodd" clip-rule="evenodd" d="M8.91 9.658c0-3.935 3.324-7.125 7.425-7.125 4.1 0 7.425 3.19 7.425 7.125s-3.325 7.125-7.425 7.125-7.425-3.19-7.425-7.125zm7.425 5.955c-3.427 0-6.205-2.666-6.205-5.955 0-3.288 2.778-5.954 6.205-5.954S22.54 6.37 22.54 9.658c0 3.289-2.778 5.955-6.205 5.955zm3.182-7.303c0 .438-.142.84-.38 1.163.486.339.804.91.803 1.56 0 1.04-.819 1.883-1.83 1.883h-.715v1.476a.156.156 0 01-.16.152h-.53a.156.156 0 01-.158-.152v-1.476h-.849v1.476a.156.156 0 01-.159.152h-.53a.156.156 0 01-.16-.152v-1.476h-1.666a.153.153 0 01-.154-.179l.101-.519a.157.157 0 01.143-.122c.5-.046.729-.384.729-.81V8.133c0-.473-.32-.858-.918-.91a.156.156 0 01-.143-.154v-.514c0-.085.071-.153.16-.153h1.75V4.925c0-.084.07-.152.158-.152h.53c.088 0 .16.068.16.152v1.476h.848V4.925c0-.084.072-.152.16-.152h.53c.087 0 .159.068.159.152v1.476h.292c1.01 0 1.83.855 1.83 1.909zm-3.819-.688h1.3c.483 0 .875.376.875.84 0 .464-.392.84-.875.84h-1.3v-1.68zm0 4.123h1.724c.483 0 .875-.376.875-.84 0-.464-.392-.84-.875-.84h-1.724v1.68z" fill="#000"/></svg>