<svg width="129" height="40" fill="none" xmlns="http://www.w3.org/2000/svg"><path d="M33.533 37.258h-.914v-7.17h-2.53v-.844h5.974v.844h-2.53v7.17zm8.787-2.953c0 .984-.281 1.758-.773 2.32-.492.563-1.195.844-2.039.844-.562 0-.984-.14-1.406-.352-.421-.21-.703-.632-.984-1.054a4.248 4.248 0 01-.351-1.687c0-.985.21-1.758.703-2.32.492-.563 1.195-.844 2.038-.844.844 0 1.476.281 1.969.844.632.492.843 1.265.843 2.25zm-4.57 0c0 .774.141 1.336.493 1.758.351.422.773.633 1.336.633.562 0 1.054-.211 1.335-.633.281-.422.492-.984.492-1.758 0-.773-.14-1.335-.492-1.757-.281-.422-.773-.563-1.335-.563-.563 0-1.055.211-1.336.563-.281.351-.492.984-.492 1.757zm11.108-3.023v.563l-1.125.14c.07.141.21.282.281.492.07.211.14.422.14.704 0 .562-.21 1.054-.632 1.406-.422.351-.914.562-1.617.562-.21 0-.351 0-.492-.07-.422.21-.562.492-.562.773 0 .14.07.281.21.351.141.07.352.141.704.141h1.054c.633 0 1.125.14 1.476.422.352.281.492.703.492 1.195 0 .633-.28 1.195-.773 1.546-.562.352-1.336.492-2.32.492-.773 0-1.406-.14-1.827-.421-.422-.282-.633-.703-.633-1.266 0-.351.14-.703.351-.914.211-.28.563-.421.985-.562a.847.847 0 01-.352-.351c-.07-.141-.14-.282-.14-.492 0-.211.07-.422.14-.563.14-.14.281-.351.563-.492a2.198 2.198 0 01-.774-.633c-.21-.28-.281-.632-.281-1.054 0-.633.21-1.195.562-1.547.422-.351.985-.562 1.688-.562.28 0 .562.07.843.14h2.039zm-4.78 7.03c0 .352.14.563.421.774.282.14.633.28 1.195.28.774 0 1.336-.14 1.688-.35.351-.212.562-.563.562-.915 0-.351-.07-.562-.281-.703-.211-.14-.563-.21-1.125-.21h-1.125c-.422 0-.703.07-.984.28-.281.212-.352.493-.352.844zm.492-5.131c0 .421.14.703.351.984.211.21.563.351.984.351.914 0 1.336-.422 1.336-1.265 0-.914-.422-1.336-1.336-1.336-.422 0-.773.14-.984.352-.281.14-.351.492-.351.913zm8.014 4.217c-.914 0-1.617-.28-2.11-.843-.491-.563-.773-1.266-.773-2.25s.211-1.757.703-2.32c.492-.562 1.125-.843 1.898-.843.774 0 1.336.281 1.758.773.422.492.633 1.125.633 1.968v.563h-4.148c0 .703.21 1.265.562 1.617.352.351.844.562 1.406.562a4.64 4.64 0 001.898-.422v.844c-.351.14-.632.21-.913.281-.282.07-.492.07-.914.07zm-.211-5.483c-.492 0-.844.14-1.125.492s-.422.774-.492 1.336h3.163c0-.563-.14-.984-.351-1.336-.352-.281-.703-.492-1.195-.492zm5.975 4.71c.14 0 .281 0 .492-.07.14 0 .281-.07.352-.07v.703c-.07.07-.211.07-.422.14-.211 0-.352.07-.492.07-1.195 0-1.758-.632-1.758-1.827v-3.585h-.843v-.422l.843-.352.352-1.265h.492v1.406h1.757v.703h-1.757v3.515c0 .351.07.633.281.843.211.211.352.211.703.211zm6.116.633v-3.866c0-.492-.14-.844-.352-1.125-.21-.211-.562-.352-1.054-.352-.633 0-1.125.141-1.406.492-.281.352-.422.914-.422 1.688v3.163h-.914v-8.506h.914v2.601c0 .281 0 .562-.07.773h.07c.211-.28.422-.492.774-.703.351-.21.703-.28 1.124-.28.703 0 1.266.14 1.617.491.352.352.563.914.563 1.687v3.937h-.844zm5.273.14c-.914 0-1.617-.28-2.11-.843-.491-.563-.772-1.266-.772-2.25s.21-1.757.703-2.32c.492-.562 1.124-.843 1.898-.843.773 0 1.335.281 1.757.773.422.492.633 1.125.633 1.968v.563h-4.148c0 .703.211 1.265.563 1.617.351.351.843.562 1.405.562a4.64 4.64 0 001.898-.422v.844c-.351.14-.632.21-.913.281-.282.07-.492.07-.914.07zm-.211-5.483c-.492 0-.844.14-1.125.492s-.422.774-.492 1.336h3.163c0-.563-.14-.984-.351-1.336-.352-.281-.703-.492-1.195-.492zm6.748-.703c.282 0 .492 0 .703.07l-.14.844c-.281-.07-.492-.07-.633-.07-.492 0-.914.21-1.265.562-.352.352-.492.914-.492 1.476v3.164h-.914v-5.976h.773l.07 1.125h.07c.212-.422.493-.703.774-.914.281-.21.633-.28 1.054-.28zm4.64-1.546c0-.211.07-.352.14-.492a.543.543 0 01.352-.141c.14 0 .281.07.352.14.14.07.14.282.14.422 0 .211-.07.352-.14.492-.14.07-.211.141-.352.141a.537.537 0 01-.351-.14c-.07-.07-.14-.212-.14-.422zm.984 7.592h-.914v-5.976h.914v5.976zm5.835-1.617c0 .562-.21.984-.633 1.265-.421.282-.984.422-1.757.422-.773 0-1.406-.14-1.828-.351v-.844c.281.14.633.281.914.352.352.07.633.14.984.14.492 0 .844-.07 1.125-.21.281-.141.352-.352.352-.704 0-.21-.07-.422-.282-.632-.21-.141-.632-.352-1.195-.563-.562-.21-.984-.422-1.195-.562-.21-.14-.422-.352-.492-.563-.07-.21-.14-.421-.14-.703 0-.492.21-.843.562-1.124.422-.282.914-.422 1.617-.422.632 0 1.265.14 1.898.422l-.352.773a3.743 3.743 0 00-1.617-.352c-.421 0-.773.07-.984.211-.21.14-.351.352-.351.563 0 .14.07.28.14.422.07.14.211.21.422.351.211.07.563.281 1.055.422.703.281 1.195.492 1.476.773.14.211.281.563.281.914zm7.171 1.757c-.422 0-.773-.07-1.055-.21-.351-.141-.562-.352-.843-.633h-.07c.07.351.07.703.07.984V40h-.914v-8.717h.773l.14.844h.071c.21-.351.492-.562.844-.703.351-.14.632-.21 1.054-.21.773 0 1.406.28 1.828.843.422.562.632 1.335.632 2.32 0 .984-.21 1.757-.632 2.32a2.856 2.856 0 01-1.898.703zm-.14-5.413c-.633 0-1.055.141-1.337.492-.28.352-.421.914-.421 1.617v.211c0 .844.14 1.477.421 1.828.282.352.703.563 1.336.563a1.38 1.38 0 001.195-.633c.281-.422.422-.984.422-1.758 0-.773-.14-1.335-.422-1.757-.21-.422-.632-.563-1.195-.563zm9.419 2.32c0 .984-.281 1.758-.773 2.32-.492.563-1.195.844-2.039.844-.562 0-.984-.14-1.406-.352-.422-.21-.703-.632-.984-1.054a4.248 4.248 0 01-.352-1.687c0-.985.211-1.758.703-2.32.493-.563 1.195-.844 2.039-.844.844 0 1.476.281 1.968.844.563.492.844 1.265.844 2.25zm-4.57 0c0 .774.141 1.336.493 1.758.351.422.773.633 1.335.633.563 0 1.055-.211 1.336-.633.281-.422.492-.984.492-1.758 0-.773-.14-1.335-.492-1.757-.281-.422-.773-.563-1.336-.563-.562 0-1.054.211-1.335.563-.281.351-.492.984-.492 1.757zm11.038 2.953l-1.125-3.515c-.07-.21-.211-.703-.422-1.476h-.07c-.141.633-.281 1.125-.352 1.476l-1.124 3.515h-1.055l-1.617-5.975h.984c.422 1.476.703 2.671.914 3.445.211.773.352 1.335.352 1.616h.07c.07-.21.07-.492.211-.773.07-.351.141-.562.211-.773l1.125-3.445h.984l1.054 3.445c.211.633.352 1.125.422 1.617h.07c0-.14.071-.352.141-.633.07-.281.422-1.757 1.125-4.429h.914l-1.687 5.905h-1.125zm6.397.14c-.914 0-1.617-.28-2.109-.843s-.773-1.266-.773-2.25.21-1.757.703-2.32c.492-.562 1.124-.843 1.898-.843.773 0 1.335.281 1.757.773.422.492.633 1.125.633 1.968v.563h-4.148c0 .703.211 1.265.563 1.617a1.96 1.96 0 001.405.562c.633 0 1.266-.14 1.899-.422v.844c-.352.14-.633.21-.914.281-.282.07-.563.07-.914.07zm-.281-5.483c-.492 0-.844.14-1.125.492s-.422.774-.492 1.336h3.163c0-.563-.14-.984-.351-1.336-.352-.281-.703-.492-1.195-.492zm6.749-.703c.281 0 .492 0 .703.07l-.141.844c-.281-.07-.492-.07-.633-.07-.492 0-.914.21-1.265.562-.352.352-.492.914-.492 1.476v3.164h-.914v-5.976h.773l.071 1.125h.07a2.54 2.54 0 01.773-.914c.352-.21.703-.28 1.055-.28zm1.687 5.483c0-.21.07-.421.14-.562a.638.638 0 01.492-.21c.211 0 .352.07.492.21.141.14.211.281.211.562 0 .211-.07.422-.211.563a.637.637 0 01-.492.21c-.211 0-.351-.07-.492-.14-.07-.14-.14-.351-.14-.633zM64.042 16.31l-3.374-1.969-.21.352c-.774 1.195-1.829 1.827-3.094 1.827-2.18 0-3.866-1.687-3.866-3.866 0-2.18 1.687-3.867 3.866-3.867 1.336 0 2.32.563 3.093 1.828l.281.352 3.375-1.969-.282-.422c-1.616-2.32-3.725-3.444-6.397-3.444-5.132 0-7.873 3.866-7.873 7.522 0 3.655 2.741 7.592 7.873 7.592 2.601 0 5.062-1.336 6.398-3.444l.21-.493zm-.14 3.866h4.64l1.405-3.445h6.96l1.406 3.445h4.64L74.517.14h-4.148l1.125 2.671-7.592 17.364zm9.49-12.162l1.898 4.71h-3.796l1.898-4.71zM84.78 20.176h4.078v-8.998h2.671V7.38h-2.671V5.624c0-.773.492-1.547 1.476-1.547.492 0 .844.07 1.125.211l.422.211L93.568.844l-.492-.211C92.303.352 91.248.21 90.546.21c-1.829 0-3.375.633-4.36 1.757-.913.985-1.405 2.39-1.405 3.867v1.617h-1.828v3.796h1.757l.07 8.928zM30.299 0v20.176h4.429V8.646l4.288 3.164 4.288-3.163v11.529h4.429V0l-8.717 6.608L30.299 0zm70.299 5.132c-5.132 0-7.874 3.866-7.874 7.522 0 3.655 2.742 7.522 7.874 7.522 2.32 0 4.569-1.125 6.256-3.023l-3.304-1.828c-.843.844-1.898 1.336-3.022 1.336-1.688 0-3.164-1.125-3.515-2.53h11.037v-.985c0-5.554-4.359-8.014-7.452-8.014zm-3.515 5.624c.562-1.406 1.687-2.18 3.163-2.18 1.477 0 2.672.774 3.304 2.18h-6.467zm20.105-5.624c-5.132 0-7.873 3.866-7.873 7.522 0 3.655 2.741 7.522 7.873 7.522 2.32 0 4.57-1.125 6.257-3.023l-3.304-1.828c-.844.844-1.898 1.336-3.023 1.336-1.687 0-3.164-1.125-3.515-2.53h11.037v-.985c0-5.554-4.359-8.014-7.452-8.014zm-3.515 5.694c.563-1.406 1.687-2.18 3.164-2.18 1.476 0 2.671.774 3.304 2.18h-6.468zm10.405-6.397h1.687v.351h-.703v1.828h-.352V4.78h-.703v-.35h.071zm1.968 0h.492l.563 1.687.562-1.687h.492v2.109h-.211V4.92l-.562 1.617h-.281l-.703-1.617v1.617h-.352V4.429zM4.5 17.153V6.96l6.396 3.022v-4.92L0 0v20.035l10.896 5.062v-4.921L4.5 17.153z" fill="#C01818"/><path d="M17.364 17.153V6.96l-6.468 3.022v-4.92L21.793 0v20.035l-10.897 5.062v-4.921l6.468-3.023z" fill="#75160D"/></svg>