<svg width="132" height="40" fill="none" xmlns="http://www.w3.org/2000/svg"><path d="M4.273 20.318s4.954 1.636 6.273 1.273C11.818 21.18 5.5 13.954 4 12.273c0 0 3.773.545 4.045-1.182.228-1.727-.272-7.91-.272-7.91s2 2.819 4.363 2.728c2.364-.09 2.046-5 2.046-5s2.272 11.364 3.409 12.273c1.136.909 1.682-9.41 1.682-9.41s1.045 2.592 2.318 1.819C22.909 4.818 25.409 0 25.409 0s-.863 5.91.818 6.045c1.682.091 3.637-2.681 3.637-2.681S23.59 18.682 27.09 20.182c0 0-7.546 4.682-7.091 6.318.454 1.636 3.5 7.364 3.5 7.364l-1.864 1.909s-2.681-7-3.454-7c-.773 0-5.773 7.863-5.773 7.863s.045-2.727-3.045-2.363l-8.5 1s3.318-2.91 2.409-4.682C2.363 28.818 0 27.68 0 27.68s6.545-1.772 4.273-7.363z" fill="#E5262A"/><path d="M46.318 30.636c-5.818 0-8.727-3.5-8.727-8.727 0-4.59 1.773-8.363 4.545-10.59 2-1.683 4.682-2.546 7.5-2.546 2.818 0 5 .59 5.955 1.09L57.5 4.137c-.91-.59-3.636-1.409-7.182-1.409-4.636 0-8.682 1.137-12.136 3.5-5 3.318-8.319 9.091-8.319 16.455 0 8.682 5.864 13.954 14.546 13.954 3.955 0 6.955-.636 8.682-1.409l-.591-5.681c-1.591.727-3.864 1.09-6.182 1.09zM60.59 3.227l-6.272 32.955h7.046l6.272-32.955h-7.045zm31.864 8.955c0-3.182-1.363-5.455-3.545-7C86.5 3.455 83.091 3 80.182 3c-3.182 0-6.5.364-8.591.864L65.5 36.136h6.91l2.226-11.863c.728.09 1.728.181 2.864.181 4 0 7.818-.909 10.5-3.045 2.546-1.954 4.454-5.09 4.454-9.227zm-14.136 6.636c-1.182 0-1.954-.09-2.682-.227L77.5 8.864c.59-.137 1.5-.228 2.818-.228 2.728 0 5.046 1.046 5.046 4.182 0 3.273-2.773 6-7.046 6zm53.136 8.637a1.463 1.463 0 00-.954-.364c-.409 0-.864.136-1.318.364-.455.272-.955.727-1.5 1.363-.591.727-1 1.273-1.228 1.727-.272.455-.59.955-1 1.591-.136-.59-.227-1-.272-1.227-.046-.227-.182-.773-.455-1.727a3.82 3.82 0 00-.5-1.136c.409-.091.818-.137 1.182-.273a8.117 8.117 0 002.5-1.273c.727-.545 1.318-1.182 1.773-2 .454-.818.682-1.727.682-2.727 0-1.137-.455-2-1.364-2.682-.909-.636-2.091-.955-3.546-.955h-8.045l-.182.819c.273 0 .546.045.818.09.319.046.591.137.864.228.182.09.318.182.364.318.045.136.091.318.091.5v.273c0 .09-.046.181-.046.272l-3.045 13.137c-.046.318-.182.545-.319.772-.136.228-.409.41-.681.5-.182.046-.455.137-.864.182-.182 0-.318.046-.5.046l-3.773-32.046h-9.045l-16 32.91h7.454l3.91-8.546h9.454l.682 8.545h14.454l.182-.818c-.318 0-.636-.045-1.045-.09-.364-.046-.637-.092-.773-.183-.182-.09-.318-.181-.409-.363a1.617 1.617 0 01-.091-.5v-.227c0-.091 0-.182.045-.228l1.182-5.09c.228-.046.409-.091.637-.091.454 0 .818.09 1.091.272.272.182.545.637.772 1.318.182.546.364 1.182.546 1.91.182.727.363 1.363.545 2a13.092 13.092 0 01-1.5 2.181c-.545.637-.954 1.137-1.273 1.41-.272-.092-.545-.182-.818-.273a2.515 2.515 0 00-.772-.137c-.546 0-.955.137-1.273.41-.318.272-.455.636-.455 1.045 0 .409.137.727.409.954.273.228.591.364 1 .364.455 0 .909-.136 1.319-.41.454-.272.909-.726 1.409-1.317.591-.728 1-1.273 1.272-1.682.273-.41.591-.91.955-1.5.091.409.227.818.318 1.273.091.409.227.954.409 1.545.227.864.546 1.41.955 1.682.409.273.863.409 1.454.409a6.16 6.16 0 001.318-.136c.41-.091 1.046-.319 1.819-.682l.227-.864c-.182.091-.455.137-.818.182-.364.045-.637.09-.818.09-.546 0-1-.135-1.364-.454-.364-.318-.591-.727-.773-1.227-.182-.59-.363-1.136-.5-1.727-.136-.591-.363-1.273-.545-2.046.454-.818.909-1.545 1.409-2.181.5-.682.954-1.182 1.318-1.5.182.045.455.136.773.227.318.09.591.136.863.136.409 0 .819-.136 1.137-.363.363-.228.545-.591.545-1.091.091-.364-.045-.637-.273-.91zm-32.863-5.228l3.273-7.09c.863-1.91 1.818-4.455 2.636-6.455h.091c.136 2 .363 4.636.5 6.454l.636 7.091h-7.136zm23.818-3.136h1.636c.591 0 1.091.09 1.5.227.409.137.728.364 1 .637.273.272.455.59.546.954.091.364.182.727.182 1.091 0 .5-.091 1-.228 1.59-.136.546-.409 1.092-.727 1.592a4.427 4.427 0 01-1.727 1.454c-.591.273-1.318.41-2.091.455h-1.864l1.773-8z" fill="#2B2729"/></svg>