<svg width="32" height="40" fill="none" xmlns="http://www.w3.org/2000/svg"><path d="M9.299 16.46a1.953 1.953 0 113.906 0 1.953 1.953 0 01-3.906 0zm-.267 4.41v13.698h4.33V22.394c0-1.663-.701-1.513-4.33-1.513v-.011zm-8.087-.748v.748H0v3.66h.945v10.05h4.327V24.53h2.2v-3.66h-2.2v-1.035c0-1.835 2.015-1.623 2.61-1.54v-3.654a12.374 12.374 0 00-1.795-.07c-2.899.099-5.142 2.403-5.142 5.55zM21.69 34.844a9.5 9.5 0 01-1.864-.264V40H15.5V20.87c3.423 0 4.33-.076 4.33 1.513a3.794 3.794 0 013.281-1.774c2.899 0 4.83 2.046 4.83 6.585 0 5.142-2.784 7.635-6.247 7.635l-.003.015zm-.128-10.615a2.8 2.8 0 00-1.739.58v6.06c.44.217.928.316 1.418.29 1.547 0 2.124-.87 2.124-3.672 0-2.675-.68-3.252-1.808-3.252" fill="#000"/><path d="M22.733 0C18.096 0 14 3.501 14 8.986c0 6.478 5.24 7.715 5.875 9.565.06.18.087.37.079.56 0 0 1.776-.647 1.953-2.01.058-.443.174-1.321-1.058-2.159-1.397-.95-2.655-1.803-3.22-3.229-.197-.498-.264-1.113-.032-1.348.102-.104.226-.107.58-.142.974-.093 2.76-.139 4.548-.139 1.788 0 3.831.072 4.539.14.362.034.487.04.58.141.176.18.223.676-.024 1.348a4.417 4.417 0 01-1.77 2.133c-.87.58-1.618.87-1.98 1.337a1.075 1.075 0 00-.143 1.02 1.577 1.577 0 001.566 1.04c.655 0 1.556-.29 2.777-1.28 2.11-1.7 3.188-4.363 3.188-6.986C31.47 3.504 27.354 0 22.733 0zm3.108 16.023a.487.487 0 110-.974.487.487 0 010 .974zm1.675-7.246c-1.554 0-1.806-.322-2.078-1.058-.461-1.25-1.31-2.133-2.705-2.133-1.394 0-2.243.884-2.704 2.133-.273.736-.525 1.058-2.078 1.058-.467 0-.713-.055-.684-.612a5.487 5.487 0 0110.933 0c.029.554-.217.612-.684.612z" fill="#20C4F4"/></svg>