<svg width="158" height="40" fill="none" xmlns="http://www.w3.org/2000/svg"><path d="M51.405 22.305c-2.292 0-4.252-.442-5.88-1.324a8.614 8.614 0 01-3.664-3.7c-.814-1.585-1.222-3.449-1.222-5.592 0-2.184.461-4.14 1.383-5.866.889-1.694 2.24-3.1 3.898-4.055C47.596.794 49.508.307 51.653.307c2.76 0 5.096.712 7.007 2.137l-1.126 1.94c-1.687-1.154-3.628-1.73-5.822-1.73a8.037 8.037 0 00-4.3 1.154 7.647 7.647 0 00-2.866 3.184 10.172 10.172 0 00-1 4.566c0 2.557.682 4.592 2.047 6.106 1.365 1.513 3.344 2.271 5.938 2.274 1.764 0 3.315-.254 4.652-.76V13.15H50.79v-2.374h8.16v9.976c-2.262 1.035-4.777 1.553-7.546 1.553zm17.845 0c-2.39 0-4.287-.71-5.692-2.13-1.405-1.42-2.107-3.3-2.106-5.644 0-2.313.675-4.212 2.026-5.696 1.35-1.485 3.137-2.231 5.36-2.24 1.403 0 2.604.327 3.604.98a5.885 5.885 0 012.225 2.663 9.8 9.8 0 01.73 3.905c0 .182-.015.423-.044.715H64.232c.029 1.68.512 2.975 1.448 3.885.937.911 2.175 1.367 3.715 1.367a7.401 7.401 0 004.76-1.662l.806 1.99c-1.604 1.245-3.508 1.867-5.712 1.867zm-4.945-9.288h8.615c-.098-1.374-.498-2.432-1.2-3.174-.701-.742-1.637-1.112-2.807-1.112a4.364 4.364 0 00-3.08 1.141c-.823.76-1.332 1.808-1.528 3.145zm20.535 9.288c-2.435 0-4.335-.721-5.699-2.164-1.363-1.443-2.048-3.326-2.054-5.648 0-2.356.69-4.265 2.07-5.726 1.379-1.461 3.283-2.187 5.712-2.179 2.419 0 4.3.724 5.646 2.172 1.346 1.448 2.018 3.356 2.018 5.726 0 2.322-.682 4.204-2.047 5.647-1.365 1.443-3.247 2.167-5.646 2.172zm0-2.192c1.583 0 2.79-.511 3.62-1.534.83-1.023 1.248-2.384 1.251-4.082 0-1.727-.422-3.109-1.265-4.146-.844-1.038-2.051-1.557-3.62-1.558-1.583 0-2.798.52-3.644 1.558-.847 1.038-1.273 2.42-1.279 4.146 0 1.696.422 3.057 1.266 4.082.844 1.025 2.067 1.535 3.671 1.53v.004zm12.57 1.87V3.041h-6.802V.687h16.439V3.04h-6.844v18.942H97.41zm9.578.001V10.659c0-.33-.018-.803-.051-1.419-.033-.615-.066-1.145-.095-1.592l-.046-.674h2.853l.03 2.341c.908-1.793 2.247-2.69 4.018-2.69a6.175 6.175 0 011.519.182l-.014 2.375a6.334 6.334 0 00-1.644-.234c-1.151 0-2.077.403-2.778 1.207-.701.805-1.053 1.962-1.054 3.47v8.36l-2.738-.001zm15.825.336c-1.922 0-3.365-.548-4.331-1.644-.965-1.096-1.448-2.57-1.446-4.42v-9.28h2.675v9.28c0 1.288.305 2.256.914 2.904.609.648 1.489.972 2.643.973 1.317 0 2.346-.375 3.086-1.127.741-.75 1.112-1.721 1.115-2.911v-9.12h2.69v11.29c0 1.34.044 2.578.131 3.717h-2.739l-.073-2.415a5.631 5.631 0 01-1.785 1.953c-.765.533-1.725.8-2.88.8zm15.379-.015a9.55 9.55 0 01-5.734-1.814l.746-2.009a9.098 9.098 0 002.128 1.11 7.303 7.303 0 002.641.5c1.988 0 2.983-.731 2.984-2.192a1.546 1.546 0 00-.674-1.376c-.447-.3-1.319-.67-2.617-1.11l-1.288-.437a16.207 16.207 0 01-1.266-.498 6.793 6.793 0 01-1.048-.598 3.662 3.662 0 01-.849-.774 3.383 3.383 0 01-.519-1.01 4.192 4.192 0 01-.197-1.339 3.91 3.91 0 01.445-1.89 3.376 3.376 0 011.222-1.3 6.192 6.192 0 011.724-.708 8.087 8.087 0 012.01-.24c1.979 0 3.647.433 5.002 1.3l-.745 1.932a8.315 8.315 0 00-3.951-1.054c-.964 0-1.71.166-2.237.499a1.564 1.564 0 00-.789 1.399c0 .548.157.948.475 1.207.318.26.948.56 1.894.899.853.283 1.355.453 1.507.513.613.214 1.096.4 1.477.548.412.179.81.386 1.191.621.37.214.702.489.981.813.248.32.441.678.57 1.061.157.463.234.95.226 1.44a4.588 4.588 0 01-.453 2.098 3.52 3.52 0 01-1.229 1.405 5.866 5.866 0 01-1.682.752 7.277 7.277 0 01-1.945.252zm15.598-.321h-1.242c-2.126-.021-3.582-.402-4.367-1.142-.786-.74-1.178-2.09-1.176-4.051V8.767h-2.875V6.975h2.938v-3.86l2.634-.777v4.637h4.068v1.792h-4.068v8.17c-.009.437.028.873.11 1.302.06.3.177.585.343.84.185.249.448.426.747.505.376.114.763.19 1.155.226a17.93 17.93 0 001.74.066l-.007 2.108z" fill="#5E6C75"/><path fill-rule="evenodd" clip-rule="evenodd" d="M13.607 7.123c2.963-2.009 6.119-2.802 8.735-2.418V0H0v22.552h7.638a4.674 4.674 0 01-.252-.484c-2.11-4.463.669-11.151 6.221-14.945z" fill="#0174C3"/><path fill-rule="evenodd" clip-rule="evenodd" d="M22.217 7.28A10.676 10.676 0 0011.73 19.91c.266 1.152.88 1.51 1.446 1.753a2.6 2.6 0 00.661.183 5.645 5.645 0 003.421-.886c1.51-.94 2.63-2.47 3.233-4.212a75.83 75.83 0 00-5.428.835l.033-3.346 11.983-.8-.084 11.302-3.616.245v-.017l.055-.354c.14-.95.26-1.914.365-2.899.055-.568.106-1.134.146-1.707-.466.61-.989 1.177-1.56 1.691a12.908 12.908 0 01-2.928 1.987c-.795.395-1.628.707-2.487.932-.683.173-1.883.257-2.83.294a10.669 10.669 0 108.081-17.63h-.004z" fill="#F26F28"/><path d="M156.386 19.936a1.026 1.026 0 10.005.002l-.005-.002zm.005 1.849a.825.825 0 01-.586-1.405.824.824 0 011.168 1.16.826.826 0 01-.582.241" fill="#5E6C75"/><path d="M156.031 21.525v-1.13h.347a.626.626 0 01.21.025.27.27 0 01.141.113c.033.056.05.119.051.183a.35.35 0 01-.055.194.291.291 0 01-.15.113.28.28 0 01.035.051l.239.438h-.182l-.238-.449h-.243v.45l-.155.012zm.159-.588h.228a.181.181 0 00.146-.055.216.216 0 00.053-.15.18.18 0 00-.089-.182.348.348 0 00-.155-.026h-.183v.413z" fill="#5E6C75"/><path d="M118.952 34.475c0-.951.254-1.714.761-2.287a2.49 2.49 0 011.96-.853c.247-.002.493.03.731.095.189.048.368.128.529.237.121.088.236.183.346.285.078.07.147.15.206.238l.047.095h.024a3.402 3.402 0 01-.024-.404v-2.789h1.153v8.387h-1.096v-.57l.011-.403h-.024a1.317 1.317 0 01-.064.118 2.53 2.53 0 01-.202.267 1.875 1.875 0 01-.366.345 2.069 2.069 0 01-.564.267c-.249.08-.509.12-.771.119a2.372 2.372 0 01-1.93-.868c-.484-.577-.726-1.337-.727-2.28zm1.176 0a2.44 2.44 0 00.469 1.561 1.497 1.497 0 001.23.588 1.616 1.616 0 001.236-.547c.332-.366.499-.906.499-1.622a2.563 2.563 0 00-.446-1.504 1.45 1.45 0 00-1.253-.635 1.57 1.57 0 00-1.236.577c-.333.389-.499.915-.499 1.582zm5.523-4.207v-1.176h1.164v1.176h-1.164zm.011 7.211v-6.01h1.153v6.01h-1.153zm2.902 1.095a3.42 3.42 0 001.644.403c.493.024.98-.12 1.379-.41.347-.273.523-.699.523-1.28v-.44l.011-.38h-.024c-.373.628-.966.94-1.781.94a2.416 2.416 0 01-1.954-.874 3.32 3.32 0 01-.731-2.202c0-.888.233-1.61.7-2.169a2.364 2.364 0 011.939-.827c.253-.002.504.028.749.09.194.044.379.12.548.224.122.08.238.17.345.269.073.065.134.14.183.224l.058.084h.024a1.593 1.593 0 01-.011-.182v-.56h1.096v5.764c.009.433-.078.863-.256 1.258a2.13 2.13 0 01-.695.86 3.17 3.17 0 01-.963.47c-.363.11-.74.165-1.12.164a4.453 4.453 0 01-2.032-.515l.368-.911zm1.984-2.163a1.488 1.488 0 001.147-.488c.296-.325.446-.85.446-1.58 0-1.346-.567-2.02-1.699-2.02a1.47 1.47 0 00-1.205.53c-.291.352-.435.837-.435 1.461a2.342 2.342 0 00.469 1.525 1.554 1.554 0 001.279.572h-.002zm3.679-6.143v-1.176h1.163v1.176h-1.163zm.02 7.211v-6.01h1.152v6.01h-1.152zm1.989-3.004a3.043 3.043 0 01.913-2.246 3.152 3.152 0 012.301-.894c.42-.004.837.07 1.23.22.292.098.563.25.801.445l.227.214-.548.81a2.323 2.323 0 00-.208-.184 2.438 2.438 0 00-.57-.308 2.194 2.194 0 00-.886-.192 2.012 2.012 0 00-1.496.606 2.098 2.098 0 00-.594 1.533 2.137 2.137 0 00.6 1.545 2.031 2.031 0 001.526.617c.332 0 .66-.069.963-.202.247-.096.475-.232.676-.404l.214-.201.463.842-.1.102a2.83 2.83 0 01-.292.232 3.201 3.201 0 01-.486.29 4.032 4.032 0 01-.672.233 3.334 3.334 0 01-.85.106 3.146 3.146 0 01-2.316-.892 3.037 3.037 0 01-.896-2.272zm5.757 0c0-.943.283-1.703.849-2.282a2.892 2.892 0 012.161-.858c.815 0 1.461.265 1.912.796a2.98 2.98 0 01.689 2.024l-.044.49h-4.384a1.972 1.972 0 00.636 1.46c.394.348.905.532 1.43.518a2.44 2.44 0 00.913-.183c.234-.086.456-.201.66-.343l.214-.183.474.844a2.698 2.698 0 01-.284.237 3.997 3.997 0 01-.797.38 3.39 3.39 0 01-1.247.238 3.06 3.06 0 01-3.182-2.923v-.215zm1.224-.702h3.207a1.567 1.567 0 00-.433-1.14 1.413 1.413 0 00-1.015-.392 1.749 1.749 0 00-1.158.404c-.332.29-.546.691-.601 1.128zm5.214 3.707v-6.012h1.116v1.043l-.024.451h.024c.129-.436.378-.827.72-1.128a1.746 1.746 0 011.181-.44l.298.023v1.142a1.567 1.567 0 00-1.355.343c-.32.27-.552.63-.665 1.034a3.694 3.694 0 00-.143 1.081v2.462h-1.152zm4.791-2.198V32.48h-.785v-.927h.82v-1.735h1.116v1.735h1.45v.927h-1.45v2.672c-.005.204.028.407.095.6.049.148.128.283.232.399a1 1 0 00.321.224c.105.052.217.088.332.108.101.016.202.024.304.024l.272-.024v1.021a2.717 2.717 0 01-.404.024 4.19 4.19 0 01-.548-.035 2.316 2.316 0 01-.593-.182 1.897 1.897 0 01-.578-.366 1.822 1.822 0 01-.414-.659 2.64 2.64 0 01-.17-1.003zm3.344-6.204a.872.872 0 10.811.544.869.869 0 00-.802-.539l-.009-.005zm.009 1.576a.703.703 0 01-.144-1.388.704.704 0 01.842.683.698.698 0 01-.698.7" fill="#0174C3"/><path d="M156.265 30.422v-.963h.294a.562.562 0 01.183.022c.049.019.09.053.118.097.03.05.044.107.042.164a.283.283 0 01-.045.163.234.234 0 01-.126.097c.01.013.02.027.027.042l.205.365h-.152l-.203-.383h-.208v.396h-.135zm.135-.5h.194a.168.168 0 00.124-.048.183.183 0 00.046-.126.16.16 0 00-.077-.15.298.298 0 00-.132-.022h-.155v.345z" fill="#0174C3"/><path d="M64.051 34.636c0 .902-.206 1.628-.617 2.179a1.985 1.985 0 01-1.677.827c-.72 0-1.285-.228-1.697-.685v2.86h-1.013v-8.21h.926l.049.656a2.087 2.087 0 011.719-.765 2.024 2.024 0 011.69.803c.414.538.621 1.285.62 2.242v.093zm-1.012-.115c0-.669-.142-1.197-.427-1.584a1.376 1.376 0 00-1.173-.58 1.486 1.486 0 00-1.379.816v2.83a1.489 1.489 0 001.39.812 1.368 1.368 0 001.158-.577c.288-.385.431-.957.431-1.717zm2.031-.001a3.501 3.501 0 01.344-1.567c.207-.441.538-.813.951-1.072.42-.255.903-.386 1.394-.378a2.5 2.5 0 011.958.826c.5.559.749 1.302.749 2.23v.071a3.529 3.529 0 01-.332 1.553 2.523 2.523 0 01-.947 1.077 2.63 2.63 0 01-1.417.384 2.495 2.495 0 01-1.953-.838c-.496-.56-.745-1.298-.746-2.218v-.067zm1.02.121c-.029.564.132 1.12.456 1.582a1.55 1.55 0 002.451 0c.304-.403.455-.968.455-1.695a2.53 2.53 0 00-.462-1.58 1.474 1.474 0 00-1.227-.62 1.46 1.46 0 00-1.21.598c-.309.398-.463.968-.463 1.71v.005zm10.893 1.494l1.14-4.528h1.011l-1.724 5.925h-.822l-1.44-4.49-1.402 4.49h-.822l-1.718-5.925h1.006l1.167 4.435 1.38-4.435h.816l1.408 4.528zm5.64 1.507a2.59 2.59 0 01-1.96-.79c-.504-.528-.756-1.233-.756-2.117v-.183a3.554 3.554 0 01.338-1.575c.206-.441.532-.817.94-1.084.39-.257.846-.393 1.312-.391.77 0 1.37.253 1.797.76.428.506.64 1.232.638 2.177v.422h-4.019c-.01.518.173 1.023.512 1.415a1.61 1.61 0 001.247.539c.319.01.635-.065.914-.22.252-.15.474-.346.652-.58l.619.482c-.496.764-1.24 1.145-2.234 1.145zm-.126-5.313a1.353 1.353 0 00-1.028.448 2.16 2.16 0 00-.515 1.25h2.968v-.076c0-.434-.147-.856-.417-1.196a1.279 1.279 0 00-1.008-.426zm6.25.182a3.038 3.038 0 00-.498-.038c-.665 0-1.116.283-1.354.85v4.2h-1.012v-5.916h.987l.016.684a1.577 1.577 0 011.412-.793c.153-.008.307.018.45.076v.937zm3.229 5.131a2.583 2.583 0 01-1.96-.79c-.504-.528-.756-1.233-.756-2.117v-.183a3.555 3.555 0 01.336-1.575c.208-.442.534-.817.943-1.084.39-.257.845-.393 1.311-.391.771 0 1.37.253 1.798.76.427.506.64 1.233.64 2.18v.422H90.27c-.01.519.173 1.023.512 1.416a1.607 1.607 0 001.246.539c.318.01.634-.065.913-.22.252-.15.474-.347.652-.58l.619.482c-.497.76-1.242 1.141-2.236 1.141zm-.126-5.313a1.354 1.354 0 00-1.03.448c-.3.351-.48.79-.513 1.25h2.968v-.076a1.93 1.93 0 00-.416-1.196 1.279 1.279 0 00-1.009-.426zm3.363 2.191c0-.91.215-1.64.647-2.192a2.191 2.191 0 013.34-.118v-3.09h1.014v8.412h-.932l-.049-.637a2.062 2.062 0 01-1.691.745 2.02 2.02 0 01-1.679-.844c-.432-.563-.649-1.296-.65-2.2v-.076zm1.014.115c0 .672.138 1.197.416 1.577a1.346 1.346 0 001.15.57 1.478 1.478 0 001.407-.866v-2.722a1.489 1.489 0 00-1.395-.838 1.353 1.353 0 00-1.162.575c-.278.384-.416.952-.416 1.704zm13.18 0c0 .906-.208 1.637-.623 2.192a1.997 1.997 0 01-1.677.824c-.749 0-1.327-.265-1.735-.795l-.049.685h-.932V29.12h1.014v3.138a2.047 2.047 0 011.691-.76 2.01 2.01 0 011.695.815c.412.544.617 1.29.616 2.236v.087zm-1.012-.115c0-.69-.134-1.223-.4-1.6a1.325 1.325 0 00-1.151-.564 1.486 1.486 0 00-1.439.931v2.557a1.53 1.53 0 001.45.93 1.314 1.314 0 001.134-.564c.273-.37.409-.932.409-1.69h-.003zm4.117 1.528l1.38-4.44h1.085l-2.374 6.84c-.365.986-.951 1.478-1.757 1.477l-.192-.016-.378-.071v-.82l.274.021c.282.017.563-.056.802-.208.231-.2.396-.466.473-.762l.225-.602-2.114-5.86h1.107l1.469 4.44z" fill="#707E86"/></svg>