<svg width="165" height="40" fill="none" xmlns="http://www.w3.org/2000/svg"><path d="M43.127 14.177h16.616v3.077h-6.534V34.55h-3.593V17.254h-6.504v-3.077h.014zm15.906 5.622h3.07v2.846h.059c.101-.402.29-.79.565-1.164a5.199 5.199 0 011-1.035 5.28 5.28 0 011.303-.762 4.01 4.01 0 011.463-.288c.377 0 .652.014.797.029.145.014.29.043.45.057v3.135a10.506 10.506 0 00-.71-.1 6.075 6.075 0 00-.71-.044c-.551 0-1.072.115-1.565.33a3.604 3.604 0 00-1.275.964 4.882 4.882 0 00-.87 1.582c-.216.632-.318 1.351-.318 2.17v7.017h-3.274V19.8h.015zM82.79 34.55h-3.216v-2.056h-.058c-.406.747-1 1.337-1.797 1.783-.796.445-1.608.675-2.433.675-1.956 0-3.376-.474-4.245-1.438-.87-.963-1.304-2.415-1.304-4.356v-9.36h3.274v9.044c0 1.294.246 2.214.754 2.746.492.532 1.202.805 2.1.805.695 0 1.26-.1 1.724-.316.463-.216.84-.49 1.115-.849.29-.345.493-.776.623-1.265.13-.489.189-1.02.189-1.596v-8.555h3.274V34.55zm5.577-4.73c.101.948.464 1.61 1.086 1.998.638.374 1.391.575 2.275.575.304 0 .652-.029 1.043-.072a4.41 4.41 0 001.1-.273c.349-.13.624-.33.856-.59.217-.258.318-.59.304-1.006a1.385 1.385 0 00-.464-1.021c-.29-.273-.652-.474-1.1-.647-.45-.158-.957-.302-1.536-.417-.58-.115-1.16-.244-1.753-.374a16.741 16.741 0 01-1.768-.489 5.413 5.413 0 01-1.52-.776 3.422 3.422 0 01-1.073-1.237c-.275-.503-.405-1.121-.405-1.869 0-.805.203-1.466.594-2.013a4.493 4.493 0 011.492-1.308 6.952 6.952 0 012.013-.705c.74-.13 1.449-.201 2.115-.201.768 0 1.507.086 2.202.244a5.696 5.696 0 011.898.791c.565.36 1.029.834 1.405 1.41.377.575.609 1.279.71 2.099h-3.419c-.16-.777-.507-1.309-1.072-1.568-.565-.273-1.217-.402-1.94-.402a6.13 6.13 0 00-.827.057 4.549 4.549 0 00-.898.216 1.95 1.95 0 00-.71.46c-.188.201-.29.46-.29.79 0 .403.145.72.42.964.276.245.638.446 1.087.618.45.159.956.302 1.536.417.58.115 1.173.245 1.782.374.594.13 1.173.302 1.752.49.58.186 1.087.445 1.536.775.45.331.811.734 1.087 1.223.275.489.42 1.107.42 1.826 0 .877-.203 1.61-.609 2.228a4.801 4.801 0 01-1.564 1.481 7.388 7.388 0 01-2.144.834c-.783.173-1.565.259-2.333.259-.941 0-1.81-.1-2.607-.316-.797-.216-1.492-.532-2.072-.95A4.716 4.716 0 0185.6 32.12c-.333-.633-.507-1.395-.536-2.272h3.303v-.029zm10.807-10.022h2.477V15.37h3.274v4.43h2.955v2.43h-2.955v7.879c0 .345.014.633.043.891.029.245.102.46.203.633a.931.931 0 00.478.388c.218.086.493.13.87.13.231 0 .463 0 .695-.015a3.87 3.87 0 00.695-.1v2.516c-.362.043-.724.072-1.057.115a8.552 8.552 0 01-1.058.057c-.869 0-1.564-.086-2.086-.244-.521-.158-.941-.403-1.231-.72-.304-.315-.493-.704-.609-1.178a8.883 8.883 0 01-.188-1.625v-8.699h-2.477V19.8h-.03zm11.024 0h3.1v1.998h.058c.464-.863 1.101-1.466 1.927-1.84a6.39 6.39 0 012.68-.561c1.173 0 2.187.201 3.057.618a5.974 5.974 0 012.173 1.683c.579.719.999 1.552 1.289 2.501.29.95.434 1.97.434 3.049 0 .992-.13 1.955-.391 2.875a7.665 7.665 0 01-1.173 2.473c-.522.72-1.188 1.28-1.999 1.711-.812.432-1.753.647-2.854.647-.478 0-.956-.043-1.434-.13a6.365 6.365 0 01-1.377-.416 4.98 4.98 0 01-1.216-.733 4.565 4.565 0 01-.942-1.036h-.058V40h-3.274V19.799zm11.444 7.39a7.29 7.29 0 00-.26-1.941 5.215 5.215 0 00-.783-1.668 3.967 3.967 0 00-1.289-1.164 3.633 3.633 0 00-1.782-.446c-1.376 0-2.419.474-3.114 1.423-.696.95-1.043 2.214-1.043 3.796 0 .748.087 1.438.275 2.07.188.633.449 1.18.826 1.64.362.46.796.82 1.303 1.078.507.273 1.101.403 1.768.403.753 0 1.376-.159 1.898-.46a3.997 3.997 0 001.274-1.18 4.88 4.88 0 00.725-1.653c.13-.618.202-1.25.202-1.898zm5.781-13.012h3.274v3.077h-3.274v-3.077zm0 5.622h3.274V34.55h-3.274V19.799zm6.2-5.622h3.274V34.55h-3.274V14.177zm13.313 20.776c-1.188 0-2.245-.201-3.173-.59a7.009 7.009 0 01-2.361-1.61 7.004 7.004 0 01-1.463-2.458c-.333-.95-.507-1.999-.507-3.135a9.32 9.32 0 01.507-3.105 7.004 7.004 0 011.463-2.46c.637-.69 1.434-1.221 2.361-1.61.928-.388 1.985-.589 3.173-.589s2.245.201 3.172.59c.928.388 1.71.934 2.362 1.61.637.69 1.13 1.51 1.463 2.459a9.32 9.32 0 01.507 3.105c0 1.136-.174 2.186-.507 3.135a7.004 7.004 0 01-1.463 2.458c-.638.69-1.434 1.222-2.362 1.61-.927.389-1.984.59-3.172.59zm0-2.573c.724 0 1.362-.159 1.898-.46.536-.303.97-.705 1.318-1.194.348-.489.594-1.05.768-1.668.159-.618.246-1.25.246-1.898a7.66 7.66 0 00-.246-1.883 4.908 4.908 0 00-.768-1.668 3.989 3.989 0 00-1.318-1.18c-.536-.301-1.174-.46-1.898-.46s-1.362.159-1.898.46c-.536.303-.97.705-1.318 1.18a5.188 5.188 0 00-.768 1.668 7.658 7.658 0 00-.246 1.883c0 .647.087 1.28.246 1.898.159.619.42 1.18.768 1.668a4.03 4.03 0 001.318 1.194c.536.316 1.174.46 1.898.46zm8.46-12.581h2.477V15.37h3.274v4.43h2.955v2.43h-2.955v7.879c0 .345.015.633.044.891.029.245.101.46.202.633a.93.93 0 00.479.388c.217.086.492.13.869.13.231 0 .463 0 .695-.015a3.84 3.84 0 00.695-.1v2.516c-.362.043-.724.072-1.057.115a8.542 8.542 0 01-1.058.057c-.869 0-1.564-.086-2.086-.244-.521-.158-.941-.403-1.231-.72-.304-.315-.493-.704-.608-1.178a8.792 8.792 0 01-.189-1.625v-8.699h-2.477V19.8h-.029z" fill="#1A2B44"/><path d="M39.302 14.177H24.294L19.658 0l-4.65 14.177L0 14.163l12.154 8.77-4.65 14.163 12.154-8.757 12.14 8.757-4.636-14.163 12.14-8.756z" fill="#00B67A"/><path d="M28.205 26.14l-1.043-3.207-7.504 5.407 8.547-2.2z" fill="#005128"/></svg>