<svg width="37" height="34" fill="none" xmlns="http://www.w3.org/2000/svg"><path d="M35.64 16.537c-.648-.071-1.799.577-1.799.577l-3.167 1.511c-.557.323-1.097.631-1.137.643-.674.208-1.094.73-1.094.73 0 .86-.131 1.543-.888 2.248-.34.318-.86.557-1.388.726-1.171.374-2.265.594-4.464.548-1.037-.02-2.02-.302-5.007-.554-.69-.057-1.13-.043-1.062-.171.194-.363 6.26.263 6.98.223 2.328-.126 4.158-.732 4.63-1.303.485-.588.594-1.29.337-1.72-.303-.502-1.011-.762-3.253-.862-1.126-.048-2.142-.15-3.15-.15-.378 0-.829-.098-1.337-.272-3.305-1.425-7.549-2.959-10.759-.489A6.424 6.424 0 007.78 19.6c-.263.274-.591.591-.997.968-.24.223-.603.509-1.054.837l4.776 6.823c.3-.229.6-.451.908-.668l.73-.523a3.72 3.72 0 012.166-.691h5.572l1.36-.149a12.011 12.011 0 002.813-.657l1.008-.365 2.85-1.026c.011-.002.02-.008.031-.01a15.374 15.374 0 004.516-2.574l.95-.78c.335-.334 1.309-1.116 1.923-1.602a3.23 3.23 0 00.99-1.308c.064-.157.11-.3.11-.4 0-.36-.143-.862-.792-.937zM0 23.757l6.595 9.702 4.098-3.499-6.295-8.993L0 23.757zm7.506 5.52c.502 0 .908.406.908.91a.907.907 0 01-.908.907.909.909 0 010-1.816z" fill="#439AA7"/><path d="M18.482 14.468c.78.78 1.685 1.39 2.696 1.815a8.392 8.392 0 003.297.668 8.472 8.472 0 007.808-5.178 8.393 8.393 0 00.668-3.298A8.474 8.474 0 0027.773.667 8.379 8.379 0 0024.475 0a8.472 8.472 0 00-7.808 5.178A8.391 8.391 0 0016 8.475c0 1.144.224 2.255.668 3.298a8.374 8.374 0 001.814 2.695zm5.993-12.397a6.417 6.417 0 016.408 6.408 6.416 6.416 0 01-6.408 6.408 6.417 6.417 0 01-6.408-6.408c.004-3.536 2.876-6.408 6.408-6.408z" fill="#439AA7"/><path d="M24.342 10.33c-.4 0-.812-.123-1.133-.336l-.729-.487-.721 2.017.422.3c.34.241.812.425 1.32.52v1.129h2.032V12.22a2.608 2.608 0 001.068-.725 2.41 2.41 0 00.592-1.587c0-.624-.195-1.162-.581-1.599-.332-.379-.801-.682-1.476-.956-.263-.108-.631-.27-.801-.415-.08-.068-.08-.094-.08-.148 0-.079.037-.112.047-.122.065-.062.206-.094.38-.094.515 0 .833.18.984.267l.697.397.75-1.985-.498-.292a3.273 3.273 0 00-1.028-.386V3.478h-2.02v1.22a2.51 2.51 0 00-.971.635c-.404.43-.617.977-.617 1.584 0 .624.227 1.158.675 1.587.339.325.811.6 1.49.866.757.307.757.505.757.613.008.329-.461.347-.559.347z" fill="#439AA7"/></svg>