<svg width="31" height="19" fill="none" xmlns="http://www.w3.org/2000/svg"><path d="M0 1.267C0 .93.13.609.363.37A1.23 1.23 0 011.24 0h28.52c.329 0 .644.133.877.371.232.238.363.56.363.896v16.466c0 .336-.13.659-.363.896a1.227 1.227 0 01-.877.371H1.24a1.23 1.23 0 01-.877-.371A1.28 1.28 0 010 17.733V1.267z" fill="#006"/><path d="M17.4 9.654c0 3.413-2.708 6.18-6.049 6.18-3.342 0-6.05-2.767-6.05-6.18s2.708-6.18 6.05-6.18c3.34 0 6.05 2.767 6.05 6.18z" fill="#C00"/><path d="M19.473 3.474a5.958 5.958 0 00-4.061 1.6 6.221 6.221 0 00-.61.654h1.221c.168.208.322.426.462.654H14.34c-.128.21-.245.429-.349.655h2.842c.097.212.183.43.256.654h-3.354c-.07.215-.129.433-.176.654h3.706a6.354 6.354 0 01-.176 3.272h-3.354c.074.224.16.442.256.654h2.842c-.103.225-.22.444-.349.655H14.34c.14.228.294.446.461.654h1.222a6.122 6.122 0 01-.61.654 5.957 5.957 0 004.06 1.6c3.341 0 6.05-2.767 6.05-6.18s-2.709-6.18-6.05-6.18z" fill="#F90"/><path d="M9.872 11.466l.012-.264c-.165.209-.387.309-.688.309-.356 0-.6-.284-.6-.697 0-.62.425-.982 1.154-.982.074 0 .17.007.267.02a.652.652 0 00.026-.166c0-.169-.115-.232-.421-.232-.237 0-.471.038-.695.115l.09-.573c.328-.099.544-.136.787-.136.564 0 .862.26.862.748 0 .131-.02.292-.053.505-.057.369-.18 1.16-.197 1.354h-.544zm-.08-1.146c-.373 0-.561.13-.561.388 0 .159.092.26.236.26.268 0 .462-.26.473-.637a1.116 1.116 0 00-.147-.01zM8.32 11.466h-.658l.377-2.41-.84 2.41H6.75L6.696 9.07 6.3 11.466h-.615L6.2 8.332h.944l.057 1.754.577-1.754h1.05l-.508 3.134zm11.897 0l.012-.264c-.166.209-.387.309-.688.309-.356 0-.6-.284-.6-.697 0-.62.425-.982 1.153-.982.075 0 .17.007.267.02a.635.635 0 00.026-.166c0-.169-.114-.232-.42-.232a2.15 2.15 0 00-.697.115c.008-.043.092-.573.092-.573.327-.099.543-.136.786-.136.564 0 .863.26.862.748.001.131-.02.292-.053.505-.057.369-.18 1.16-.196 1.354h-.544zm-.08-1.146c-.373 0-.56.13-.56.388 0 .159.091.26.235.26.266 0 .458-.26.47-.637a1.093 1.093 0 00-.146-.01zm-6.802 1.107a1.47 1.47 0 01-.472.083c-.335 0-.518-.197-.518-.56-.005-.113.048-.41.09-.68l.285-1.739h.652l-.076.386h.394l-.089.612h-.396c-.075.485-.183 1.09-.185 1.17 0 .13.069.188.225.188a.525.525 0 00.177-.024l-.087.564zm1.633-1.531h-.721c.06-.293.21-.455.417-.455.373 0 .308.402.304.455zm.367 1.511l.109-.634c-.235.111-.446.16-.679.16-.38 0-.612-.153-.568-.523h1.3c.057-.258.08-.44.08-.627 0-.564-.343-.923-.881-.923-.658 0-1.143.642-1.143 1.513 0 .747.381 1.137 1.112 1.138.227 0 .453-.035.67-.104zM10.81 9.723c0 .322.153.545.5.712.266.128.308.165.308.281 0 .159-.118.231-.377.231-.197 0-.378-.031-.589-.1l-.09.588c.149.033.282.064.683.075.693 0 1.013-.269 1.013-.851 0-.35-.133-.556-.463-.71-.275-.13-.307-.159-.307-.278 0-.138.11-.208.322-.208.129 0 .305.014.472.038l.093-.591a4.344 4.344 0 00-.578-.05c-.735 0-.989.392-.987.863zm7.72-.795c.182 0 .353.048.587.169l.107-.68c-.096-.04-.435-.266-.722-.266-.439 0-.811.223-1.072.59-.381-.128-.538.132-.73.392l-.17.04c.012-.085.024-.17.02-.256h-.604c-.082.79-.228 1.588-.342 2.378l-.03.171h.657c.11-.728.17-1.193.206-1.51l.248-.14c.037-.14.152-.187.384-.181a2.914 2.914 0 00-.046.522c0 .834.44 1.353 1.148 1.353.181 0 .338-.024.58-.091l.115-.715c-.217.11-.396.161-.558.161-.381 0-.612-.288-.612-.764 0-.69.343-1.173.833-1.173m4.404 1.447c0-.501.21-.857.507-.857.225 0 .347.176.347.5 0 .505-.215.86-.52.86-.222 0-.334-.17-.334-.503zm1.011-1.138c-.179-.241-.372-.416-.627-.416-.33 0-.633.257-.83.635a5.314 5.314 0 01-.56-.158c.023-.21.032-.337.03-.38h-.604c-.082.788-.228 1.587-.342 2.377l-.03.171h.657a69.64 69.64 0 00.206-1.465c.225-.207.338-.387.564-.376-.105.263-.16.544-.16.828 0 .637.316 1.057.794 1.057.24 0 .425-.085.606-.281l-.031.237h.62l.501-3.134h-.648l-.146.905z" fill="#006"/><path d="M8.508 11.28h-.657l.377-2.41-.84 2.41H6.94l-.055-2.396-.396 2.395h-.614l.513-3.134h.944l.027 1.94.637-1.94h1.02l-.508 3.134zm1.553 0l.013-.264c-.166.208-.388.308-.688.308-.357 0-.6-.284-.6-.697 0-.62.424-.982 1.153-.982.074 0 .17.007.267.02a.65.65 0 00.026-.166c0-.169-.115-.231-.421-.231a2.14 2.14 0 00-.696.114l.091-.574c.328-.098.543-.134.787-.134.564 0 .862.259.862.747 0 .131-.02.293-.053.505-.058.37-.18 1.161-.197 1.354h-.544zm-.08-1.146c-.373 0-.561.13-.561.388 0 .158.092.26.236.26.268 0 .461-.26.473-.638a1.079 1.079 0 00-.147-.01zm9.431-1.904l-.107.68c-.235-.12-.405-.17-.587-.17-.49 0-.834.485-.834 1.176 0 .476.23.764.613.764.162 0 .34-.051.558-.161l-.116.715a2.016 2.016 0 01-.58.091c-.707 0-1.148-.52-1.148-1.354 0-1.12.609-1.905 1.48-1.905.286 0 .625.125.721.163zm.994 3.05l.012-.264c-.166.208-.387.308-.688.308-.356 0-.6-.284-.6-.697 0-.62.424-.982 1.153-.982.074 0 .17.007.267.02a.65.65 0 00.026-.166c0-.169-.114-.231-.421-.231a2.114 2.114 0 00-.695.114l.091-.574c.328-.098.543-.134.786-.134.564 0 .863.259.862.747.001.131-.02.293-.053.505-.057.37-.18 1.161-.196 1.354h-.544zm-.08-1.146c-.372 0-.56.13-.56.388 0 .158.092.26.235.26.266 0 .459-.26.47-.638a1.046 1.046 0 00-.146-.01zm-6.802 1.106c-.18.058-.32.083-.471.083-.336 0-.52-.197-.52-.56-.004-.113.05-.409.09-.68l.286-1.739h.653l-.077.386h.335l-.089.612h-.336c-.076.486-.184 1.09-.185 1.169 0 .132.069.189.225.189a.517.517 0 00.177-.024l-.087.564m1.629-1.53h-.718c.06-.294.209-.456.416-.456.371 0 .306.402.302.455zm.37 1.51l.109-.633a1.52 1.52 0 01-.68.16c-.379 0-.61-.154-.566-.524h1.3c.056-.257.08-.44.08-.627 0-.563-.344-.922-.883-.922-.657 0-1.142.641-1.142 1.513 0 .746.381 1.137 1.112 1.137.23 0 .446-.033.67-.103zM11 9.537c0 .322.152.544.5.711.265.128.307.166.307.282 0 .159-.118.23-.378.23-.2 0-.399-.034-.588-.1l-.09.588c.149.034.282.064.683.076.693 0 1.013-.27 1.013-.852 0-.35-.134-.556-.463-.71-.275-.13-.307-.158-.307-.277 0-.138.11-.21.322-.21.128 0 .304.015.472.04l.093-.591a4.377 4.377 0 00-.578-.05c-.735 0-.989.392-.987.863zm12.458 1.153c-.224 0-.337-.169-.337-.502 0-.501.212-.857.51-.857.225 0 .347.176.347.5 0 .505-.214.86-.52.86zm.969.59l.5-3.135h-.648l-.146.905c-.18-.24-.372-.347-.627-.347-.579 0-1.068.714-1.068 1.563 0 .637.316 1.057.793 1.057.24 0 .425-.085.605-.281l-.03.237h.62zm-2.885-2.55c-.082.79-.228 1.59-.342 2.38l-.03.172h.657c.235-1.56.291-1.865.66-1.827.059-.32.168-.6.25-.74-.276-.059-.43.1-.63.402.015-.13.044-.257.039-.387h-.604m-5.406 0c-.082.79-.229 1.59-.343 2.38l-.03.172h.658c.235-1.56.291-1.865.659-1.827.059-.32.168-.6.25-.74-.275-.059-.43.1-.63.402.016-.13.045-.257.04-.387h-.604z" fill="#fff"/></svg>