<svg width="30" height="19" fill="none" xmlns="http://www.w3.org/2000/svg"><path d="M28.664 0H1.284C.75 0 .415.082.233.253.076.447 0 .765 0 1.235v16.489C0 18.564.434 19 1.283 19h27.381c.89 0 1.336-.435 1.336-1.276V1.229C30 .4 29.555 0 28.664 0z" fill="#F5BD56"/><path d="M22.066 7.2c-.627 0-1.125.165-1.505.241l-.118.96c.188-.095.791-.26 1.29-.277.497-.018.79.094.685.517-1.477 0-2.473.306-2.678 1.265-.293 1.647 1.506 1.6 2.227.883l-.088.394h1.318l.569-2.624c.234-1.1-.774-1.376-1.7-1.359zm.088 2.683c-.07.353-.351.5-.685.517-.293.018-.557-.24-.364-.547.147-.259.557-.317.803-.317h.322c-.029.117-.046.223-.076.347zm2.736-3.718l-1.09 5.03h1.343l1.101-5.03h-1.353zm-6.14.012H16.3l-1.083 5.012h1.424l.369-1.659h1.013c.997 0 1.817-.612 2.04-1.647.24-1.17-.61-1.706-1.313-1.706zm-.047 1.706c-.088.382-.469.688-.838.688h-.662l.293-1.37h.703c.375 0 .592.306.504.682z" fill="#167DB0"/><path d="M9.246 7.2c-.62 0-1.113.165-1.476.241l-.118.959c.176-.094.768-.259 1.26-.276.492-.018.78.094.692.517-1.46 0-2.444.306-2.643 1.265-.287 1.647 1.488 1.6 2.18.882l-.088.394h1.318l.563-2.623c.234-1.1-.78-1.377-1.688-1.359zm.1 2.682c-.07.353-.363.5-.692.518-.287.018-.533-.241-.345-.547.146-.259.55-.318.779-.318h.334a1.747 1.747 0 00-.076.347zm2.162-2.612h1.318l.211 2.336 1.283-2.335h1.36l-3.123 5.588h-1.471l.96-1.641-.538-3.947zM5.97 6.177H3.522l-1.09 5.011h1.442l.352-1.659h1.03c.985 0 1.811-.611 2.028-1.647.246-1.17-.592-1.705-1.312-1.705zm-.04 1.705c-.088.383-.457.689-.826.689H4.43L4.74 7.2h.703c.352 0 .592.306.487.682zm20.601-1.07v-.594h-.222v-.083h.533v.083h-.223v.594h-.088zm.399 0v-.67h.134l.159.476c.017.047.023.076.029.1a1.06 1.06 0 01.035-.106l.158-.465h.117v.67h-.087v-.564l-.194.565H27.2l-.193-.571v.57h-.076v-.005z" fill="#1C567E"/></svg>