<svg width="32" height="19" fill="none" xmlns="http://www.w3.org/2000/svg"><path d="M0 1.267A1.267 1.267 0 011.267 0H30.4a1.267 1.267 0 011.267 1.267v16.466A1.267 1.267 0 0130.4 19H1.267A1.267 1.267 0 010 17.733V1.267z" fill="#0B4A8E"/><path d="M4.13 12.852l.233-.024a.288.288 0 00.086.174.26.26 0 00.174.055c.077 0 .135-.016.174-.05a.147.147 0 00.06-.114.11.11 0 00-.026-.072.197.197 0 00-.086-.052 3.09 3.09 0 00-.191-.052.651.651 0 01-.27-.117.31.31 0 01-.058-.408.323.323 0 01.148-.12.601.601 0 01.234-.042c.15 0 .261.033.337.098a.35.35 0 01.119.263l-.241.01c-.01-.061-.032-.105-.066-.132-.034-.027-.085-.04-.152-.04a.273.273 0 00-.164.043.086.086 0 00-.038.073.092.092 0 00.036.073c.03.025.103.052.22.079.117.028.203.056.259.085.056.03.1.07.131.122a.356.356 0 01.048.19.351.351 0 01-.218.325.675.675 0 01-.259.043c-.15 0-.266-.034-.346-.104a.46.46 0 01-.145-.306zm1.215-.592h.229v-.21h-.229v.21zm0 .979h.229v-.862h-.229v.862zm1.299.001h-.229v-.442a.674.674 0 00-.014-.18.127.127 0 00-.048-.065.135.135 0 00-.079-.022.182.182 0 00-.105.032.163.163 0 00-.065.086.762.762 0 00-.017.199v.391h-.229v-.862h.213v.127a.344.344 0 01.284-.148c.05 0 .096.01.137.027.037.015.07.04.095.07.021.028.036.06.044.096a.697.697 0 01.013.153v.537m.516.085c.004.032.014.054.03.066.021.018.056.026.102.026.06 0 .105-.009.134-.027a.11.11 0 00.046-.057.346.346 0 00.01-.105l.001-.126a.308.308 0 01-.257.138.318.318 0 01-.275-.147.501.501 0 01-.08-.29c0-.144.035-.255.105-.331a.336.336 0 01.26-.115c.106 0 .194.047.263.14v-.119h.212v.775a.757.757 0 01-.025.228.282.282 0 01-.07.12.313.313 0 01-.122.066.654.654 0 01-.192.025c-.146 0-.25-.025-.311-.076a.237.237 0 01-.092-.192v-.027l.26.028zm-.002-.33a.162.162 0 00.13.064.18.18 0 00.14-.066c.038-.044.057-.109.057-.195 0-.09-.018-.156-.055-.2a.172.172 0 00-.138-.065.167.167 0 00-.134.064c-.035.043-.053.108-.053.196 0 .091.018.16.053.202zm.828-.944h.23v1.189h-.23v-1.19zm1.242.956a.37.37 0 01-.139.19.41.41 0 01-.237.064c-.15 0-.261-.049-.334-.147a.492.492 0 01-.085-.297c0-.142.037-.255.112-.336a.37.37 0 01.284-.12c.129 0 .23.042.304.126.074.086.11.216.107.39h-.573c.001.068.02.121.055.159a.175.175 0 00.133.056.142.142 0 00.09-.029.178.178 0 00.056-.093l.227.037zm-.266-.421a.158.158 0 00-.12-.052.16.16 0 00-.124.054.212.212 0 00-.049.15h.345c-.002-.067-.019-.118-.052-.153zm1.026.654v-1.19h.88v.2h-.64v.265h.595v.2h-.595v.324h.663v.2h-.903zm1.719.001v-.13a.34.34 0 01-.283.151.343.343 0 01-.16-.038.225.225 0 01-.099-.107.474.474 0 01-.031-.191v-.547h.229v.397c0 .12.004.195.013.223.007.026.023.049.045.065s.05.023.085.023a.179.179 0 00.168-.111.921.921 0 00.017-.233v-.364h.229v.862h-.213m.717 0h-.23v-.863h.213v.123a.379.379 0 01.098-.115.176.176 0 01.099-.029c.052 0 .102.015.15.043l-.07.2a.203.203 0 00-.107-.037.128.128 0 00-.082.026.181.181 0 00-.052.095 1.362 1.362 0 00-.02.29v.266zm.479-.662a.386.386 0 01.159-.163.472.472 0 01.23-.056.43.43 0 01.445.448c0 .13-.042.239-.127.325a.427.427 0 01-.317.128.5.5 0 01-.226-.053.367.367 0 01-.164-.157.525.525 0 010-.472zm.239.428a.195.195 0 00.15.068.193.193 0 00.15-.068.293.293 0 00.061-.198c0-.084-.02-.15-.06-.195a.194.194 0 00-.15-.068.195.195 0 00-.151.068c-.04.045-.061.11-.061.196 0 .086.02.151.06.197zm1.339-.956h.385c.146 0 .242.005.286.017a.31.31 0 01.17.117c.047.06.07.136.07.231a.387.387 0 01-.04.184.347.347 0 01-.225.174 1.362 1.362 0 01-.249.017h-.156v.449h-.24v-1.19zm.24.543h.132a.607.607 0 00.19-.02.158.158 0 00.101-.152.157.157 0 00-.134-.162 1.139 1.139 0 00-.172-.008h-.116v.342zm.876.011a.32.32 0 01.12-.185.441.441 0 01.254-.06c.101 0 .177.012.227.036a.24.24 0 01.105.092c.02.037.03.105.03.204l-.002.266c0 .075.003.13.01.167a.523.523 0 00.042.115h-.227a.813.813 0 01-.03-.092.36.36 0 01-.267.114.293.293 0 01-.209-.073.24.24 0 01-.076-.182.228.228 0 01.133-.218.761.761 0 01.18-.053c.107-.02.181-.039.222-.056v-.023c0-.044-.01-.076-.033-.095-.021-.018-.062-.028-.123-.028a.164.164 0 00-.095.024.166.166 0 00-.056.085l-.205-.038zm.374.26a.406.406 0 00-.124.04.095.095 0 00-.044.08c0 .033.011.06.035.084a.123.123 0 00.09.035.196.196 0 00.118-.04.144.144 0 00.054-.077.445.445 0 00.01-.111v-.046a1.436 1.436 0 01-.14.035zm.527-.486h.243l.207.612.201-.612h.236l-.359.981a.613.613 0 01-.057.116.249.249 0 01-.15.103.458.458 0 01-.116.014.612.612 0 01-.13-.014l-.02-.179a.52.52 0 00.097.01c.053 0 .092-.015.118-.046a.328.328 0 00.059-.12l-.329-.865zm1.067-.001h.21v.118a.337.337 0 01.27-.139.29.29 0 01.144.034c.042.025.077.06.1.104a.4.4 0 01.123-.104.3.3 0 01.14-.034c.063 0 .117.013.16.039a.235.235 0 01.1.113.49.49 0 01.023.18v.551h-.229v-.494c0-.085-.008-.14-.024-.165-.02-.033-.053-.05-.097-.05a.155.155 0 00-.09.03.163.163 0 00-.06.086.608.608 0 00-.02.178v.415h-.228v-.473a.65.65 0 00-.012-.163.103.103 0 00-.038-.054.12.12 0 00-.07-.018.157.157 0 00-.155.11.62.62 0 00-.018.178v.42h-.229v-.862zm2.271.629a.372.372 0 01-.138.19.41.41 0 01-.238.064c-.15 0-.261-.049-.333-.147a.492.492 0 01-.086-.297c0-.142.038-.255.113-.336a.37.37 0 01.283-.12c.129 0 .23.042.304.126.075.086.11.216.107.39h-.573c.002.068.02.121.056.159a.175.175 0 00.132.056c.036 0 .067-.01.091-.029a.177.177 0 00.056-.093l.226.037zm-.266-.421a.157.157 0 00-.119-.052.158.158 0 00-.124.054.21.21 0 00-.048.15h.343a.223.223 0 00-.052-.153zm1.295.655h-.228v-.442a.676.676 0 00-.015-.18.128.128 0 00-.047-.065.135.135 0 00-.08-.022.181.181 0 00-.105.032.164.164 0 00-.064.086.762.762 0 00-.017.199v.391h-.23v-.862h.213v.127a.344.344 0 01.284-.148c.05 0 .096.01.138.027.037.015.07.04.094.07.022.028.037.06.045.096a.694.694 0 01.012.153v.537m.679-.861v.182h-.156v.348c0 .07.001.112.004.124.003.011.01.021.02.029a.063.063 0 00.038.011c.02 0 .05-.007.09-.022l.02.177a.447.447 0 01-.18.034.283.283 0 01-.11-.02.161.161 0 01-.072-.055.212.212 0 01-.032-.088 1.127 1.127 0 01-.007-.162v-.376h-.104v-.182h.104v-.172l.229-.135v.307h.155zm.126.619l.228-.036c.01.044.03.078.06.1a.2.2 0 00.124.035.223.223 0 00.133-.033.073.073 0 00.03-.061.06.06 0 00-.016-.043.185.185 0 00-.077-.03c-.185-.041-.302-.078-.352-.112a.221.221 0 01-.102-.194c0-.074.03-.137.088-.188.06-.05.152-.076.276-.076.119 0 .207.02.264.057a.291.291 0 01.12.17l-.215.04a.132.132 0 00-.053-.078.196.196 0 00-.111-.027c-.061 0-.105.009-.13.026a.054.054 0 00-.027.046c0 .017.008.03.023.042a.88.88 0 00.214.064.64.64 0 01.255.101.213.213 0 01.072.17c0 .08-.033.148-.099.205-.066.057-.164.085-.293.085a.485.485 0 01-.279-.07.327.327 0 01-.134-.193zm2.382.242l-.103-.27h-.48l-.098.27h-.254l.46-1.19h.253l.48 1.19h-.258zm-.348-.911l-.162.441h.33l-.168-.441zm.996.912h-.228v-.863h.212v.123a.379.379 0 01.098-.115.175.175 0 01.099-.029c.052 0 .102.015.15.043l-.07.2a.203.203 0 00-.107-.037.128.128 0 00-.082.026.181.181 0 00-.052.095 1.362 1.362 0 00-.02.29v.266zm1.206-.234a.372.372 0 01-.138.19.41.41 0 01-.238.064c-.15 0-.26-.049-.333-.147a.492.492 0 01-.085-.297c0-.142.037-.255.112-.336a.37.37 0 01.284-.12c.128 0 .23.042.304.126.074.086.11.216.106.39h-.573a.23.23 0 00.056.159.175.175 0 00.133.056.142.142 0 00.09-.029.179.179 0 00.056-.093l.226.037zm-.266-.421a.158.158 0 00-.119-.052.158.158 0 00-.123.054.21.21 0 00-.049.15h.343a.224.224 0 00-.051-.153zm.477.019a.32.32 0 01.12-.185.44.44 0 01.253-.06c.102 0 .178.012.228.036a.24.24 0 01.105.092c.02.037.03.105.03.204l-.003.266c0 .075.004.13.012.167a.49.49 0 00.04.115h-.226a.855.855 0 01-.03-.092.362.362 0 01-.267.114.293.293 0 01-.209-.073.24.24 0 01-.077-.182c0-.049.012-.092.035-.13a.228.228 0 01.098-.088.762.762 0 01.181-.053c.107-.02.181-.039.222-.056v-.023c0-.044-.01-.076-.033-.095-.022-.018-.063-.028-.123-.028a.164.164 0 00-.095.024.166.166 0 00-.056.085l-.205-.038zm.373.26a.413.413 0 00-.123.04.096.096 0 00-.045.08c0 .033.012.06.036.084a.123.123 0 00.09.035.196.196 0 00.117-.04.144.144 0 00.055-.077.447.447 0 00.009-.111v-.046a1.429 1.429 0 01-.139.035zM9.182 7.375H7.624c0-.256-.03-.428-.09-.515-.092-.13-.348-.194-.767-.194-.407 0-.677.037-.808.111-.132.075-.198.238-.198.488 0 .227.059.376.176.448a.73.73 0 00.332.09l.314.021a44.63 44.63 0 011.262.095c.532.054.918.195 1.158.425.189.179.301.413.337.702.021.173.031.369.031.586 0 .502-.047.869-.143 1.101-.174.427-.563.697-1.17.81-.254.048-.643.072-1.165.072-.873 0-1.48-.052-1.824-.157-.422-.127-.7-.387-.834-.777-.075-.218-.112-.58-.112-1.086h1.558v.13c0 .27.078.444.233.521a.913.913 0 00.39.085h.572c.293 0 .48-.015.56-.045a.456.456 0 00.282-.272c.024-.078.036-.178.036-.3 0-.275-.1-.441-.3-.501-.075-.024-.422-.057-1.042-.098-.498-.036-.844-.07-1.038-.103-.51-.096-.85-.292-1.02-.59-.149-.254-.223-.637-.223-1.15 0-.39.04-.703.12-.938.081-.236.21-.414.39-.537.263-.187.6-.298 1.008-.33.377-.032.755-.047 1.134-.046.654 0 1.12.038 1.397.113.678.182 1.018.692 1.018 1.531a4.6 4.6 0 01-.016.31zm6.854-1.985h3.12c.428 0 .755.034.98.104.512.161.857.49 1.033.988.091.262.137.655.137 1.18 0 .632-.05 1.086-.15 1.362-.2.547-.613.862-1.235.943-.073.012-.384.023-.934.032l-.278.01h-.998v1.607h-1.675V5.39zm2.719 3.174c.331-.012.532-.037.605-.077.099-.055.165-.164.198-.327a2.75 2.75 0 00.032-.486c0-.263-.021-.458-.064-.586-.06-.178-.204-.287-.432-.327a3.206 3.206 0 00-.325-.01h-1.058v1.813h1.044zm3.885 1.976l-.302 1.076h-1.733l1.87-6.226h2.527l1.893 6.226h-1.697l-.32-1.076H22.64zm1.121-3.912L23 9.327h1.546l-.785-2.7z" fill="#fff"/><path d="M13.724 6.265a2.202 2.202 0 011.713.817l.36-.774a3.165 3.165 0 00-2.18-.863c-1.32 0-2.449.797-2.912 1.926H10l-.416.891h.906a2.984 2.984 0 00.004.553h-.455l-.416.892h1.102a3.14 3.14 0 002.89 1.872c.656 0 1.263-.196 1.766-.531V9.955a2.2 2.2 0 01-2.708.486 2.205 2.205 0 01-.797-.734h2.308l.416-.892h-3.063a2.254 2.254 0 01-.013-.553h3.334l.415-.891h-3.461a2.206 2.206 0 011.911-1.105" fill="#F6BC25"/></svg>