<svg width="31" height="19" fill="none" xmlns="http://www.w3.org/2000/svg"><path d="M0 1.362V18.06l31 .194V1.362H0z" fill="#fff"/><path d="M5.136 6.698l1.804 6.64h2.1l3.263-7.692h-2.124l-2.061 5.22-.842-4.085-2.14-.083zm7.964-1.08l-1.252 7.72h1.981l1.281-7.72H13.1zm7.845 1.845l.291-1.618a5.923 5.923 0 00-1.924-.338c-1.047 0-3.325.654-3.325 2.554 0 1.902 2.847 1.99 2.847 3.039 0 1.046-2.534.936-3.296.254l-.32 1.663c.692.25 1.42.394 2.158.427 1.02 0 3.559-.228 3.559-2.695 0-2.156-2.847-1.729-2.847-3.036 0 0 .29-1.308 2.847-.255l.01.005zm-.147 5.897h2.186l.358-1.11h2.682l.222 1.11h1.896l-1.72-7.654h-1.747c-.442.088-.8.402-.933.82-.274.737-2.944 6.835-2.944 6.835z" fill="#0058A0"/><path d="M25.723 10.64h-1.777l1.11-2.838.667 2.837z" fill="#fff"/><path d="M7.897 9.797L7.27 6.78s-.086-1.108-.917-1.108H2.972v.156c2.201.492 4.03 1.976 4.925 3.995v-.027z" fill="#0058A0"/><path d="M31 14.469H0v3.88c0 .333.277.603.62.603h29.76c.343 0 .62-.27.62-.604V14.47z" fill="#FAA61A"/><path d="M30.38.06H.62A.61.61 0 000 .662v3.88h31V.662a.611.611 0 00-.62-.604z" fill="#0058A0"/></svg>