<svg width="33" height="19" viewBox="0 0 33 19" fill="none" xmlns="http://www.w3.org/2000/svg">
<path d="M1.31967 0H31.6803C31.7236 0 31.7667 0.00203261 31.8097 0.00609783C31.8527 0.010163 31.8954 0.0162413 31.9378 0.0243325C31.9802 0.0324239 32.022 0.0424893 32.0634 0.0545287C32.1048 0.066568 32.1454 0.0805235 32.1853 0.0963952C32.2253 0.112267 32.2643 0.129978 32.3024 0.149529C32.3405 0.16908 32.3776 0.190377 32.4135 0.213418C32.4494 0.23646 32.4841 0.261137 32.5175 0.287448C32.5509 0.313759 32.5829 0.341578 32.6135 0.370905C32.644 0.400233 32.673 0.430926 32.7005 0.462986C32.7279 0.495047 32.7536 0.528319 32.7776 0.562802C32.8016 0.597287 32.8238 0.632818 32.8442 0.669395C32.8645 0.705975 32.883 0.743423 32.8996 0.781739C32.9161 0.820056 32.9306 0.859059 32.9432 0.898748C32.9557 0.938436 32.9662 0.978619 32.9746 1.0193C32.9831 1.05998 32.9894 1.10095 32.9936 1.14223C32.9979 1.1835 33 1.22488 33 1.26635V17.7337C33 17.7751 32.9979 17.8165 32.9936 17.8578C32.9894 17.8991 32.9831 17.94 32.9746 17.9807C32.9662 18.0214 32.9557 18.0616 32.9432 18.1012C32.9306 18.1409 32.9161 18.1799 32.8996 18.2182C32.883 18.2566 32.8645 18.294 32.8442 18.3306C32.8238 18.3672 32.8016 18.4027 32.7776 18.4372C32.7536 18.4717 32.7279 18.505 32.7005 18.537C32.673 18.5691 32.644 18.5998 32.6135 18.6291C32.5829 18.6584 32.5509 18.6862 32.5175 18.7126C32.4841 18.7389 32.4494 18.7635 32.4135 18.7866C32.3776 18.8096 32.3405 18.8309 32.3024 18.8505C32.2643 18.87 32.2253 18.8877 32.1853 18.9036C32.1454 18.9195 32.1048 18.9334 32.0634 18.9455C32.022 18.9575 31.9802 18.9676 31.9378 18.9757C31.8954 18.9838 31.8527 18.9898 31.8097 18.9939C31.7667 18.998 31.7236 19 31.6803 19H1.31967C1.27645 19 1.23333 18.998 1.19032 18.9939C1.14731 18.9898 1.10461 18.9838 1.06221 18.9757C1.01982 18.9676 0.97795 18.9575 0.93659 18.9455C0.89523 18.9334 0.854585 18.9195 0.814655 18.9036C0.774725 18.8877 0.7357 18.87 0.69758 18.8505C0.659463 18.8309 0.622436 18.8096 0.586499 18.7866C0.550564 18.7635 0.515891 18.7389 0.48248 18.7126C0.449071 18.6862 0.417085 18.6584 0.386522 18.6291C0.35596 18.5998 0.32697 18.5691 0.299551 18.537C0.272132 18.505 0.246417 18.4717 0.222404 18.4372C0.198392 18.4027 0.176199 18.3672 0.155825 18.3306C0.135451 18.294 0.116994 18.2566 0.100454 18.2182C0.0839139 18.1799 0.0693708 18.1409 0.0568247 18.1013C0.0442783 18.0616 0.0337891 18.0214 0.0253571 17.9807C0.0169251 17.94 0.010591 17.8991 0.00635458 17.8578C0.00211819 17.8165 0 17.7751 0 17.7337V1.26635C0 1.22488 0.00211819 1.1835 0.00635458 1.14223C0.010591 1.10095 0.0169251 1.05998 0.0253571 1.0193C0.0337891 0.978619 0.0442783 0.938436 0.0568247 0.898748C0.0693708 0.859059 0.0839139 0.820056 0.100454 0.781739C0.116994 0.743423 0.135451 0.705975 0.155825 0.669395C0.176199 0.632818 0.198392 0.597287 0.222404 0.562802C0.246417 0.528319 0.272132 0.495047 0.299551 0.462986C0.32697 0.430926 0.35596 0.400233 0.386522 0.370905C0.417085 0.341578 0.449071 0.313759 0.48248 0.287448C0.515891 0.261137 0.550564 0.23646 0.586499 0.213418C0.622436 0.190377 0.659463 0.16908 0.69758 0.149529C0.7357 0.129978 0.774725 0.112267 0.814655 0.0963952C0.854585 0.0805235 0.89523 0.066568 0.93659 0.0545287C0.97795 0.0424893 1.01982 0.0324239 1.06221 0.0243325C1.10461 0.0162413 1.14731 0.010163 1.19032 0.00609783C1.23333 0.00203261 1.27645 0 1.31967 0Z" fill="#F7931A"/>
<path fill-rule="evenodd" clip-rule="evenodd" d="M8.90991 9.65823C8.90991 5.72327 12.2343 2.5332 16.3349 2.5332C20.4355 2.5332 23.7599 5.72327 23.7599 9.65823C23.7599 13.5931 20.4355 16.7832 16.3349 16.7832C12.2343 16.7832 8.90991 13.5931 8.90991 9.65823ZM16.3349 15.6127C12.9079 15.6127 10.1297 12.9467 10.1297 9.65817C10.1297 6.36959 12.9079 3.70366 16.3349 3.70366C19.7619 3.70366 22.5402 6.36965 22.5402 9.65817C22.5402 12.9467 19.7619 15.6127 16.3349 15.6127ZM19.5171 8.30961C19.5171 8.74766 19.3753 9.15084 19.1374 9.47295C19.6227 9.81153 19.9414 10.3835 19.9403 11.0327C19.9403 12.0727 19.1213 12.9156 18.1107 12.9156H17.3948V14.3915C17.3948 14.4753 17.3234 14.5441 17.2358 14.5441H16.7056C16.6183 14.5441 16.5466 14.4755 16.5466 14.3915V12.9156H15.6981V14.3915C15.6981 14.4753 15.6266 14.5441 15.5391 14.5441H15.0088C14.9215 14.5441 14.8498 14.4755 14.8498 14.3915V12.9156H13.1833C13.085 12.9156 13.0107 12.8298 13.0289 12.7372L13.1303 12.2183C13.1436 12.151 13.2025 12.1026 13.2734 12.096C13.7732 12.0497 14.0018 11.7122 14.0018 11.2869V8.13152C14.0018 7.6588 13.6815 7.27405 13.084 7.22148C13.0023 7.21436 12.9411 7.14631 12.9411 7.06768V6.5537C12.9411 6.4694 13.0122 6.4011 13.1001 6.4011H14.8503V4.92524C14.8503 4.84145 14.9218 4.77266 15.0094 4.77266H15.5396C15.6269 4.77266 15.6986 4.8412 15.6986 4.92524V6.4011H16.5471V4.92524C16.5471 4.84145 16.6186 4.77266 16.7061 4.77266H17.2369C17.3242 4.77266 17.3959 4.8412 17.3959 4.92524V6.4011H17.6876C18.6978 6.4011 19.5171 7.25559 19.5171 8.30961ZM15.6984 7.62238H16.9977C17.4812 7.62238 17.8728 7.9983 17.8728 8.46218C17.8728 8.92604 17.4812 9.30192 16.9977 9.30192H15.6984V7.62238ZM15.6984 11.7448H17.422C17.9054 11.7448 18.2971 11.3689 18.2971 10.9051C18.2971 10.4412 17.9054 10.0653 17.422 10.0653H15.6984V11.7448Z" fill="black"/>
</svg>
