<svg width="132" height="40" viewBox="0 0 132 40" fill="none" xmlns="http://www.w3.org/2000/svg">
<path d="M4.27273 20.3182C4.27273 20.3182 9.22727 21.9545 10.5455 21.5909C11.8182 21.1818 5.5 13.9545 4 12.2727C4 12.2727 7.77273 12.8182 8.04545 11.0909C8.27273 9.36364 7.77273 3.18182 7.77273 3.18182C7.77273 3.18182 9.77273 6 12.1364 5.90909C14.5 5.81818 14.1818 0.909091 14.1818 0.909091C14.1818 0.909091 16.4545 12.2727 17.5909 13.1818C18.7273 14.0909 19.2727 3.77273 19.2727 3.77273C19.2727 3.77273 20.3182 6.36364 21.5909 5.59091C22.9091 4.81818 25.4091 0 25.4091 0C25.4091 0 24.5455 5.90909 26.2273 6.04545C27.9091 6.13636 29.8636 3.36364 29.8636 3.36364C29.8636 3.36364 23.5909 18.6818 27.0909 20.1818C27.0909 20.1818 19.5455 24.8636 20 26.5C20.4545 28.1364 23.5 33.8636 23.5 33.8636L21.6364 35.7727C21.6364 35.7727 18.9545 28.7727 18.1818 28.7727C17.4091 28.7727 12.4091 36.6364 12.4091 36.6364C12.4091 36.6364 12.4545 33.9091 9.36364 34.2727C6.27273 34.6364 0.863636 35.2727 0.863636 35.2727C0.863636 35.2727 4.18182 32.3636 3.27273 30.5909C2.36364 28.8182 0 27.6818 0 27.6818C0 27.6818 6.54545 25.9091 4.27273 20.3182Z" fill="#E5262A"/>
<path d="M46.3181 30.6364C40.4999 30.6364 37.5908 27.1364 37.5908 21.9091C37.5908 17.3182 39.3635 13.5455 42.1363 11.3182C44.1363 9.63639 46.8181 8.77275 49.6363 8.77275C52.4544 8.77275 54.6363 9.36366 55.5908 9.86366L57.4999 4.13639C56.5908 3.54548 53.8635 2.72729 50.3181 2.72729C45.6817 2.72729 41.6363 3.86366 38.1817 6.22729C33.1817 9.54548 29.8635 15.3182 29.8635 22.6818C29.8635 31.3637 35.7272 36.6364 44.409 36.6364C48.3635 36.6364 51.3635 36 53.0908 35.2273L52.4999 29.5455C50.909 30.2728 48.6363 30.6364 46.3181 30.6364Z" fill="#2B2729"/>
<path d="M60.5908 3.22729L54.3181 36.1818H61.3636L67.6363 3.22729H60.5908Z" fill="#2B2729"/>
<path d="M92.4545 12.1818C92.4545 9 91.0909 6.72727 88.9091 5.18182C86.5 3.45455 83.0909 3 80.1818 3C77 3 73.6818 3.36364 71.5909 3.86364L65.5 36.1364H72.4091L74.6364 24.2727C75.3636 24.3636 76.3636 24.4545 77.5 24.4545C81.5 24.4545 85.3182 23.5455 88 21.4091C90.5455 19.4545 92.4545 16.3182 92.4545 12.1818ZM78.3182 18.8182C77.1364 18.8182 76.3636 18.7273 75.6364 18.5909L77.5 8.86364C78.0909 8.72727 79 8.63636 80.3182 8.63636C83.0455 8.63636 85.3636 9.68182 85.3636 12.8182C85.3636 16.0909 82.5909 18.8182 78.3182 18.8182Z" fill="#2B2729"/>
<path d="M131.454 27.4546C131.182 27.2273 130.864 27.0909 130.5 27.0909C130.091 27.0909 129.636 27.2273 129.182 27.4546C128.727 27.7273 128.227 28.1818 127.682 28.8182C127.091 29.5455 126.682 30.0909 126.454 30.5455C126.182 31 125.864 31.5 125.454 32.1364C125.318 31.5455 125.227 31.1364 125.182 30.9091C125.136 30.6818 125 30.1364 124.727 29.1818C124.591 28.6818 124.409 28.3182 124.227 28.0455C124.636 27.9546 125.045 27.9091 125.409 27.7728C126.318 27.5 127.182 27.0455 127.909 26.5C128.636 25.9546 129.227 25.3182 129.682 24.5C130.136 23.6818 130.364 22.7728 130.364 21.7728C130.364 20.6364 129.909 19.7728 129 19.0909C128.091 18.4546 126.909 18.1364 125.454 18.1364H117.409L117.227 18.9546C117.5 18.9546 117.773 19 118.045 19.0455C118.364 19.0909 118.636 19.1818 118.909 19.2728C119.091 19.3637 119.227 19.4546 119.273 19.5909C119.318 19.7273 119.364 19.9091 119.364 20.0909C119.364 20.1818 119.364 20.2728 119.364 20.3637C119.364 20.4546 119.318 20.5455 119.318 20.6364L116.273 33.7728C116.227 34.0909 116.091 34.3182 115.954 34.5455C115.818 34.7728 115.545 34.9546 115.273 35.0455C115.091 35.0909 114.818 35.1818 114.409 35.2273C114.227 35.2273 114.091 35.2728 113.909 35.2728L110.136 3.22729H101.091L85.0908 36.1364H92.5454L96.4545 27.5909H105.909L106.591 36.1364H113.273H121.045L121.227 35.3182C120.909 35.3182 120.591 35.2728 120.182 35.2273C119.818 35.1818 119.545 35.1364 119.409 35.0455C119.227 34.9546 119.091 34.8637 119 34.6818C118.954 34.5455 118.909 34.3637 118.909 34.1818C118.909 34.1364 118.909 34.0455 118.909 33.9546C118.909 33.8637 118.909 33.7727 118.954 33.7273L120.136 28.6364C120.364 28.5909 120.545 28.5455 120.773 28.5455C121.227 28.5455 121.591 28.6364 121.864 28.8182C122.136 29 122.409 29.4546 122.636 30.1364C122.818 30.6818 123 31.3182 123.182 32.0455C123.364 32.7728 123.545 33.4091 123.727 34.0455C123.273 34.8637 122.773 35.5909 122.227 36.2273C121.682 36.8637 121.273 37.3637 120.954 37.6364C120.682 37.5455 120.409 37.4546 120.136 37.3637C119.864 37.2728 119.591 37.2273 119.364 37.2273C118.818 37.2273 118.409 37.3637 118.091 37.6364C117.773 37.9091 117.636 38.2728 117.636 38.6818C117.636 39.0909 117.773 39.4091 118.045 39.6364C118.318 39.8637 118.636 40 119.045 40C119.5 40 119.954 39.8637 120.364 39.5909C120.818 39.3182 121.273 38.8637 121.773 38.2728C122.364 37.5455 122.773 37 123.045 36.5909C123.318 36.1818 123.636 35.6818 124 35.0909C124.091 35.5 124.227 35.9091 124.318 36.3637C124.409 36.7728 124.545 37.3182 124.727 37.9091C124.954 38.7728 125.273 39.3182 125.682 39.5909C126.091 39.8637 126.545 40 127.136 40C127.591 40 128.045 39.9546 128.454 39.8637C128.864 39.7728 129.5 39.5455 130.273 39.1818L130.5 38.3182C130.318 38.4091 130.045 38.4546 129.682 38.5C129.318 38.5455 129.045 38.5909 128.864 38.5909C128.318 38.5909 127.864 38.4546 127.5 38.1364C127.136 37.8182 126.909 37.4091 126.727 36.9091C126.545 36.3182 126.364 35.7728 126.227 35.1818C126.091 34.5909 125.864 33.9091 125.682 33.1364C126.136 32.3182 126.591 31.5909 127.091 30.9546C127.591 30.2728 128.045 29.7728 128.409 29.4546C128.591 29.5 128.864 29.5909 129.182 29.6818C129.5 29.7728 129.773 29.8182 130.045 29.8182C130.454 29.8182 130.864 29.6818 131.182 29.4546C131.545 29.2273 131.727 28.8637 131.727 28.3637C131.818 28 131.682 27.7273 131.454 27.4546ZM98.5908 22.2273L101.864 15.1364C102.727 13.2273 103.682 10.6818 104.5 8.68184H104.591C104.727 10.6818 104.954 13.3182 105.091 15.1364L105.727 22.2273H98.5908ZM122.409 19.0909H124.045C124.636 19.0909 125.136 19.1818 125.545 19.3182C125.954 19.4546 126.273 19.6818 126.545 19.9546C126.818 20.2273 127 20.5455 127.091 20.9091C127.182 21.2728 127.273 21.6364 127.273 22C127.273 22.5 127.182 23 127.045 23.5909C126.909 24.1364 126.636 24.6818 126.318 25.1818C125.864 25.8182 125.273 26.3182 124.591 26.6364C124 26.9091 123.273 27.0455 122.5 27.0909C122.454 27.0909 122.409 27.0909 122.409 27.0909C122.364 27.0909 122.318 27.0909 122.227 27.0909C122.182 27.0909 122.136 27.0909 122.091 27.0909H120.636L122.409 19.0909Z" fill="#2B2729"/>
</svg>
