<svg width="165" height="40" viewBox="0 0 165 40" fill="none" xmlns="http://www.w3.org/2000/svg">
<path d="M43.1265 14.1768H59.7426V17.2537H53.2092V34.5507H49.6165V17.2537H43.1121V14.1768H43.1265ZM59.0327 19.7986H62.1039V22.6455H62.1618C62.2632 22.2429 62.4516 21.8547 62.7268 21.4809C63.002 21.1071 63.3352 20.7476 63.7264 20.4457C64.1175 20.1293 64.5521 19.8849 65.0302 19.6836C65.5082 19.4967 66.0008 19.396 66.4933 19.396C66.8699 19.396 67.1452 19.4104 67.2901 19.4248C67.4349 19.4392 67.5798 19.4679 67.7391 19.4823V22.6168C67.5074 22.5736 67.2756 22.5449 67.0293 22.5161C66.783 22.4874 66.5512 22.473 66.3195 22.473C65.769 22.473 65.2475 22.588 64.7549 22.8037C64.2624 23.0194 63.8423 23.3501 63.4801 23.767C63.1179 24.1984 62.8282 24.716 62.6109 25.3486C62.3936 25.9813 62.2922 26.7002 62.2922 27.5197V34.5363H59.0183V19.7986H59.0327ZM82.7906 34.5507H79.5746V32.4946H79.5167C79.111 33.2423 78.5171 33.8318 77.7203 34.2775C76.9236 34.7232 76.1123 34.9533 75.2866 34.9533C73.3309 34.9533 71.9112 34.4788 71.0421 33.5154C70.1729 32.5521 69.7383 31.0999 69.7383 29.1588V19.7986H73.0122V28.8425C73.0122 30.1366 73.2585 31.0568 73.7655 31.5888C74.2581 32.1208 74.9679 32.3939 75.8661 32.3939C76.5614 32.3939 77.1264 32.2933 77.59 32.0776C78.0535 31.862 78.4302 31.5888 78.7054 31.2293C78.9952 30.8842 79.198 30.4529 79.3283 29.964C79.4587 29.4752 79.5167 28.9432 79.5167 28.368V19.813H82.7906V34.5507ZM88.3679 29.8202C88.4693 30.7692 88.8315 31.4306 89.4544 31.8188C90.0918 32.1926 90.8451 32.3939 91.7288 32.3939C92.033 32.3939 92.3807 32.3652 92.7718 32.3221C93.163 32.2789 93.5396 32.1783 93.8728 32.0489C94.2205 31.9195 94.4957 31.7182 94.7275 31.4594C94.9448 31.2006 95.0462 30.8699 95.0317 30.4529C95.0172 30.0359 94.8579 29.6908 94.5682 29.432C94.2784 29.1588 93.9163 28.9576 93.4672 28.785C93.0181 28.6269 92.5111 28.4831 91.9316 28.368C91.3521 28.253 90.7727 28.1236 90.1787 27.9942C89.5703 27.8648 88.9764 27.6923 88.4114 27.5054C87.8464 27.3184 87.3394 27.0596 86.8903 26.7289C86.4412 26.4126 86.0791 25.9956 85.8183 25.4924C85.5431 24.9892 85.4127 24.3709 85.4127 23.6232C85.4127 22.8181 85.6155 22.1567 86.0066 21.6103C86.3978 21.0639 86.9048 20.6326 87.4987 20.3019C88.1072 19.9712 88.7736 19.7411 89.5124 19.5973C90.2512 19.4679 90.961 19.396 91.6274 19.396C92.3952 19.396 93.134 19.4823 93.8293 19.6405C94.5247 19.7986 95.1621 20.0574 95.7271 20.4313C96.292 20.7907 96.7556 21.2652 97.1323 21.8403C97.5089 22.4155 97.7407 23.12 97.8421 23.9396H94.4233C94.2639 23.1631 93.9163 22.6311 93.3513 22.3723C92.7863 22.0991 92.1344 21.9697 91.4101 21.9697C91.1783 21.9697 90.9031 21.9841 90.5844 22.0273C90.2657 22.0704 89.9759 22.1423 89.6862 22.2429C89.411 22.3436 89.1792 22.5017 88.9764 22.703C88.788 22.9043 88.6866 23.1631 88.6866 23.4938C88.6866 23.8964 88.8315 24.2127 89.1067 24.4572C89.382 24.7016 89.7441 24.9029 90.1932 25.0754C90.6423 25.2336 91.1493 25.3774 91.7288 25.4924C92.3083 25.6074 92.9022 25.7368 93.5106 25.8662C94.1046 25.9956 94.684 26.1682 95.2635 26.3551C95.843 26.542 96.35 26.8008 96.7991 27.1315C97.2482 27.4622 97.6103 27.8648 97.8856 28.3537C98.1608 28.8425 98.3057 29.4608 98.3057 30.1797C98.3057 31.0568 98.1029 31.7901 97.6972 32.4083C97.2916 33.0122 96.7701 33.5154 96.1327 33.8893C95.4953 34.2631 94.771 34.5507 93.9887 34.7232C93.2064 34.8958 92.4242 34.982 91.6564 34.982C90.7147 34.982 89.8456 34.8814 89.0488 34.6657C88.252 34.45 87.5567 34.1337 86.9772 33.7167C86.3978 33.2854 85.9342 32.7534 85.601 32.1208C85.2678 31.4881 85.094 30.7261 85.065 29.849H88.3679V29.8202ZM99.1749 19.7986H101.652V15.3701H104.926V19.7986H107.881V22.2286H104.926V30.1078C104.926 30.4529 104.94 30.7405 104.969 30.9993C104.998 31.2437 105.071 31.4594 105.172 31.6319C105.274 31.8044 105.433 31.9338 105.65 32.0201C105.868 32.1064 106.143 32.1495 106.52 32.1495C106.751 32.1495 106.983 32.1495 107.215 32.1351C107.447 32.1208 107.678 32.092 107.91 32.0345V34.5507C107.548 34.5938 107.186 34.6226 106.853 34.6657C106.505 34.7088 106.157 34.7232 105.795 34.7232C104.926 34.7232 104.231 34.6369 103.709 34.4788C103.188 34.3206 102.768 34.0762 102.478 33.7599C102.174 33.4436 101.985 33.0553 101.869 32.5809C101.768 32.1064 101.696 31.56 101.681 30.9561V22.2573H99.2038V19.7986H99.1749ZM110.199 19.7986H113.299V21.7972H113.357C113.821 20.9345 114.458 20.3306 115.284 19.9568C116.11 19.583 116.993 19.396 117.964 19.396C119.137 19.396 120.151 19.5973 121.021 20.0143C121.89 20.4169 122.614 20.9776 123.194 21.6966C123.773 22.4155 124.193 23.2494 124.483 24.1984C124.773 25.1473 124.917 26.1682 124.917 27.2465C124.917 28.2386 124.787 29.202 124.526 30.1222C124.266 31.0568 123.874 31.8763 123.353 32.5952C122.831 33.3141 122.165 33.8749 121.354 34.3062C120.542 34.7376 119.601 34.9533 118.5 34.9533C118.022 34.9533 117.544 34.9101 117.066 34.8239C116.588 34.7376 116.124 34.5938 115.689 34.4069C115.255 34.22 114.835 33.9755 114.473 33.6736C114.096 33.3717 113.792 33.0266 113.531 32.6384H113.473V40H110.199V19.7986ZM121.643 27.189C121.643 26.5276 121.557 25.8806 121.383 25.248C121.209 24.6153 120.948 24.069 120.6 23.5801C120.253 23.0912 119.818 22.703 119.311 22.4155C118.79 22.1279 118.196 21.9697 117.529 21.9697C116.153 21.9697 115.11 22.4442 114.415 23.3932C113.719 24.3421 113.372 25.6074 113.372 27.189C113.372 27.9367 113.459 28.6269 113.647 29.2595C113.835 29.8921 114.096 30.4385 114.473 30.8986C114.835 31.3587 115.269 31.7182 115.776 31.977C116.283 32.2502 116.877 32.3796 117.544 32.3796C118.297 32.3796 118.92 32.2214 119.442 31.9195C119.963 31.6175 120.383 31.2149 120.716 30.7404C121.049 30.2516 121.296 29.7052 121.441 29.087C121.571 28.4687 121.643 27.8361 121.643 27.189ZM127.424 14.1768H130.698V17.2537H127.424V14.1768ZM127.424 19.7986H130.698V34.5507H127.424V19.7986ZM133.624 14.1768H136.898V34.5507H133.624V14.1768ZM146.937 34.9533C145.749 34.9533 144.692 34.752 143.764 34.3638C142.837 33.9755 142.055 33.4292 141.403 32.7534C140.766 32.0632 140.273 31.2437 139.94 30.2947C139.607 29.3458 139.433 28.2962 139.433 27.1603C139.433 26.0388 139.607 25.0035 139.94 24.0546C140.273 23.1056 140.766 22.2861 141.403 21.5959C142.04 20.9058 142.837 20.3738 143.764 19.9856C144.692 19.5973 145.749 19.396 146.937 19.396C148.125 19.396 149.182 19.5973 150.109 19.9856C151.037 20.3738 151.819 20.9201 152.471 21.5959C153.108 22.2861 153.601 23.1056 153.934 24.0546C154.267 25.0035 154.441 26.0388 154.441 27.1603C154.441 28.2962 154.267 29.3458 153.934 30.2947C153.601 31.2437 153.108 32.0632 152.471 32.7534C151.833 33.4436 151.037 33.9755 150.109 34.3638C149.182 34.752 148.125 34.9533 146.937 34.9533ZM146.937 32.3796C147.661 32.3796 148.299 32.2214 148.835 31.9195C149.371 31.6175 149.805 31.2149 150.153 30.7261C150.501 30.2372 150.747 29.6765 150.921 29.0582C151.08 28.4399 151.167 27.8073 151.167 27.1603C151.167 26.5276 151.08 25.9094 150.921 25.2767C150.761 24.6441 150.501 24.0977 150.153 23.6089C149.805 23.12 149.371 22.7318 148.835 22.4298C148.299 22.1279 147.661 21.9697 146.937 21.9697C146.213 21.9697 145.575 22.1279 145.039 22.4298C144.503 22.7318 144.069 23.1344 143.721 23.6089C143.373 24.0977 143.127 24.6441 142.953 25.2767C142.794 25.9094 142.707 26.5276 142.707 27.1603C142.707 27.8073 142.794 28.4399 142.953 29.0582C143.112 29.6765 143.373 30.2372 143.721 30.7261C144.069 31.2149 144.503 31.6175 145.039 31.9195C145.575 32.2358 146.213 32.3796 146.937 32.3796ZM155.397 19.7986H157.874V15.3701H161.148V19.7986H164.103V22.2286H161.148V30.1078C161.148 30.4529 161.163 30.7405 161.192 30.9993C161.221 31.2437 161.293 31.4594 161.394 31.6319C161.496 31.8044 161.655 31.9338 161.873 32.0201C162.09 32.1064 162.365 32.1495 162.742 32.1495C162.973 32.1495 163.205 32.1495 163.437 32.1351C163.669 32.1208 163.901 32.092 164.132 32.0345V34.5507C163.77 34.5938 163.408 34.6226 163.075 34.6657C162.727 34.7088 162.38 34.7232 162.017 34.7232C161.148 34.7232 160.453 34.6369 159.931 34.4788C159.41 34.3206 158.99 34.0762 158.7 33.7599C158.396 33.4436 158.207 33.0553 158.092 32.5809C157.99 32.1064 157.918 31.56 157.903 30.9561V22.2573H155.426V19.7986H155.397Z" fill="#1A2B44"/>
<path d="M39.3019 14.1769H24.2939L19.6582 0L15.008 14.1769L0 14.1625L12.1542 22.9332L7.50401 37.0958L19.6582 28.3394L31.7979 37.0958L27.1622 22.9332L39.3019 14.1769Z" fill="#00B67A"/>
<path d="M28.2052 26.1397L27.1622 22.9333L19.6582 28.3396L28.2052 26.1397Z" fill="#005128"/>
</svg>
