<svg width="32" height="40" viewBox="0 0 32 40" fill="none" xmlns="http://www.w3.org/2000/svg">
<path d="M9.29855 16.4609C9.29855 16.0746 9.41313 15.6968 9.6278 15.3756C9.84246 15.0543 10.1476 14.8039 10.5046 14.656C10.8615 14.5082 11.2543 14.4695 11.6333 14.5449C12.0123 14.6202 12.3604 14.8063 12.6336 15.0795C12.9068 15.3527 13.0929 15.7008 13.1683 16.0798C13.2436 16.4588 13.205 16.8516 13.0571 17.2086C12.9092 17.5655 12.6588 17.8707 12.3376 18.0853C12.0163 18.3 11.6386 18.4146 11.2522 18.4146C10.734 18.4146 10.2371 18.2087 9.87075 17.8424C9.50438 17.476 9.29855 16.9791 9.29855 16.4609ZM9.03188 20.8696V34.5682H13.3623V22.3943C13.3623 20.7305 12.6609 20.8812 9.03188 20.8812V20.8696ZM0.944928 20.1218V20.8696H0V24.5305H0.944928V34.5798H5.27246V24.5305H7.47246V20.8696H5.27246V19.8349C5.27246 18.0001 7.28696 18.2117 7.88116 18.2957V14.6407C7.28557 14.5741 6.68592 14.5508 6.08696 14.5711C3.18841 14.6696 0.944928 16.974 0.944928 20.1218ZM21.6899 34.8436C21.0614 34.8176 20.4371 34.7292 19.8261 34.5798V40.0001H15.4986V20.8696C18.9217 20.8696 19.829 20.7943 19.829 22.3827C20.1768 21.8295 20.6617 21.3755 21.2365 21.0647C21.8114 20.7539 22.4568 20.5969 23.1101 20.6088C26.0087 20.6088 27.9391 22.6552 27.9391 27.1943C27.9391 32.3363 25.1565 34.8291 21.6928 34.8291L21.6899 34.8436ZM21.5623 24.2291C20.934 24.2217 20.3214 24.4259 19.8232 24.8088V30.8696C20.2632 31.0856 20.7511 31.1854 21.2406 31.1595C22.7884 31.1595 23.3652 30.2899 23.3652 27.487C23.3652 24.8117 22.6841 24.2349 21.5565 24.2349" fill="black"/>
<path d="M22.7333 0C18.0957 0 14 3.50145 14 8.98551C14 15.4638 19.2406 16.7015 19.8754 18.5507C19.9355 18.7308 19.9621 18.9205 19.9536 19.1101C19.9536 19.1101 21.7304 18.4638 21.9072 17.1014C21.9652 16.658 22.0812 15.7797 20.8493 14.942C19.4522 13.9913 18.1942 13.1391 17.629 11.713C17.4319 11.2145 17.3652 10.6 17.5971 10.3652C17.6986 10.2609 17.8232 10.258 18.1768 10.2232C19.1507 10.1304 20.9362 10.0841 22.7246 10.0841C24.513 10.0841 26.5565 10.1565 27.2638 10.2232C27.6261 10.258 27.7507 10.2638 27.8435 10.3652C28.0203 10.5449 28.0667 11.0406 27.8203 11.713C27.4742 12.5958 26.8533 13.3438 26.0493 13.8464C25.1797 14.4261 24.4319 14.7159 24.0696 15.1826C23.9624 15.3272 23.8932 15.4964 23.8684 15.6746C23.8436 15.8529 23.8639 16.0345 23.9275 16.2029C24.0422 16.5214 24.2563 16.7945 24.5382 16.9819C24.82 17.1693 25.1547 17.261 25.4928 17.2435C26.1478 17.2435 27.0493 16.9536 28.2696 15.9623C30.3797 14.2638 31.458 11.6 31.458 8.97681C31.4696 3.50435 27.3536 0 22.7333 0ZM25.8406 16.0232C25.7443 16.0232 25.6501 15.9946 25.57 15.9411C25.49 15.8876 25.4275 15.8116 25.3907 15.7226C25.3538 15.6336 25.3442 15.5357 25.363 15.4412C25.3818 15.3468 25.4281 15.26 25.4963 15.1919C25.5644 15.1238 25.6511 15.0774 25.7456 15.0586C25.84 15.0398 25.9379 15.0495 26.0269 15.0863C26.1159 15.1232 26.192 15.1856 26.2455 15.2657C26.299 15.3458 26.3275 15.4399 26.3275 15.5362C26.3275 15.6002 26.3149 15.6635 26.2905 15.7226C26.266 15.7817 26.2301 15.8353 26.1849 15.8806C26.1397 15.9258 26.086 15.9617 26.0269 15.9861C25.9678 16.0106 25.9045 16.0232 25.8406 16.0232ZM27.5159 8.77681C25.9623 8.77681 25.7101 8.45507 25.4377 7.71884C24.9768 6.46957 24.1275 5.58551 22.7333 5.58551C21.3391 5.58551 20.4899 6.46957 20.029 7.71884C19.7565 8.45507 19.5043 8.77681 17.9507 8.77681C17.4841 8.77681 17.2377 8.72174 17.2667 8.16522C17.3847 6.79668 18.0117 5.52218 19.0239 4.59354C20.0361 3.66491 21.3597 3.14969 22.7333 3.14969C24.107 3.14969 25.4306 3.66491 26.4428 4.59354C27.4549 5.52218 28.082 6.79668 28.2 8.16522C28.229 8.71884 27.9826 8.77681 27.5159 8.77681Z" fill="#20C4F4"/>
</svg>
