<svg width="129" height="40" viewBox="0 0 129 40" fill="none" xmlns="http://www.w3.org/2000/svg">
<path d="M33.5328 37.2582H32.6189V30.0877H30.0881V29.2441H36.0635V30.0877H33.5328V37.2582Z" fill="#C01818"/>
<path d="M42.3202 34.3053C42.3202 35.2895 42.039 36.0628 41.5469 36.6252C41.0548 37.1876 40.3518 37.4688 39.5083 37.4688C38.9459 37.4688 38.5241 37.3282 38.1023 37.1173C37.6805 36.9064 37.3993 36.4846 37.1181 36.0628C36.9072 35.5707 36.7666 35.0083 36.7666 34.3756C36.7666 33.3914 36.9775 32.6181 37.4696 32.0557C37.9617 31.4934 38.6647 31.2122 39.5083 31.2122C40.3518 31.2122 40.9845 31.4934 41.4766 32.0557C42.1093 32.5478 42.3202 33.3211 42.3202 34.3053ZM37.7508 34.3053C37.7508 35.0786 37.8914 35.641 38.2429 36.0628C38.5944 36.4846 39.0162 36.6955 39.5786 36.6955C40.1409 36.6955 40.633 36.4846 40.9142 36.0628C41.1954 35.641 41.4063 35.0786 41.4063 34.3053C41.4063 33.532 41.2657 32.9696 40.9142 32.5478C40.633 32.126 40.1409 31.9854 39.5786 31.9854C39.0162 31.9854 38.5241 32.1963 38.2429 32.5478C37.9617 32.8993 37.7508 33.532 37.7508 34.3053Z" fill="#C01818"/>
<path d="M48.8578 31.2824V31.8448L47.733 31.9854C47.8033 32.126 47.9439 32.2666 48.0142 32.4775C48.0845 32.6884 48.1548 32.8993 48.1548 33.1805C48.1548 33.7429 47.9439 34.235 47.5221 34.5865C47.1003 34.938 46.6082 35.1489 45.9052 35.1489C45.6944 35.1489 45.5537 35.1489 45.4132 35.0786C44.9914 35.2895 44.8508 35.5707 44.8508 35.8519C44.8508 35.9925 44.9211 36.1331 45.0617 36.2034C45.2023 36.2737 45.4132 36.344 45.7646 36.344H46.8191C47.4518 36.344 47.9439 36.4846 48.2954 36.7658C48.6469 37.047 48.7875 37.4687 48.7875 37.9608C48.7875 38.5935 48.5063 39.1559 48.0142 39.5074C47.4518 39.8589 46.6785 39.9995 45.6943 39.9995C44.9211 39.9995 44.2884 39.8589 43.8666 39.5777C43.4448 39.2965 43.2339 38.8747 43.2339 38.3123C43.2339 37.9608 43.3745 37.6093 43.5854 37.3984C43.7963 37.1173 44.1478 36.9767 44.5696 36.8361C44.429 36.7658 44.2884 36.6252 44.2181 36.4846C44.1478 36.344 44.0775 36.2034 44.0775 35.9925C44.0775 35.7816 44.1478 35.5707 44.2181 35.4301C44.3587 35.2895 44.4993 35.0786 44.7805 34.938C44.4993 34.7974 44.2181 34.5865 44.0072 34.3053C43.7963 34.0241 43.726 33.6726 43.726 33.2508C43.726 32.6181 43.9369 32.0557 44.2884 31.7042C44.7102 31.3527 45.2726 31.1418 45.9755 31.1418C46.2567 31.1418 46.5379 31.2121 46.8191 31.2824H48.8578ZM44.0775 38.3123C44.0775 38.6638 44.2181 38.8747 44.4993 39.0856C44.7805 39.2262 45.132 39.3668 45.6943 39.3668C46.4676 39.3668 47.03 39.2262 47.3815 39.0153C47.733 38.8044 47.9439 38.4529 47.9439 38.1014C47.9439 37.7499 47.8736 37.539 47.6627 37.3984C47.4518 37.2579 47.1003 37.1876 46.5379 37.1876H45.4132C44.9914 37.1876 44.7102 37.2578 44.429 37.4687C44.1478 37.6796 44.0775 37.9608 44.0775 38.3123ZM44.5696 33.1805C44.5696 33.6023 44.7102 33.8835 44.9211 34.1647C45.132 34.3756 45.4835 34.5162 45.9052 34.5162C46.8191 34.5162 47.2409 34.0944 47.2409 33.2508C47.2409 32.3369 46.8191 31.9151 45.9052 31.9151C45.4835 31.9151 45.132 32.0557 44.9211 32.2666C44.6399 32.4072 44.5696 32.7587 44.5696 33.1805Z" fill="#C01818"/>
<path d="M52.5837 37.3984C51.6698 37.3984 50.9668 37.1173 50.4747 36.5549C49.9826 35.9925 49.7014 35.2895 49.7014 34.3053C49.7014 33.3211 49.9123 32.5478 50.4044 31.9854C50.8965 31.423 51.5292 31.1418 52.3025 31.1418C53.0758 31.1418 53.6382 31.423 54.06 31.9151C54.4817 32.4072 54.6926 33.0399 54.6926 33.8835V34.4459H50.545C50.545 35.1489 50.7559 35.7113 51.1074 36.0628C51.4589 36.4143 51.951 36.6252 52.5134 36.6252C53.1461 36.6252 53.7788 36.4846 54.4114 36.2034V37.047C54.06 37.1876 53.7788 37.2578 53.4976 37.3281C53.2164 37.3984 53.0055 37.3984 52.5837 37.3984ZM52.3728 31.9151C51.8807 31.9151 51.5292 32.0557 51.248 32.4072C50.9668 32.7587 50.8262 33.1805 50.7559 33.7429H53.9193C53.9193 33.1805 53.7788 32.7587 53.5679 32.4072C53.2164 32.126 52.8649 31.9151 52.3728 31.9151Z" fill="#C01818"/>
<path d="M58.3481 36.6254C58.4887 36.6254 58.6293 36.6254 58.8402 36.5551C58.9808 36.5551 59.1214 36.4848 59.1917 36.4848V37.1878C59.1214 37.2581 58.9808 37.2581 58.7699 37.3284C58.559 37.3284 58.4184 37.3987 58.2778 37.3987C57.0827 37.3987 56.5203 36.766 56.5203 35.5709V31.9857H55.6768V31.5639L56.5203 31.2124L56.8718 29.947H57.3639V31.353H59.1214V32.056H57.3639V35.5709C57.3639 35.9224 57.4342 36.2036 57.6451 36.4145C57.856 36.6254 57.9966 36.6254 58.3481 36.6254Z" fill="#C01818"/>
<path d="M64.464 37.2581V33.3917C64.464 32.8996 64.3234 32.5481 64.1125 32.2669C63.9016 32.056 63.5502 31.9154 63.0581 31.9154C62.4254 31.9154 61.9333 32.056 61.6521 32.4075C61.3709 32.759 61.2303 33.3214 61.2303 34.0947V37.2581H60.3164V28.752H61.2303V31.353C61.2303 31.6342 61.2303 31.9154 61.16 32.1263H61.2303C61.4412 31.8451 61.6521 31.6342 62.0036 31.4233C62.3551 31.2124 62.7066 31.1421 63.1284 31.1421C63.8314 31.1421 64.3937 31.2827 64.7452 31.6342C65.0967 31.9857 65.3076 32.5481 65.3076 33.3214V37.2581H64.464Z" fill="#C01818"/>
<path d="M69.7367 37.3984C68.8229 37.3984 68.1199 37.1173 67.6278 36.5549C67.1357 35.9925 66.8545 35.2895 66.8545 34.3053C66.8545 33.3211 67.0654 32.5478 67.5575 31.9854C68.0496 31.423 68.6823 31.1418 69.4556 31.1418C70.2288 31.1418 70.7912 31.423 71.213 31.9151C71.6348 32.4072 71.8457 33.0399 71.8457 33.8835V34.4459H67.6981C67.6981 35.1489 67.909 35.7113 68.2605 36.0628C68.612 36.4143 69.1041 36.6252 69.6664 36.6252C70.2991 36.6252 70.9318 36.4846 71.5645 36.2034V37.047C71.213 37.1876 70.9318 37.2578 70.6506 37.3281C70.3694 37.3984 70.1585 37.3984 69.7367 37.3984ZM69.5259 31.9151C69.0338 31.9151 68.6823 32.0557 68.4011 32.4072C68.1199 32.7587 67.9793 33.1805 67.909 33.7429H71.0724C71.0724 33.1805 70.9318 32.7587 70.7209 32.4072C70.3694 32.126 70.0179 31.9151 69.5259 31.9151Z" fill="#C01818"/>
<path d="M76.2744 31.2122C76.5556 31.2122 76.7665 31.2122 76.9774 31.2825L76.8368 32.126C76.5556 32.0557 76.3447 32.0557 76.2041 32.0557C75.712 32.0557 75.2902 32.2666 74.9387 32.6181C74.5872 32.9696 74.4466 33.532 74.4466 34.0944V37.2579H73.5327V31.2825H74.306L74.3763 32.4072H74.4466C74.6575 31.9854 74.9387 31.7042 75.2199 31.4934C75.5011 31.2825 75.8526 31.2122 76.2744 31.2122Z" fill="#C01818"/>
<path d="M80.9141 29.6657C80.9141 29.4548 80.9844 29.3142 81.0547 29.1736C81.125 29.1033 81.2656 29.033 81.4062 29.033C81.5468 29.033 81.6874 29.1033 81.7577 29.1736C81.8983 29.2439 81.8982 29.4548 81.8982 29.5953C81.8982 29.8062 81.828 29.9468 81.7577 30.0874C81.6171 30.1577 81.5468 30.228 81.4062 30.228C81.2656 30.228 81.125 30.1577 81.0547 30.0874C80.9844 30.0171 80.9141 29.8765 80.9141 29.6657ZM81.8982 37.2579H80.9844V31.2825H81.8982V37.2579Z" fill="#C01818"/>
<path d="M87.7331 35.641C87.7331 36.2034 87.5222 36.6252 87.1004 36.9064C86.6786 37.1876 86.1162 37.3281 85.3429 37.3281C84.5696 37.3281 83.9369 37.1876 83.5151 36.9767V36.1331C83.7963 36.2737 84.1478 36.4143 84.429 36.4846C84.7805 36.5549 85.0617 36.6252 85.4132 36.6252C85.9053 36.6252 86.2568 36.5549 86.538 36.4143C86.8192 36.2737 86.8895 36.0628 86.8895 35.7113C86.8895 35.5004 86.8192 35.2895 86.6083 35.0786C86.3974 34.938 85.9756 34.7271 85.4132 34.5162C84.8508 34.3053 84.429 34.0944 84.2181 33.9538C84.0072 33.8132 83.7963 33.6023 83.726 33.3914C83.6557 33.1805 83.5854 32.9696 83.5854 32.6884C83.5854 32.1963 83.7963 31.8448 84.1478 31.5636C84.5696 31.2824 85.0617 31.1418 85.7647 31.1418C86.3974 31.1418 87.0301 31.2824 87.6628 31.5636L87.3113 32.3369C86.6786 32.0557 86.1865 31.9854 85.6944 31.9854C85.2726 31.9854 84.9211 32.0557 84.7102 32.1963C84.4993 32.3369 84.3587 32.5478 84.3587 32.7587C84.3587 32.8993 84.429 33.0399 84.4993 33.1805C84.5696 33.3211 84.7102 33.3914 84.9211 33.532C85.132 33.6023 85.4835 33.8132 85.9756 33.9538C86.6786 34.235 87.1707 34.4459 87.4519 34.7271C87.5925 34.938 87.7331 35.2895 87.7331 35.641Z" fill="#C01818"/>
<path d="M94.9038 37.3985C94.482 37.3985 94.1305 37.3282 93.8493 37.1876C93.4978 37.047 93.2869 36.8361 93.0057 36.5549H92.9354C93.0057 36.9064 93.0057 37.2579 93.0057 37.5391V39.9995H92.0918V31.2825H92.8651L93.0057 32.126H93.076C93.2869 31.7745 93.5681 31.5637 93.9196 31.4231C94.2711 31.2825 94.5523 31.2122 94.9741 31.2122C95.7473 31.2122 96.38 31.4934 96.8018 32.0557C97.2236 32.6181 97.4345 33.3914 97.4345 34.3756C97.4345 35.3598 97.2236 36.1331 96.8018 36.6955C96.3097 37.1173 95.677 37.3985 94.9038 37.3985ZM94.7632 31.9854C94.1305 31.9854 93.7087 32.126 93.4275 32.4775C93.1463 32.829 93.0057 33.3914 93.0057 34.0944V34.3053C93.0057 35.1489 93.1463 35.7816 93.4275 36.1331C93.7087 36.4846 94.1305 36.6955 94.7632 36.6955C95.2552 36.6955 95.677 36.4846 95.9582 36.0628C96.2394 35.641 96.38 35.0786 96.38 34.3053C96.38 33.532 96.2394 32.9696 95.9582 32.5478C95.7473 32.126 95.3255 31.9854 94.7632 31.9854Z" fill="#C01818"/>
<path d="M104.183 34.3053C104.183 35.2895 103.902 36.0628 103.41 36.6252C102.918 37.1876 102.215 37.4688 101.371 37.4688C100.809 37.4688 100.387 37.3282 99.9651 37.1173C99.5433 36.9064 99.2621 36.4846 98.9809 36.0628C98.77 35.5707 98.6294 35.0083 98.6294 34.3756C98.6294 33.3914 98.8403 32.6181 99.3324 32.0557C99.8245 31.4934 100.527 31.2122 101.371 31.2122C102.215 31.2122 102.847 31.4934 103.339 32.0557C103.902 32.5478 104.183 33.3211 104.183 34.3053ZM99.6136 34.3053C99.6136 35.0786 99.7542 35.641 100.106 36.0628C100.457 36.4846 100.879 36.6955 101.441 36.6955C102.004 36.6955 102.496 36.4846 102.777 36.0628C103.058 35.641 103.269 35.0786 103.269 34.3053C103.269 33.532 103.129 32.9696 102.777 32.5478C102.496 32.126 102.004 31.9854 101.441 31.9854C100.879 31.9854 100.387 32.1963 100.106 32.5478C99.8245 32.8993 99.6136 33.532 99.6136 34.3053Z" fill="#C01818"/>
<path d="M110.651 37.2584L109.526 33.7434C109.456 33.5325 109.315 33.0404 109.104 32.2671H109.034C108.893 32.8998 108.753 33.3919 108.682 33.7434L107.558 37.2584H106.503L104.886 31.283H105.87C106.292 32.7592 106.573 33.9543 106.784 34.7276C106.995 35.5009 107.136 36.0633 107.136 36.3445H107.206C107.276 36.1336 107.276 35.8524 107.417 35.5712C107.487 35.2197 107.558 35.0088 107.628 34.7979L108.753 31.3533H109.737L110.791 34.7979C111.002 35.4306 111.143 35.9227 111.213 36.4148H111.283C111.283 36.2742 111.354 36.0633 111.424 35.7821C111.494 35.5009 111.846 34.0246 112.549 31.3533H113.463L111.776 37.2584H110.651Z" fill="#C01818"/>
<path d="M117.048 37.3984C116.134 37.3984 115.431 37.1173 114.939 36.5549C114.447 35.9925 114.166 35.2895 114.166 34.3053C114.166 33.3211 114.376 32.5478 114.869 31.9854C115.361 31.423 115.993 31.1418 116.767 31.1418C117.54 31.1418 118.102 31.423 118.524 31.9151C118.946 32.4072 119.157 33.0399 119.157 33.8835V34.4459H115.009C115.009 35.1489 115.22 35.7113 115.572 36.0628C115.923 36.4143 116.415 36.6252 116.977 36.6252C117.61 36.6252 118.243 36.4846 118.876 36.2034V37.047C118.524 37.1876 118.243 37.2578 117.962 37.3281C117.68 37.3984 117.399 37.3984 117.048 37.3984ZM116.767 31.9151C116.275 31.9151 115.923 32.0557 115.642 32.4072C115.361 32.7587 115.22 33.1805 115.15 33.7429H118.313C118.313 33.1805 118.173 32.7587 117.962 32.4072C117.61 32.126 117.259 31.9151 116.767 31.9151Z" fill="#C01818"/>
<path d="M123.516 31.2122C123.797 31.2122 124.008 31.2122 124.219 31.2825L124.078 32.126C123.797 32.0557 123.586 32.0557 123.445 32.0557C122.953 32.0557 122.531 32.2666 122.18 32.6181C121.828 32.9696 121.688 33.532 121.688 34.0944V37.2579H120.774V31.2825H121.547L121.618 32.4072H121.688C121.899 31.9854 122.18 31.7042 122.461 31.4934C122.813 31.2825 123.164 31.2122 123.516 31.2122Z" fill="#C01818"/>
<path d="M125.203 36.6954C125.203 36.4845 125.273 36.2736 125.343 36.133C125.484 35.9924 125.624 35.9221 125.835 35.9221C126.046 35.9221 126.187 35.9924 126.327 36.133C126.468 36.2736 126.538 36.4142 126.538 36.6954C126.538 36.9063 126.468 37.1172 126.327 37.2578C126.187 37.3984 126.046 37.4687 125.835 37.4687C125.624 37.4687 125.484 37.3984 125.343 37.3281C125.273 37.1875 125.203 36.9766 125.203 36.6954Z" fill="#C01818"/>
<path d="M64.0424 16.3094L60.668 14.341L60.4571 14.6925C59.6838 15.8876 58.6293 16.5203 57.364 16.5203C55.1847 16.5203 53.4975 14.8331 53.4975 12.6538C53.4975 10.4746 55.1847 8.78738 57.364 8.78738C58.6996 8.78738 59.6838 9.34977 60.4571 10.6151L60.7383 10.9666L64.1127 8.99828L63.8315 8.57648C62.2146 6.25662 60.1056 5.13184 57.4343 5.13184C52.3024 5.13184 49.5608 8.99828 49.5608 12.6538C49.5608 16.3094 52.3024 20.2461 57.4343 20.2461C60.0353 20.2461 62.4958 18.9104 63.8315 16.8015L64.0424 16.3094Z" fill="#C01818"/>
<path d="M63.9016 20.1758H68.5413L69.9473 16.7312H76.9069L78.3129 20.1758H82.9526L74.5167 0.140625H70.3691L71.4939 2.81198L63.9016 20.1758ZM73.392 8.0141L75.29 12.7241H71.4939L73.392 8.0141Z" fill="#C01818"/>
<path d="M84.7807 20.1758H88.858V11.1776H91.5293V7.38142H88.858V5.62395C88.858 4.85066 89.3501 4.07738 90.3343 4.07738C90.8264 4.07738 91.1779 4.14768 91.4591 4.28827L91.8808 4.49917L93.568 0.843628L93.0759 0.632731C92.3026 0.351535 91.2482 0.210938 90.5452 0.210938C88.7174 0.210938 87.1708 0.843628 86.1866 1.96841C85.2727 2.95259 84.7807 4.35857 84.7807 5.83485V7.45172H82.9529V11.2479H84.7104L84.7807 20.1758Z" fill="#C01818"/>
<path d="M30.2988 0V20.1758H34.7277V8.64676L39.0159 11.8102L43.3041 8.64676V20.1758H47.733V0L39.0159 6.6081L30.2988 0Z" fill="#C01818"/>
<path d="M100.598 5.13184C95.466 5.13184 92.7244 8.99828 92.7244 12.6538C92.7244 16.3094 95.466 20.1758 100.598 20.1758C102.918 20.1758 105.167 19.051 106.854 17.1529L103.55 15.3252C102.707 16.1688 101.652 16.6609 100.528 16.6609C98.8404 16.6609 97.3641 15.5361 97.0126 14.1301H108.05V13.1459C108.05 7.5923 103.691 5.13184 100.598 5.13184ZM97.0829 10.7557C97.6453 9.34977 98.7701 8.57648 100.246 8.57648C101.723 8.57648 102.918 9.34977 103.55 10.7557H97.0829Z" fill="#C01818"/>
<path d="M117.188 5.13184C112.056 5.13184 109.315 8.99828 109.315 12.6538C109.315 16.3094 112.056 20.1758 117.188 20.1758C119.508 20.1758 121.758 19.051 123.445 17.1529L120.141 15.3252C119.297 16.1688 118.243 16.6609 117.118 16.6609C115.431 16.6609 113.954 15.5361 113.603 14.1301H124.64V13.1459C124.64 7.5923 120.281 5.13184 117.188 5.13184ZM113.673 10.826C114.236 9.42007 115.36 8.64678 116.837 8.64678C118.313 8.64678 119.508 9.42007 120.141 10.826H113.673Z" fill="#C01818"/>
<path d="M124.078 4.42896H125.765V4.78045H125.062V6.60822H124.71V4.78045H124.007V4.42896H124.078Z" fill="#C01818"/>
<path d="M126.046 4.42896H126.538L127.101 6.11613L127.663 4.42896H128.155V6.53792H127.944V4.92105L127.382 6.53792H127.101L126.398 4.92105V6.53792H126.046V4.42896Z" fill="#C01818"/>
<path d="M4.49913 17.1529V6.95959L10.8963 9.98244V5.06152L0 0V20.0352L10.8963 25.0967V20.1758L4.49913 17.1529Z" fill="#C01818"/>
<path d="M17.3637 17.1529V6.95959L10.8962 9.98244V5.06152L21.7926 0V20.0352L10.8962 25.0967V20.1758L17.3637 17.1529Z" fill="#75160D"/>
</svg>
