<svg width="158" height="40" viewBox="0 0 158 40" fill="none" xmlns="http://www.w3.org/2000/svg">
<path d="M51.4047 22.3048C49.1131 22.3048 47.1533 21.8634 45.5253 20.9806C43.9514 20.1547 42.6716 18.8621 41.8613 17.2802C41.0467 15.696 40.6394 13.8324 40.6394 11.6893C40.6394 9.50482 41.1003 7.54926 42.0221 5.82262C42.911 4.12914 44.2627 2.72297 45.9198 1.76783C47.5965 0.793703 49.5076 0.306641 51.6531 0.306641C54.4135 0.306641 56.749 1.01897 58.6595 2.44363L57.5344 4.38335C55.8467 3.23023 53.9058 2.65367 51.7116 2.65367C50.1983 2.6259 48.7079 3.02604 47.412 3.80801C46.173 4.57455 45.1787 5.67907 44.5463 6.99157C43.8626 8.4153 43.52 9.97865 43.5453 11.5578C43.5453 14.1149 44.2278 16.1502 45.5928 17.6637C46.9578 19.1773 48.9371 19.9353 51.5307 19.9377C53.2951 19.9377 54.8458 19.6844 56.1828 19.1779V13.1505H50.791V10.7761H58.9517V20.7523C56.6893 21.7873 54.1737 22.3048 51.4047 22.3048Z" fill="#5E6C75"/>
<path d="M69.2492 22.3051C66.8601 22.3051 64.963 21.5952 63.5578 20.1754C62.1527 18.7556 61.4507 16.8743 61.4519 14.5315C61.4519 12.218 62.1271 10.3191 63.4775 8.83473C64.8279 7.35041 66.6148 6.60398 68.8382 6.59546C70.2409 6.59546 71.4422 6.92179 72.4419 7.57445C73.4342 8.21836 74.2095 9.14638 74.6665 10.2375C75.1741 11.4756 75.4227 12.8046 75.3971 14.1425C75.3971 14.3251 75.3825 14.5662 75.3533 14.8585H64.2318C64.261 16.5376 64.7438 17.8326 65.6802 18.7434C66.6166 19.6542 67.8549 20.1096 69.3953 20.1096C71.1275 20.1297 72.8119 19.5415 74.1551 18.4475L74.9606 20.4384C73.3569 21.6828 71.4531 22.3051 69.2492 22.3051ZM64.3049 13.0174H72.9204C72.8218 11.6426 72.4218 10.5845 71.7204 9.84295C71.019 9.1014 70.0833 8.73062 68.9131 8.73062C67.7771 8.69558 66.6723 9.10513 65.8336 9.87217C65.0105 10.632 64.5009 11.6804 64.3049 13.0174Z" fill="#5E6C75"/>
<path d="M84.8401 22.3051C82.4048 22.3051 80.5052 21.5836 79.1415 20.1407C77.7777 18.6978 77.0928 16.8153 77.0867 14.4932C77.0867 12.1371 77.7765 10.2284 79.1561 8.7672C80.5357 7.30602 82.4401 6.57969 84.8693 6.58821C87.2876 6.58821 89.1695 7.31211 90.515 8.7599C91.8605 10.2077 92.5333 12.1164 92.5333 14.4859C92.5333 16.808 91.8508 18.6905 90.4858 20.1334C89.1208 21.5763 87.2389 22.3002 84.8401 22.3051ZM84.8401 20.1133C86.4231 20.1133 87.6298 19.6019 88.4602 18.5791C89.2906 17.5562 89.7077 16.1955 89.7113 14.4969C89.7113 12.7703 89.2894 11.3882 88.4456 10.3508C87.6017 9.31332 86.395 8.79399 84.8255 8.79278C83.2425 8.79278 82.0279 9.31211 81.1817 10.3508C80.3354 11.3894 79.9092 12.7715 79.9031 14.4969C79.9031 16.1931 80.325 17.5538 81.1689 18.5791C82.0127 19.6043 83.2364 20.1145 84.8401 20.1097V20.1133Z" fill="#5E6C75"/>
<path d="M97.41 21.9833V3.04086H90.6082V0.686523H107.047V3.04086H100.203V21.9833H97.41Z" fill="#5E6C75"/>
<path d="M106.988 21.9837V10.6595C106.988 10.3289 106.97 9.85587 106.937 9.24035C106.904 8.62482 106.871 8.09514 106.842 7.64765L106.796 6.97368H109.649L109.679 9.31523C110.587 7.52162 111.926 6.62482 113.697 6.62482C114.209 6.62249 114.719 6.68384 115.216 6.80747L115.202 9.1819C114.667 9.0322 114.114 8.9536 113.558 8.94811C112.407 8.94811 111.481 9.35054 110.78 10.1554C110.079 10.9603 109.727 12.1171 109.726 13.6257V21.9856L106.988 21.9837Z" fill="#5E6C75"/>
<path d="M122.813 22.3196C120.891 22.3196 119.448 21.7717 118.482 20.6758C117.517 19.5799 117.034 18.1065 117.036 16.2557V6.97534H119.711V16.2557C119.711 17.544 120.016 18.512 120.625 19.1598C121.234 19.8076 122.114 20.1321 123.268 20.1333C124.585 20.1333 125.614 19.7577 126.354 19.0064C127.095 18.2551 127.466 17.2846 127.469 16.095V6.97534H130.159V18.2648C130.159 19.6043 130.203 20.8432 130.29 21.9817H127.551L127.478 19.5671C127.046 20.3505 126.435 21.0198 125.693 21.5196C124.928 22.053 123.968 22.3196 122.813 22.3196Z" fill="#5E6C75"/>
<path d="M138.192 22.3051C136.135 22.3337 134.124 21.6976 132.458 20.4914L133.204 18.4823C133.861 18.9446 134.576 19.318 135.332 19.5928C136.174 19.9209 137.069 20.09 137.973 20.0914C139.961 20.0914 140.956 19.3608 140.957 17.8997C140.974 17.6316 140.921 17.3638 140.803 17.1226C140.684 16.8814 140.505 16.6752 140.283 16.5243C139.836 16.2236 138.964 15.8534 137.666 15.4138L136.378 14.9773C135.881 14.8019 135.459 14.6357 135.112 14.4787C134.746 14.3112 134.395 14.1113 134.064 13.8814C133.742 13.6693 133.455 13.408 133.215 13.107C132.986 12.8018 132.811 12.4603 132.696 12.0969C132.558 11.6642 132.492 11.2121 132.499 10.7581C132.486 10.1005 132.639 9.45035 132.944 8.86769C133.227 8.33233 133.65 7.88311 134.166 7.56723C134.702 7.24594 135.283 7.00762 135.89 6.86038C136.547 6.69619 137.222 6.61519 137.9 6.61929C139.879 6.61929 141.547 7.05277 142.902 7.91975L142.157 9.85217C140.948 9.17755 139.591 8.81531 138.206 8.79828C137.242 8.79828 136.496 8.96449 135.969 9.29692C135.723 9.43708 135.52 9.64119 135.381 9.88753C135.242 10.1339 135.173 10.4133 135.18 10.696C135.18 11.2439 135.337 11.6439 135.655 11.9033C135.973 12.1627 136.603 12.4622 137.549 12.8019C138.402 13.085 138.904 13.2549 139.056 13.3152C139.669 13.5289 140.152 13.7152 140.533 13.8631C140.945 14.0416 141.343 14.2491 141.724 14.4841C142.094 14.6982 142.426 14.973 142.705 15.2969C142.953 15.6163 143.146 15.975 143.275 16.3581C143.432 16.8214 143.509 17.3082 143.501 17.7974C143.518 18.5228 143.363 19.2419 143.048 19.896C142.772 20.4661 142.348 20.9513 141.819 21.3006C141.302 21.6383 140.734 21.8923 140.137 22.0531C139.503 22.2245 138.849 22.3092 138.192 22.3051Z" fill="#5E6C75"/>
<path d="M153.79 21.9836H152.548C150.422 21.9629 148.966 21.5823 148.181 20.842C147.395 20.1017 147.003 18.7513 147.005 16.7909V8.76712H144.13V6.97533H147.068V3.11415L149.702 2.33789V6.97533H153.77V8.76712H149.702V16.937C149.693 17.3737 149.73 17.8102 149.812 18.2393C149.872 18.5385 149.989 18.8236 150.155 19.0794C150.34 19.3276 150.603 19.5054 150.902 19.5836C151.278 19.698 151.665 19.7739 152.057 19.81C152.486 19.8539 153.065 19.8758 153.797 19.8758L153.79 21.9836Z" fill="#5E6C75"/>
<path fill-rule="evenodd" clip-rule="evenodd" d="M13.6073 7.12329C16.5699 5.11416 19.726 4.32146 22.3416 4.70502V0H0V22.5516H7.63836C7.54498 22.3953 7.46082 22.2337 7.3863 22.0676C5.27671 17.6055 8.0548 10.9169 13.6073 7.12329Z" fill="#0174C3"/>
<path fill-rule="evenodd" clip-rule="evenodd" d="M22.2173 7.28052C20.6506 7.2817 19.1034 7.62769 17.6854 8.29395C16.2674 8.9602 15.0135 9.93038 14.0125 11.1356C13.0116 12.3409 12.2881 13.7517 11.8936 15.2679C11.4991 16.7841 11.4431 18.3686 11.7296 19.9088C11.9963 21.0613 12.61 21.4193 13.1762 21.6623C13.3875 21.7521 13.6099 21.8135 13.8374 21.8449C15.0432 21.9234 16.2423 21.6129 17.2584 20.9591C18.7689 20.0184 19.8885 18.4897 20.4913 16.7472C18.6191 16.9682 16.8036 17.2476 15.063 17.5819L15.0958 14.2358L27.0794 13.4358L26.9954 24.7381L23.3789 24.9828V24.9664C23.3972 24.8476 23.4155 24.7271 23.4337 24.612C23.5744 23.6623 23.6931 22.6979 23.799 21.7134C23.8538 21.1454 23.905 20.5792 23.9452 20.0056C23.4786 20.6164 22.9565 21.1826 22.3853 21.697C21.837 22.191 21.2473 22.6371 20.6228 23.0303C20.2462 23.2688 19.8572 23.4871 19.4575 23.6842C18.6623 24.0788 17.8287 24.391 16.9698 24.6157C16.2867 24.7892 15.0867 24.8732 14.1406 24.9097C15.3074 26.265 16.7961 27.3051 18.47 27.9347C20.1438 28.5642 21.949 28.7628 23.7197 28.5124C25.4904 28.2619 27.1697 27.5703 28.6032 26.5013C30.0368 25.4322 31.1786 24.0199 31.9237 22.3942C32.6689 20.7686 32.9934 18.9817 32.8675 17.1978C32.7415 15.4139 32.1692 13.6904 31.2031 12.1855C30.237 10.6806 28.9081 9.44273 27.3386 8.58564C25.7691 7.72856 24.0093 7.27977 22.221 7.28052H22.2173Z" fill="#F26F28"/>
<path d="M156.386 19.9363C156.183 19.9359 155.985 19.9957 155.816 20.108C155.647 20.2202 155.516 20.38 155.438 20.5671C155.36 20.7542 155.339 20.9602 155.378 21.159C155.418 21.3579 155.515 21.5406 155.658 21.6842C155.801 21.8277 155.983 21.9257 156.182 21.9655C156.381 22.0054 156.587 21.9855 156.774 21.9083C156.962 21.8311 157.122 21.7 157.235 21.5317C157.348 21.3634 157.408 21.1654 157.408 20.9628C157.409 20.8287 157.383 20.6958 157.332 20.5718C157.281 20.4477 157.206 20.3349 157.112 20.2397C157.018 20.1446 156.905 20.069 156.782 20.0172C156.658 19.9655 156.525 19.9386 156.391 19.9381L156.386 19.9363ZM156.391 21.7847C156.228 21.785 156.069 21.7371 155.933 21.6469C155.797 21.5567 155.692 21.4282 155.629 21.2779C155.566 21.1275 155.55 20.9619 155.581 20.802C155.612 20.6422 155.691 20.4952 155.805 20.3798C155.92 20.2643 156.067 20.1855 156.227 20.1534C156.386 20.1212 156.552 20.1372 156.703 20.1992C156.853 20.2612 156.982 20.3665 157.073 20.5018C157.164 20.637 157.213 20.7962 157.213 20.9591C157.213 21.0671 157.192 21.1741 157.151 21.2739C157.11 21.3738 157.049 21.4645 156.973 21.5408C156.896 21.6172 156.806 21.6777 156.706 21.719C156.606 21.7602 156.499 21.7813 156.391 21.781" fill="#5E6C75"/>
<path d="M156.031 21.5251V20.3945H156.378C156.449 20.3911 156.52 20.3997 156.588 20.4201C156.647 20.4405 156.696 20.4805 156.729 20.5333C156.762 20.5887 156.779 20.6517 156.78 20.716C156.781 20.7845 156.762 20.8519 156.725 20.9096C156.689 20.9629 156.636 21.0027 156.575 21.0228C156.589 21.0387 156.6 21.0558 156.61 21.074L156.849 21.5123H156.667L156.429 21.063H156.186V21.5123L156.031 21.5251ZM156.19 20.937H156.418C156.445 20.9392 156.472 20.9355 156.497 20.926C156.523 20.9165 156.546 20.9016 156.564 20.8822C156.6 20.8408 156.619 20.7873 156.617 20.7324C156.622 20.6965 156.616 20.66 156.6 20.6275C156.584 20.595 156.559 20.5679 156.528 20.5498C156.479 20.5296 156.426 20.5208 156.373 20.5242H156.19V20.937Z" fill="#5E6C75"/>
<path d="M118.952 34.4747C118.952 33.5237 119.206 32.7614 119.713 32.1879C119.956 31.9089 120.258 31.6876 120.597 31.5401C120.936 31.3925 121.304 31.3224 121.673 31.335C121.92 31.3327 122.166 31.3646 122.404 31.4299C122.593 31.4779 122.772 31.5582 122.933 31.6674C123.054 31.7552 123.169 31.8504 123.279 31.9523C123.357 32.0227 123.426 32.1024 123.485 32.1898L123.532 32.2847H123.556C123.54 32.1508 123.532 32.016 123.532 31.8811V29.092H124.685V37.4793H123.589V36.9094L123.6 36.5057H123.576C123.562 36.5368 123.54 36.577 123.512 36.6245C123.451 36.7176 123.383 36.8066 123.31 36.8911C123.204 37.0221 123.081 37.1382 122.944 37.2363C122.771 37.3532 122.58 37.4431 122.38 37.503C122.131 37.5834 121.871 37.6235 121.609 37.6217C121.242 37.6363 120.877 37.5655 120.542 37.4149C120.207 37.2644 119.911 37.0382 119.679 36.7541C119.195 36.177 118.953 35.4172 118.952 34.4747ZM120.128 34.4747C120.101 35.0337 120.266 35.585 120.597 36.0363C120.741 36.2246 120.927 36.3761 121.141 36.4783C121.355 36.5805 121.59 36.6306 121.827 36.6245C122.06 36.628 122.291 36.5808 122.505 36.4862C122.718 36.3916 122.909 36.2518 123.063 36.0765C123.395 35.7112 123.562 35.1706 123.562 34.4546C123.574 33.9192 123.418 33.3934 123.116 32.9514C122.978 32.7477 122.791 32.5825 122.572 32.4713C122.353 32.3601 122.109 32.3065 121.863 32.3158C121.627 32.3129 121.393 32.3633 121.179 32.4633C120.965 32.5632 120.776 32.7101 120.627 32.893C120.294 33.282 120.128 33.808 120.128 34.4747Z" fill="#0174C3"/>
<path d="M125.651 30.2683V29.092H126.815V30.2683H125.651ZM125.662 37.4793V31.4683H126.815V37.4793H125.662Z" fill="#0174C3"/>
<path d="M128.564 38.5735C129.07 38.8438 129.635 38.9826 130.208 38.9772C130.701 39.0012 131.188 38.8562 131.587 38.5662C131.934 38.2941 132.11 37.8685 132.11 37.2877V36.8475L132.121 36.4676H132.097C131.724 37.0947 131.131 37.4076 130.316 37.4064C129.945 37.4207 129.576 37.3495 129.237 37.198C128.898 37.0466 128.599 36.8192 128.362 36.5333C127.861 35.9108 127.602 35.1288 127.631 34.3306C127.631 33.4429 127.864 32.7202 128.331 32.1625C128.568 31.8845 128.867 31.6652 129.204 31.5217C129.54 31.3782 129.905 31.3143 130.27 31.3351C130.523 31.3329 130.774 31.363 131.019 31.4246C131.213 31.4687 131.398 31.5446 131.567 31.6493C131.689 31.7295 131.805 31.8192 131.912 31.9178C131.985 31.9825 132.046 32.0583 132.095 32.1425L132.153 32.2265H132.177C132.17 32.1659 132.166 32.1049 132.166 32.0438V31.4849H133.262V37.2475C133.271 37.6807 133.184 38.1106 133.006 38.5059C132.854 38.8486 132.614 39.1452 132.311 39.3662C132.019 39.5762 131.693 39.735 131.348 39.8356C130.985 39.9455 130.608 40.0009 130.228 40C129.519 39.9924 128.823 39.8159 128.196 39.4849L128.564 38.5735ZM130.548 36.411C130.763 36.4175 130.977 36.3773 131.175 36.2931C131.373 36.2089 131.551 36.0827 131.695 35.9233C131.991 35.5982 132.141 35.0721 132.141 34.3434C132.141 32.9966 131.574 32.3233 130.442 32.3233C130.214 32.3119 129.986 32.3539 129.777 32.4458C129.568 32.5378 129.383 32.6772 129.237 32.853C128.946 33.2055 128.802 33.6895 128.802 34.3141C128.775 34.8618 128.941 35.4017 129.271 35.8393C129.425 36.0279 129.62 36.178 129.843 36.2773C130.065 36.3766 130.307 36.4223 130.55 36.411H130.548Z" fill="#0174C3"/>
<path d="M134.227 30.2683V29.092H135.39V30.2683H134.227ZM134.247 37.4793V31.4683H135.399V37.4793H134.247Z" fill="#0174C3"/>
<path d="M136.236 34.4751C136.226 34.0581 136.302 33.6434 136.459 33.2569C136.616 32.8704 136.851 32.5204 137.149 32.2286C137.453 31.9323 137.813 31.7005 138.208 31.5471C138.604 31.3936 139.026 31.3216 139.45 31.3354C139.87 31.3311 140.287 31.4055 140.68 31.5546C140.972 31.6533 141.243 31.8043 141.481 32.0003L141.708 32.214L141.16 33.0231C141.094 32.958 141.025 32.897 140.952 32.8404C140.776 32.7125 140.585 32.6087 140.382 32.5318C140.103 32.4068 139.801 32.3415 139.496 32.34C139.218 32.3321 138.942 32.382 138.684 32.4863C138.427 32.5907 138.194 32.7474 138 32.9464C137.803 33.1488 137.649 33.3888 137.547 33.6521C137.445 33.9154 137.397 34.1966 137.406 34.4788C137.398 34.7633 137.447 35.0466 137.55 35.312C137.653 35.5774 137.808 35.8195 138.006 36.024C138.203 36.2274 138.441 36.3873 138.704 36.4936C138.967 36.5999 139.249 36.6502 139.532 36.6414C139.864 36.6411 140.192 36.5721 140.495 36.4386C140.742 36.3434 140.97 36.2069 141.171 36.035L141.385 35.834L141.848 36.6761L141.748 36.7783C141.656 36.8617 141.558 36.9392 141.456 37.0103C141.303 37.1213 141.14 37.2185 140.97 37.3007C140.753 37.3978 140.528 37.4754 140.298 37.5327C140.02 37.6044 139.735 37.64 139.448 37.6386C139.022 37.6547 138.597 37.5839 138.199 37.4307C137.801 37.2775 137.438 37.045 137.132 36.7473C136.834 36.4515 136.599 36.0968 136.445 35.7056C136.291 35.3144 136.219 34.8954 136.236 34.4751Z" fill="#0174C3"/>
<path d="M141.993 34.4748C141.993 33.5323 142.276 32.7719 142.842 32.1935C143.123 31.9087 143.461 31.6853 143.833 31.5376C144.204 31.3898 144.603 31.3208 145.003 31.3351C145.818 31.3351 146.464 31.5999 146.915 32.1314C147.387 32.6975 147.633 33.4186 147.604 34.1552L147.56 34.6447H143.176C143.175 34.919 143.231 35.1906 143.341 35.4421C143.45 35.6937 143.611 35.9197 143.812 36.1059C144.206 36.4526 144.717 36.6373 145.242 36.6228C145.556 36.6209 145.866 36.5589 146.155 36.4401C146.389 36.3544 146.611 36.239 146.815 36.0967L147.029 35.9141L147.503 36.7579C147.414 36.8434 147.319 36.9228 147.219 36.9954C146.968 37.1511 146.701 37.2785 146.422 37.3753C146.025 37.5323 145.602 37.6129 145.175 37.6127C144.366 37.6459 143.576 37.3569 142.98 36.8091C142.383 36.2613 142.029 35.4994 141.993 34.6903C141.993 34.6191 141.993 34.546 141.993 34.4748ZM143.217 33.7734H146.424C146.431 33.5642 146.397 33.3556 146.322 33.1599C146.248 32.9642 146.135 32.7853 145.991 32.6337C145.856 32.5041 145.697 32.4027 145.523 32.3353C145.348 32.2678 145.162 32.2358 144.976 32.241C144.554 32.2315 144.142 32.3748 143.818 32.6447C143.486 32.9344 143.272 33.3362 143.217 33.7734Z" fill="#0174C3"/>
<path d="M148.431 37.4793V31.4683H149.547V32.5113L149.523 32.9624H149.547C149.676 32.526 149.925 32.1349 150.267 31.8336C150.592 31.545 151.013 31.388 151.448 31.3934L151.746 31.4172V32.5587C151.637 32.5339 151.525 32.5216 151.414 32.5222C151.038 32.5224 150.675 32.6572 150.391 32.9021C150.071 33.1725 149.839 33.5326 149.726 33.9359C149.625 34.2872 149.577 34.6517 149.583 35.0172V37.4793H148.431Z" fill="#0174C3"/>
<path d="M153.222 35.2822V32.4786H152.437V31.5525H153.257V29.8174H154.373V31.5525H155.823V32.4786H154.373V35.1507C154.368 35.3551 154.401 35.5585 154.468 35.7516C154.517 35.8988 154.596 36.0343 154.7 36.1498C154.791 36.2449 154.9 36.3213 155.021 36.3745C155.126 36.4256 155.238 36.4619 155.353 36.4822C155.454 36.4984 155.555 36.5063 155.657 36.506L155.929 36.4822V37.5032C155.795 37.5212 155.66 37.5291 155.525 37.527C155.342 37.5273 155.159 37.5157 154.977 37.4923C154.772 37.4582 154.572 37.3967 154.384 37.3096C154.171 37.2239 153.975 37.1002 153.806 36.9443C153.622 36.7569 153.481 36.532 153.392 36.285C153.271 35.9648 153.213 35.6243 153.222 35.2822Z" fill="#0174C3"/>
<path d="M156.566 29.0779C156.394 29.079 156.227 29.1308 156.084 29.227C155.942 29.3231 155.831 29.4593 155.766 29.6182C155.7 29.7772 155.684 29.9519 155.717 30.1204C155.751 30.2889 155.834 30.4436 155.956 30.5652C156.077 30.6867 156.232 30.7695 156.4 30.8033C156.569 30.8371 156.744 30.8203 156.903 30.7551C157.062 30.6898 157.198 30.579 157.294 30.4366C157.39 30.2941 157.442 30.1264 157.443 29.9546C157.443 29.8404 157.421 29.7273 157.377 29.6217C157.334 29.5162 157.27 29.4202 157.19 29.3393C157.109 29.2584 157.013 29.1942 156.908 29.1502C156.802 29.1063 156.689 29.0836 156.575 29.0834L156.566 29.0779ZM156.575 30.6541C156.437 30.6549 156.301 30.6144 156.185 30.538C156.069 30.4615 155.979 30.3524 155.925 30.2245C155.871 30.0967 155.857 29.9557 155.883 29.8195C155.909 29.6833 155.976 29.558 156.073 29.4594C156.171 29.3608 156.295 29.2934 156.431 29.2656C156.567 29.2378 156.708 29.251 156.837 29.3034C156.965 29.3558 157.075 29.4451 157.153 29.5601C157.23 29.675 157.272 29.8104 157.273 29.9491C157.273 30.1343 157.2 30.312 157.069 30.4431C156.938 30.5743 156.761 30.6482 156.575 30.6487" fill="#0174C3"/>
<path d="M156.265 30.4219V29.4593H156.559C156.621 29.4565 156.682 29.4639 156.742 29.4813C156.791 29.4996 156.832 29.5337 156.86 29.5781C156.89 29.6277 156.904 29.6848 156.902 29.7424C156.904 29.8 156.888 29.8566 156.857 29.905C156.827 29.9512 156.783 29.9855 156.731 30.0018C156.741 30.0147 156.751 30.0288 156.758 30.0438L156.963 30.4091H156.811L156.608 30.0256H156.4V30.4219H156.265ZM156.4 29.9214H156.594C156.617 29.9225 156.639 29.9188 156.661 29.9107C156.682 29.9025 156.702 29.89 156.718 29.874C156.749 29.8392 156.765 29.7942 156.764 29.7479C156.766 29.7183 156.761 29.6884 156.747 29.6619C156.733 29.6354 156.712 29.6133 156.687 29.5982C156.645 29.5809 156.6 29.5734 156.555 29.5762H156.4V29.9214Z" fill="#0174C3"/>
<path d="M64.0512 34.6358C64.0512 35.538 63.8454 36.2644 63.4338 36.8148C63.2438 37.0798 62.9914 37.2939 62.699 37.4382C62.4066 37.5825 62.0831 37.6525 61.7571 37.6422C61.0375 37.6422 60.4719 37.4138 60.0603 36.9572V39.8175H59.0466V31.6075H59.9727L60.022 32.2632C60.2285 32.0099 60.4916 31.8087 60.7901 31.6757C61.0887 31.5428 61.4143 31.4819 61.7407 31.4979C62.0662 31.486 62.3898 31.5528 62.6839 31.6927C62.978 31.8326 63.234 32.0415 63.4302 32.3015C63.8454 32.8385 64.0524 33.5855 64.0512 34.5426V34.6358ZM63.0393 34.5207C63.0393 33.8522 62.8969 33.3243 62.6119 32.9371C62.48 32.7507 62.3037 32.5999 62.099 32.4986C61.8943 32.3972 61.6676 32.3483 61.4393 32.3563C61.1555 32.3463 60.8747 32.4178 60.6302 32.5625C60.3858 32.7072 60.188 32.919 60.0603 33.1727V36.0038C60.1899 36.258 60.3899 36.4695 60.6363 36.6133C60.8827 36.7571 61.1652 36.827 61.4503 36.8148C61.6759 36.8216 61.8998 36.7724 62.1018 36.6717C62.3039 36.571 62.4779 36.4219 62.6083 36.2376C62.8956 35.8528 63.0393 35.2805 63.0393 34.5207Z" fill="#707E86"/>
<path d="M65.0705 34.5206C65.0621 33.9786 65.1797 33.4422 65.4139 32.9534C65.6213 32.5119 65.9517 32.1397 66.3655 31.8813C66.7849 31.6261 67.2681 31.495 67.7591 31.5032C68.126 31.4886 68.4917 31.555 68.8301 31.6977C69.1685 31.8403 69.4714 32.0558 69.7171 32.3288C70.2163 32.8877 70.4659 33.6311 70.4659 34.5589V34.6301C70.4745 35.1662 70.3608 35.6971 70.1335 36.1827C69.929 36.6258 69.6004 37.0002 69.1874 37.2603C68.761 37.5202 68.2693 37.6532 67.77 37.6438C67.4029 37.6564 67.0376 37.5878 66.7001 37.4429C66.3625 37.298 66.0612 37.0803 65.8175 36.8055C65.3207 36.2466 65.0717 35.5075 65.0705 34.5881V34.5206ZM66.0897 34.6411C66.0611 35.2045 66.2218 35.7613 66.5463 36.2228C66.6912 36.4098 66.877 36.5611 67.0894 36.6652C67.3019 36.7693 67.5353 36.8235 67.7719 36.8235C68.0084 36.8235 68.2419 36.7693 68.4543 36.6652C68.6667 36.5611 68.8525 36.4098 68.9974 36.2228C69.3006 35.8198 69.4522 35.2548 69.4522 34.5279C69.4786 33.9644 69.316 33.4083 68.9901 32.948C68.8512 32.7528 68.6669 32.5944 68.453 32.4865C68.2392 32.3786 68.0022 32.3245 67.7627 32.3288C67.528 32.3239 67.2956 32.3756 67.0851 32.4796C66.8747 32.5835 66.6923 32.7367 66.5536 32.926C66.2443 33.3242 66.0897 33.8941 66.0897 34.6356V34.6411Z" fill="#707E86"/>
<path d="M76.9827 36.1353L78.1225 31.6074H79.1343L77.4101 37.5325H76.5882L75.1489 33.0412L73.7462 37.5325H72.9243L71.2056 31.6074H72.212L73.3791 36.0421L74.7599 31.6074H75.5745L76.9827 36.1353Z" fill="#707E86"/>
<path d="M82.623 37.6424C82.2591 37.6558 81.8964 37.5924 81.5587 37.4561C81.221 37.3198 80.9158 37.1138 80.6632 36.8515C80.1591 36.3242 79.907 35.6186 79.907 34.7346V34.5519C79.8977 34.0082 80.0133 33.4696 80.2449 32.9775C80.4515 32.5355 80.7773 32.1598 81.1856 31.8926C81.5749 31.6364 82.0309 31.5005 82.497 31.5017C83.2677 31.5017 83.8668 31.755 84.2942 32.2615C84.7216 32.7681 84.9341 33.4938 84.9317 34.4387V34.8606H80.9134C80.9035 35.3794 81.0857 35.8835 81.4248 36.2761C81.5809 36.4514 81.7735 36.5905 81.989 36.6835C82.2045 36.7766 82.4377 36.8215 82.6723 36.815C82.9909 36.8258 83.3066 36.7501 83.5856 36.5958C83.8382 36.4459 84.0596 36.2487 84.2376 36.015L84.8568 36.4972C84.3612 37.2606 83.6166 37.6424 82.623 37.6424ZM82.497 32.3291C82.3035 32.3258 82.1116 32.364 81.9342 32.4412C81.7568 32.5184 81.598 32.6328 81.4687 32.7766C81.1679 33.128 80.9874 33.5664 80.9536 34.0277H83.9216V33.951C83.9215 33.5167 83.7747 33.0952 83.5052 32.7547C83.3791 32.6136 83.2233 32.5022 83.0489 32.4286C82.8746 32.355 82.686 32.321 82.497 32.3291Z" fill="#707E86"/>
<path d="M88.7472 32.5115C88.5824 32.485 88.4156 32.4722 88.2486 32.4731C87.5838 32.4731 87.1326 32.7562 86.8952 33.3224V37.5234H85.8833V31.6074H86.8696L86.886 32.2905C87.0277 32.043 87.2338 31.8386 87.4824 31.699C87.731 31.5594 88.0129 31.4899 88.2979 31.4978C88.4515 31.4897 88.605 31.5159 88.7472 31.5745V32.5115Z" fill="#707E86"/>
<path d="M91.9763 37.6424C91.6124 37.6562 91.2496 37.5929 90.9118 37.4566C90.5741 37.3203 90.2689 37.1141 90.0165 36.8515C89.5124 36.3242 89.2604 35.6186 89.2604 34.7346V34.5519C89.2505 34.0083 89.3655 33.4697 89.5964 32.9775C89.8037 32.5353 90.13 32.1597 90.5389 31.8926C90.9282 31.6364 91.3843 31.5005 91.8503 31.5017C92.6211 31.5017 93.2202 31.755 93.6476 32.2615C94.075 32.7681 94.2887 33.495 94.2887 34.4424V34.8643H90.2704C90.2605 35.383 90.4426 35.8872 90.7818 36.2798C90.9376 36.455 91.1298 36.5941 91.345 36.6871C91.5602 36.7802 91.7931 36.8251 92.0275 36.8186C92.3461 36.8293 92.6617 36.7536 92.9407 36.5994C93.1934 36.4495 93.4148 36.2523 93.5928 36.0186L94.2119 36.5008C93.7151 37.2618 92.9699 37.6424 91.9763 37.6424ZM91.8503 32.3291C91.6566 32.3256 91.4643 32.3638 91.2866 32.441C91.1089 32.5182 90.9498 32.6326 90.8202 32.7766C90.52 33.1282 90.3401 33.5666 90.3069 34.0277H93.275V33.951C93.2748 33.5167 93.1281 33.0952 92.8585 32.7547C92.7324 32.6136 92.5766 32.5022 92.4022 32.4286C92.2279 32.355 92.0394 32.321 91.8503 32.3291Z" fill="#707E86"/>
<path d="M95.2129 34.5203C95.2129 33.6107 95.4284 32.8801 95.8595 32.3285C96.0565 32.0788 96.3055 31.875 96.5892 31.7312C96.8729 31.5874 97.1844 31.5071 97.5023 31.4958C97.8202 31.4845 98.1367 31.5425 98.4299 31.6658C98.723 31.7891 98.9859 31.9747 99.2001 32.2098V29.1194H100.214V37.5322H99.2823L99.233 36.8947C99.0284 37.1419 98.769 37.3379 98.4754 37.4672C98.1818 37.5966 97.8621 37.6557 97.5417 37.6399C97.2144 37.6458 96.8907 37.572 96.5983 37.425C96.3059 37.278 96.0536 37.0622 95.8631 36.7961C95.4309 36.2335 95.2141 35.4999 95.2129 34.5952V34.5203ZM96.2266 34.6354C96.2266 35.3075 96.3654 35.8317 96.643 36.2116C96.7722 36.3949 96.9451 36.5431 97.1461 36.6426C97.347 36.7421 97.5696 36.7899 97.7937 36.7815C98.0877 36.7936 98.3786 36.7177 98.6292 36.5634C98.8797 36.4092 99.0785 36.1837 99.2001 35.9157V33.1943C99.074 32.9341 98.8749 32.7163 98.6271 32.5674C98.3793 32.4186 98.0936 32.3451 97.8047 32.3559C97.5784 32.347 97.3534 32.3949 97.1505 32.4955C96.9475 32.596 96.7731 32.7458 96.643 32.9313C96.3654 33.3148 96.2266 33.8829 96.2266 34.6354Z" fill="#707E86"/>
<path d="M109.407 34.6354C109.407 35.5413 109.199 36.2719 108.784 36.8272C108.593 37.0909 108.34 37.3039 108.048 37.4475C107.756 37.5911 107.433 37.6609 107.107 37.6509C106.358 37.6509 105.78 37.3861 105.372 36.8564L105.323 37.5413H104.391V29.1194H105.405V32.2573C105.607 32.0068 105.866 31.8076 106.16 31.6756C106.454 31.5436 106.774 31.4826 107.096 31.4975C107.424 31.4847 107.749 31.5522 108.045 31.6942C108.34 31.8362 108.596 32.0483 108.791 32.3121C109.203 32.8564 109.408 33.6016 109.407 34.5477V34.6354ZM108.395 34.5203C108.395 33.8299 108.261 33.2966 107.995 32.9203C107.866 32.7365 107.694 32.5883 107.492 32.4896C107.291 32.3909 107.068 32.3449 106.844 32.3559C106.537 32.3433 106.234 32.4262 105.976 32.593C105.719 32.7598 105.519 33.0024 105.405 33.2874V35.8445C105.525 36.1274 105.728 36.3675 105.986 36.5334C106.245 36.6992 106.548 36.7832 106.855 36.7742C107.076 36.7831 107.296 36.736 107.494 36.6373C107.693 36.5387 107.863 36.3917 107.989 36.2098C108.262 35.8408 108.398 35.2777 108.398 34.5203H108.395Z" fill="#707E86"/>
<path d="M112.512 36.0476L113.892 31.6074H114.977L112.603 38.4476C112.238 39.4339 111.652 39.9264 110.846 39.9252L110.654 39.9088L110.276 39.8376V39.0175L110.55 39.0394C110.832 39.056 111.113 38.9831 111.352 38.8312C111.583 38.6312 111.748 38.3655 111.825 38.0695L112.05 37.4668L109.936 31.6074H111.043L112.512 36.0476Z" fill="#707E86"/>
</svg>
