<svg width="31" height="19" viewBox="0 0 31 19" fill="none" xmlns="http://www.w3.org/2000/svg">
<path d="M0 1.26667C0 0.930726 0.130643 0.608544 0.363188 0.370998C0.595733 0.133452 0.911132 0 1.24 0L29.76 0C30.0889 0 30.4043 0.133452 30.6368 0.370998C30.8694 0.608544 31 0.930726 31 1.26667V17.7333C31 18.0693 30.8694 18.3915 30.6368 18.629C30.4043 18.8665 30.0889 19 29.76 19H1.24C0.911132 19 0.595733 18.8665 0.363188 18.629C0.130643 18.3915 0 18.0693 0 17.7333V1.26667Z" fill="#000066"/>
<path d="M17.4003 9.65363C17.4003 13.0667 14.6919 15.8334 11.351 15.8334C8.0095 15.8334 5.30103 13.0667 5.30103 9.65363C5.30103 6.24059 8.0095 3.47388 11.351 3.47388C14.6919 3.47388 17.4003 6.24059 17.4003 9.65363Z" fill="#CC0000"/>
<path d="M19.4732 3.47388C17.9717 3.47176 16.5234 4.04213 15.4119 5.07337C15.1933 5.27603 14.9894 5.49453 14.8012 5.7276H16.0235C16.1906 5.93557 16.3446 6.1542 16.4845 6.38215H14.3399C14.2116 6.59242 14.095 6.8106 13.9912 7.0367H16.8329C16.9303 7.24855 17.0158 7.46673 17.0893 7.69093H13.7351C13.6648 7.90554 13.6061 8.12395 13.5593 8.34517H17.2648C17.4933 9.4322 17.4328 10.5619 17.0893 11.617H13.7351C13.8086 11.8408 13.8941 12.0593 13.9912 12.2715H16.8329C16.7296 12.4965 16.6132 12.715 16.4842 12.9257H14.3399C14.4797 13.1537 14.6338 13.3722 14.8012 13.5797H16.0229C15.8353 13.8128 15.6311 14.0316 15.4122 14.2342C16.5236 15.2653 17.9718 15.8356 19.4732 15.8334C22.8144 15.8334 25.5228 13.0667 25.5228 9.65363C25.5228 6.24092 22.8144 3.47388 19.4732 3.47388Z" fill="#FF9900"/>
<path d="M9.87209 11.4665L9.88449 11.2024C9.71864 11.4108 9.49699 11.5105 9.19629 11.5105C8.84041 11.5105 8.59644 11.2268 8.59644 10.8142C8.59644 10.1935 9.02083 9.83157 9.74964 9.83157C9.82404 9.83157 9.91952 9.83853 10.0172 9.8512C10.0373 9.76697 10.0429 9.73118 10.0429 9.6859C10.0429 9.51712 9.9282 9.45378 9.62161 9.45378C9.38538 9.45356 9.15067 9.49238 8.92659 9.56873L9.01742 8.99557C9.34478 8.89708 9.56054 8.86035 9.80358 8.86035C10.3678 8.86035 10.6663 9.11907 10.6657 9.60768C10.6669 9.7391 10.6455 9.90029 10.6127 10.1131C10.5556 10.482 10.4329 11.2737 10.4164 11.4665H9.87209ZM9.79273 10.3202C9.41949 10.3202 9.2307 10.4507 9.2307 10.7084C9.2307 10.8668 9.32277 10.9681 9.46661 10.9681C9.73507 10.9681 9.92851 10.7078 9.93998 10.3306C9.89117 10.3239 9.84198 10.3204 9.79273 10.3202Z" fill="#000066"/>
<path d="M8.31906 11.4662H7.66186L8.03851 9.05639L7.19841 11.4662H6.75077L6.69559 9.07001L6.30003 11.4662H5.6853L6.19866 8.33154H7.14323L7.20027 10.0859L7.77656 8.33154H8.82684L8.31906 11.4662Z" fill="#000066"/>
<path d="M20.2169 11.4665L20.2293 11.2024C20.0631 11.4108 19.8418 11.5105 19.5411 11.5105C19.1846 11.5105 18.9409 11.2268 18.9409 10.8142C18.9409 10.1935 19.3656 9.83157 20.0941 9.83157C20.1685 9.83157 20.2637 9.83853 20.3613 9.8512C20.3818 9.76697 20.3871 9.73118 20.3871 9.6859C20.3871 9.51712 20.2727 9.45378 19.9661 9.45378C19.7297 9.45357 19.4948 9.49239 19.2704 9.56873C19.2776 9.5263 19.3622 8.99557 19.3622 8.99557C19.6893 8.89708 19.9053 8.86035 20.1477 8.86035C20.7119 8.86035 21.0105 9.11907 21.0099 9.60768C21.0111 9.7391 20.99 9.90029 20.9568 10.1131C20.9001 10.482 20.7774 11.2737 20.7609 11.4665H20.2169ZM20.1363 10.3202C19.7643 10.3202 19.577 10.4507 19.577 10.7084C19.577 10.8668 19.6682 10.9681 19.8117 10.9681C20.0783 10.9681 20.2705 10.7078 20.2817 10.3306C20.2334 10.3239 20.1847 10.3204 20.136 10.3202H20.1363Z" fill="#000066"/>
<path d="M13.3353 11.4272C13.1555 11.4852 13.0154 11.5102 12.8635 11.5102C12.5277 11.5102 12.3445 11.3129 12.3445 10.95C12.3399 10.8373 12.3929 10.5409 12.4344 10.2708C12.4726 10.0323 12.7196 8.53101 12.7196 8.53101H13.3722L13.2959 8.91671H13.6902L13.6013 9.52946H13.2054C13.1298 10.0143 13.0216 10.6182 13.0203 10.6983C13.0203 10.8297 13.0888 10.887 13.2454 10.887C13.3201 10.887 13.3781 10.8794 13.4221 10.8633L13.3353 11.4272Z" fill="#000066"/>
<path d="M14.9681 9.89585H14.247C14.3075 9.60262 14.4563 9.4408 14.664 9.4408C15.0372 9.4408 14.9718 9.84297 14.9677 9.89585H14.9681ZM15.3348 11.407L15.4436 10.7733C15.2092 10.8842 14.9984 10.9336 14.765 10.9336C14.385 10.9336 14.1534 10.7797 14.1974 10.4098H15.4972C15.5543 10.1524 15.5778 9.96963 15.5778 9.7828C15.5778 9.21945 15.234 8.86035 14.6959 8.86035C14.0378 8.86035 13.5532 9.50192 13.5532 10.3734C13.5532 11.1198 13.9342 11.5096 14.6652 11.5105C14.8923 11.5112 15.1181 11.4763 15.3348 11.407Z" fill="#000066"/>
<path d="M10.8104 9.72327C10.8104 10.0453 10.9635 10.2679 11.3104 10.4348C11.5764 10.5628 11.6176 10.6004 11.6176 10.7163C11.6176 10.875 11.5004 10.9472 11.2407 10.9472C11.0444 10.9472 10.8625 10.9155 10.652 10.8462L10.5618 11.4352C10.7109 11.4681 10.8439 11.4988 11.2453 11.5105C11.9382 11.5105 12.2584 11.2411 12.2584 10.6587C12.2584 10.3082 12.1245 10.1026 11.7953 9.9481C11.52 9.8189 11.4884 9.79009 11.4884 9.67102C11.4884 9.53327 11.5975 9.46297 11.8098 9.46297C11.9388 9.46297 12.1146 9.4769 12.2816 9.50097L12.375 8.90975C12.1836 8.88042 11.9906 8.86392 11.7971 8.86035C11.0624 8.86035 10.8082 9.25238 10.8104 9.72327Z" fill="#000066"/>
<path d="M18.5298 8.92759C18.7121 8.92759 18.8826 8.97604 19.1167 9.09669L19.2242 8.41649C19.1278 8.37786 18.7893 8.15112 18.5022 8.15112C18.063 8.15112 17.691 8.37406 17.4299 8.74139C17.0486 8.61251 16.8918 8.87312 16.6999 9.13279L16.5294 9.17364C16.5418 9.08814 16.5539 9.00327 16.5502 8.91714H15.9463C15.8641 9.70627 15.7181 10.5055 15.604 11.295L15.574 11.4663H16.2312C16.3406 10.7383 16.4007 10.2725 16.4373 9.95676L16.6847 9.81679C16.7219 9.67619 16.8372 9.62869 17.0691 9.63471C17.0379 9.80705 17.0224 9.98195 17.0226 10.1572C17.0226 10.9913 17.4637 11.5103 18.1705 11.5103C18.3525 11.5103 18.5091 11.4859 18.7512 11.4185L18.8662 10.7044C18.6486 10.8137 18.47 10.865 18.3082 10.865C17.9269 10.865 17.6956 10.5768 17.6956 10.1015C17.6956 9.41114 18.0388 8.92759 18.5295 8.92759" fill="#000066"/>
<path d="M22.9325 10.3747C22.9325 9.87371 23.1433 9.51841 23.4399 9.51841C23.6647 9.51841 23.7868 9.69384 23.7868 10.0178C23.7868 10.5229 23.5723 10.8772 23.2679 10.8772C23.0453 10.8772 22.9325 10.7078 22.9325 10.3747ZM23.9443 9.23721C23.7651 8.99591 23.5723 8.82111 23.3175 8.82111C22.9861 8.82111 22.6845 9.07761 22.487 9.45571C22.298 9.41352 22.1113 9.36098 21.9278 9.29833C21.9495 9.08838 21.9588 8.96076 21.9566 8.91706H21.3533C21.2712 9.70619 21.1252 10.5051 21.0108 11.2946L20.9807 11.4662H21.6379C21.7266 10.8779 21.7945 10.3886 21.8444 10.0013C22.0691 9.79391 22.1817 9.61373 22.408 9.62544C22.3029 9.888 22.2489 10.1689 22.2489 10.4526C22.2489 11.0897 22.5642 11.5102 23.0419 11.5102C23.2828 11.5102 23.4672 11.4254 23.6476 11.2287L23.6166 11.4662H24.2379L24.7382 8.33154H24.0903L23.9443 9.23721Z" fill="#000066"/>
<path d="M8.50796 11.2791H7.85138L8.22772 8.86931L7.38762 11.2791H6.93998L6.8848 8.88356L6.48924 11.2791H5.87451L6.38787 8.14478H7.33244L7.35879 10.085L7.99615 8.14478H9.01605L8.50796 11.2791Z" fill="white"/>
<path d="M10.0614 11.2798L10.0738 11.0157C9.9076 11.2243 9.68626 11.3241 9.38556 11.3241C9.02937 11.3241 8.7854 11.0397 8.7854 10.6274C8.7854 10.0068 9.2101 9.64512 9.9386 9.64512C10.013 9.64512 10.1085 9.65208 10.2061 9.66475C10.2263 9.58052 10.2319 9.54442 10.2319 9.49913C10.2319 9.33035 10.1172 9.26765 9.81057 9.26765C9.57428 9.26693 9.33944 9.30543 9.11524 9.38165C9.12237 9.33953 9.20638 8.80848 9.20638 8.80848C9.53374 8.71032 9.7495 8.67358 9.99254 8.67358C10.5567 8.67358 10.8553 8.93262 10.8547 9.42092C10.8556 9.55202 10.8345 9.71415 10.8016 9.92632C10.7443 10.2952 10.6218 11.0872 10.6054 11.2798H10.0614ZM9.98169 10.1337C9.60845 10.1337 9.41966 10.2642 9.41966 10.5217C9.41966 10.68 9.51173 10.7813 9.65557 10.7813C9.92403 10.7813 10.1175 10.5217 10.1286 10.1442C10.0799 10.1373 10.0308 10.1339 9.98169 10.1337Z" fill="white"/>
<path d="M19.4122 8.22917L19.3046 8.91001C19.0703 8.78967 18.9004 8.74059 18.7181 8.74059C18.2277 8.74059 17.8839 9.22509 17.8839 9.91606C17.8839 10.392 18.1148 10.6799 18.4968 10.6799C18.6586 10.6799 18.8371 10.6286 19.0548 10.519L18.9391 11.2337C18.6973 11.3008 18.5408 11.3255 18.3588 11.3255C17.6517 11.3255 17.2112 10.8059 17.2112 9.97147C17.2112 8.85016 17.82 8.06641 18.6905 8.06641C18.9773 8.06641 19.3161 8.19054 19.4122 8.22917Z" fill="white"/>
<path d="M20.4058 11.2798L20.4182 11.0157C20.2523 11.2243 20.0307 11.3241 19.73 11.3241C19.3738 11.3241 19.1301 11.0397 19.1301 10.6274C19.1301 10.0068 19.5542 9.64512 20.283 9.64512C20.3574 9.64512 20.4526 9.65208 20.5505 9.66475C20.5707 9.58052 20.5763 9.54442 20.5763 9.49913C20.5763 9.33035 20.4622 9.26765 20.155 9.26765C19.9188 9.26699 19.6841 9.30549 19.46 9.38165L19.5511 8.80848C19.8785 8.71032 20.0939 8.67358 20.337 8.67358C20.9012 8.67358 21.2 8.93262 21.1991 9.42092C21.2003 9.55202 21.1792 9.71415 21.1461 9.92632C21.089 10.2952 20.9669 11.0872 20.9498 11.2798H20.4058ZM20.3252 10.1337C19.9541 10.1337 19.7662 10.2642 19.7662 10.5217C19.7662 10.68 19.8577 10.7813 20.0009 10.7813C20.2675 10.7813 20.4597 10.5217 20.4709 10.1442C20.4226 10.1373 20.3739 10.1338 20.3252 10.1337Z" fill="white"/>
<path d="M13.5245 11.2402C13.3447 11.2979 13.2046 11.3229 13.053 11.3229C12.7169 11.3229 12.5337 11.1259 12.5337 10.7633C12.5291 10.6503 12.5821 10.3542 12.6239 10.0838C12.6618 9.84531 12.9085 8.34399 12.9085 8.34399H13.5617L13.4851 8.72969H13.8202L13.731 9.34213H13.3952C13.3193 9.82758 13.2111 10.4311 13.2098 10.5109C13.2098 10.643 13.2787 10.7 13.4349 10.7C13.5096 10.7 13.5676 10.6924 13.6119 10.6759L13.5251 11.2402" fill="white"/>
<path d="M15.1542 9.70908H14.4362C14.4964 9.41648 14.6445 9.25403 14.8516 9.25403C15.223 9.25403 15.1576 9.65588 15.1542 9.70908ZM15.5243 11.2208L15.6328 10.5866C15.3981 10.698 15.1873 10.7474 14.9539 10.7474C14.5742 10.7474 14.3423 10.5932 14.3866 10.2234H15.6868C15.7432 9.96558 15.767 9.78318 15.767 9.59635C15.767 9.03268 15.4233 8.67358 14.8845 8.67358C14.227 8.67358 13.7424 9.31515 13.7424 10.1869C13.7424 10.9333 14.1231 11.3238 14.8541 11.3238C15.0832 11.3241 15.2999 11.2911 15.5243 11.2208Z" fill="white"/>
<path d="M10.9994 9.5365C10.9994 9.8595 11.1525 10.0812 11.4994 10.2484C11.7654 10.3763 11.8066 10.414 11.8066 10.5299C11.8066 10.6889 11.6894 10.7604 11.4293 10.7604C11.2292 10.7597 11.0305 10.7258 10.8409 10.66L10.7507 11.2484C10.8998 11.2817 11.0328 11.3121 11.434 11.3241C12.1271 11.3241 12.4474 11.0546 12.4474 10.4723C12.4474 10.1217 12.3131 9.91618 11.9842 9.76197C11.7089 9.63213 11.6773 9.60363 11.6773 9.48457C11.6773 9.34682 11.7864 9.27588 11.9988 9.27588C12.1274 9.27588 12.3035 9.29045 12.4706 9.31452L12.5639 8.72362C12.3726 8.69418 12.1796 8.67747 11.9861 8.67358C11.2514 8.67358 10.9972 9.06562 10.9994 9.5365Z" fill="white"/>
<path d="M23.4576 10.6901C23.2344 10.6901 23.1213 10.5214 23.1213 10.1879C23.1213 9.68663 23.3327 9.33132 23.6306 9.33132C23.8563 9.33132 23.9784 9.50707 23.9784 9.83102C23.9784 10.3361 23.7639 10.6901 23.4576 10.6901ZM24.4267 11.2791L24.927 8.14478H24.2791L24.1334 9.05044C23.9536 8.80914 23.7611 8.70306 23.5063 8.70306C22.9272 8.70306 22.4377 9.41746 22.4377 10.2655C22.4377 10.9033 22.7536 11.3232 23.2307 11.3232C23.4716 11.3232 23.656 11.2383 23.8365 11.042L23.8055 11.2791H24.4267Z" fill="white"/>
<path d="M21.5422 8.73017C21.4601 9.51994 21.3141 10.3198 21.2 11.1099L21.1699 11.2816H21.8268C22.0618 9.72134 22.1182 9.41671 22.4871 9.45471C22.5457 9.13551 22.6548 8.85557 22.7364 8.71466C22.4611 8.65607 22.3076 8.81504 22.1061 9.11682C22.1222 8.98636 22.1511 8.85969 22.1458 8.73017H21.5419" fill="white"/>
<path d="M16.136 8.73017C16.0536 9.51994 15.9073 10.3198 15.7932 11.1099L15.7634 11.2816H16.4206C16.6556 9.72134 16.712 9.41671 17.08 9.45471C17.1389 9.13551 17.2483 8.85557 17.3295 8.71466C17.0549 8.65607 16.9008 8.81504 16.7002 9.11682C16.7157 8.98636 16.7449 8.85969 16.7393 8.73017H16.136Z" fill="white"/>
</svg>
