<svg width="30" height="19" viewBox="0 0 30 19" fill="none" xmlns="http://www.w3.org/2000/svg">
<path d="M28.6641 0H1.2832C0.75 0 0.416016 0.0823529 0.234375 0.252941C0.0761719 0.447059 0 0.764706 0 1.23529V2.99412V4.41176V14.5471V16.0294V17.7235C0 18.5647 0.433594 19 1.2832 19H28.6641C29.5547 19 30 18.5647 30 17.7235V16.0294V14.5471V4.40588V2.98824V1.22941C30 0.4 29.5547 0 28.6641 0Z" fill="#F5BD56"/>
<path d="M22.0664 7.20024C21.4394 7.20024 20.9414 7.36495 20.5605 7.44142L20.4433 8.40024C20.6308 8.30613 21.2344 8.14142 21.7324 8.12377C22.2304 8.10613 22.5234 8.21789 22.418 8.64142C20.9414 8.64142 19.9453 8.9473 19.7402 9.90613C19.4472 11.5532 21.2461 11.5061 21.9668 10.7885L21.8789 11.1826H23.1972L23.7656 8.55907C24 7.45907 22.9922 7.1826 22.0664 7.20024ZM22.1543 9.8826C22.084 10.2355 21.8027 10.3826 21.4687 10.4002C21.1758 10.4179 20.9121 10.1591 21.1054 9.85318C21.2519 9.59436 21.6621 9.53554 21.9082 9.53554C22.0078 9.53554 22.1308 9.53554 22.2304 9.53554C22.2012 9.65318 22.1836 9.75907 22.1543 9.8826Z" fill="#167DB0"/>
<path d="M24.8906 6.16479L23.8008 11.1942H25.1426L26.2441 6.16479H24.8906Z" fill="#167DB0"/>
<path d="M18.75 6.17725H16.3008L15.2168 11.189H16.6406L17.0098 9.53018H18.0234C19.0195 9.53018 19.8398 8.91842 20.0625 7.88313C20.3027 6.71254 19.4531 6.17725 18.75 6.17725ZM18.7031 7.88313C18.6152 8.26548 18.2344 8.57136 17.8652 8.57136H17.2031L17.4961 7.20077H18.1992C18.5742 7.20077 18.791 7.50666 18.7031 7.88313Z" fill="#167DB0"/>
<path d="M9.24622 7.2C8.62513 7.2 8.13294 7.3647 7.76966 7.44118L7.65247 8.4C7.82825 8.30588 8.42005 8.14118 8.91224 8.12353C9.40442 8.10588 9.69153 8.21765 9.60364 8.64118C8.14466 8.64118 7.16028 8.94706 6.96106 9.90588C6.67395 11.5529 8.44934 11.5059 9.14075 10.7882L9.05286 11.1824H10.3712L10.9337 8.55882C11.1681 7.45882 10.1544 7.18235 9.24622 7.2ZM9.34583 9.88235C9.27552 10.2353 8.98255 10.3824 8.65442 10.4C8.36731 10.4176 8.12122 10.1588 8.30872 9.85294C8.4552 9.59412 8.8595 9.53529 9.08802 9.53529C9.2052 9.53529 9.30481 9.53529 9.422 9.53529C9.38684 9.65294 9.35755 9.75882 9.34583 9.88235Z" fill="#1C567E"/>
<path d="M11.5078 7.27075H12.8262L13.0371 9.60605L14.3203 7.27075H15.6797L12.5566 12.859H11.0859L12.0469 11.2178L11.5078 7.27075Z" fill="#1C567E"/>
<path d="M5.9707 6.17651H3.52148L2.43164 11.1883H3.87305L4.22461 9.52945H5.25586C6.24023 9.52945 7.06641 8.91769 7.2832 7.88239C7.5293 6.71181 6.69141 6.17651 5.9707 6.17651ZM5.92969 7.88239C5.8418 8.26475 5.47266 8.57063 5.10352 8.57063H4.42969L4.74023 7.20004H5.44336C5.79492 7.20004 6.03516 7.50592 5.92969 7.88239Z" fill="#1C567E"/>
<path d="M26.5312 6.81173V6.21761H26.3086V6.13525H26.8418V6.21761H26.6191V6.81173H26.5312Z" fill="#1C567E"/>
<path d="M26.9297 6.8117V6.14111H27.0645L27.2227 6.61758C27.2402 6.66464 27.2461 6.69405 27.252 6.71758C27.2578 6.69405 27.2695 6.65876 27.2871 6.6117L27.4453 6.147H27.5625V6.81758H27.4746V6.25288L27.2812 6.81758H27.1992L27.0059 6.247V6.81758H26.9297V6.8117Z" fill="#1C567E"/>
</svg>
