<svg width="32" height="19" viewBox="0 0 32 19" fill="none" xmlns="http://www.w3.org/2000/svg">
<path d="M0 1.26667C0 0.930726 0.133452 0.608544 0.370998 0.370998C0.608544 0.133452 0.930726 0 1.26667 0L30.4 0C30.7359 0 31.0581 0.133452 31.2957 0.370998C31.5332 0.608544 31.6667 0.930726 31.6667 1.26667V17.7333C31.6667 18.0693 31.5332 18.3915 31.2957 18.629C31.0581 18.8665 30.7359 19 30.4 19H1.26667C0.930726 19 0.608544 18.8665 0.370998 18.629C0.133452 18.3915 0 18.0693 0 17.7333V1.26667Z" fill="#0B4A8E"/>
<path d="M4.12939 12.8517L4.36309 12.8283C4.37703 12.9068 4.40553 12.9644 4.44859 13.0018C4.49166 13.0385 4.54961 13.0572 4.62276 13.0572C4.69971 13.0572 4.75798 13.0408 4.79724 13.0078C4.81519 12.9944 4.82982 12.9771 4.84003 12.9572C4.85024 12.9373 4.85576 12.9153 4.85614 12.8929C4.85686 12.8666 4.84809 12.841 4.83144 12.8207C4.80765 12.7963 4.77798 12.7786 4.74531 12.7691C4.68202 12.7498 4.61813 12.7326 4.55373 12.7174C4.42516 12.6858 4.33523 12.6465 4.28329 12.6003C4.24867 12.5709 4.22096 12.5342 4.20213 12.4929C4.1833 12.4516 4.17382 12.4066 4.17436 12.3612C4.17436 12.301 4.19146 12.2443 4.22566 12.1918C4.25986 12.1392 4.30958 12.099 4.37418 12.0714C4.43878 12.0442 4.51668 12.0303 4.60788 12.0303C4.75734 12.0303 4.86944 12.0632 4.94481 12.1284C5.02018 12.1943 5.05976 12.282 5.06356 12.3913L4.82289 12.4008C4.81276 12.3397 4.79059 12.2956 4.75703 12.2687C4.72314 12.2421 4.67248 12.2285 4.60503 12.2285C4.53536 12.2285 4.48058 12.2428 4.44131 12.2716C4.4293 12.2797 4.41952 12.2907 4.41288 12.3036C4.40624 12.3165 4.40295 12.3309 4.40331 12.3454C4.40336 12.3593 4.40657 12.373 4.41272 12.3855C4.41886 12.3981 4.42777 12.409 4.43878 12.4176C4.46886 12.4429 4.54233 12.4695 4.65918 12.4967C4.77571 12.5246 4.86184 12.5531 4.91789 12.5825C4.97394 12.612 5.01764 12.6525 5.04931 12.7038C5.08098 12.7551 5.09681 12.8185 5.09681 12.8938C5.09686 12.9635 5.0762 13.0316 5.03747 13.0895C4.99874 13.1474 4.94367 13.1925 4.87926 13.219C4.80991 13.2479 4.72378 13.2624 4.62023 13.2624C4.46981 13.2624 4.35423 13.2276 4.27379 13.1576C4.19336 13.0876 4.14523 12.9857 4.12939 12.8517Z" fill="white"/>
<path d="M5.34521 12.2593H5.57385V12.0491H5.34521V12.2593ZM5.34521 13.2388H5.57385V12.3775H5.34521V13.2388Z" fill="white"/>
<path d="M6.64373 13.2391H6.4151V12.7983C6.4151 12.7052 6.41035 12.6447 6.40053 12.6178C6.39209 12.5918 6.37555 12.5693 6.35335 12.5535C6.33007 12.5379 6.30251 12.5299 6.2745 12.5307C6.23671 12.5303 6.19973 12.5417 6.16873 12.5633C6.1382 12.5839 6.11555 12.6143 6.10445 12.6494C6.09305 12.6852 6.08735 12.7514 6.08735 12.848V13.2391H5.8584V12.3774H6.07057V12.5041C6.14593 12.4056 6.24061 12.3562 6.35461 12.3562C6.40465 12.3562 6.45088 12.3654 6.49237 12.3834C6.52929 12.3982 6.56179 12.4222 6.58673 12.4531C6.60826 12.4813 6.62315 12.5133 6.63138 12.5491C6.63993 12.5845 6.64405 12.6358 6.64405 12.7023V13.2391" fill="white"/>
<path d="M7.15943 13.3239C7.16386 13.3559 7.17368 13.3781 7.18952 13.3904C7.21137 13.4075 7.24557 13.4158 7.29212 13.4158C7.35197 13.4158 7.39661 13.4072 7.42638 13.3892C7.44769 13.3757 7.46378 13.3554 7.47198 13.3315C7.47895 13.3125 7.48275 13.2777 7.48275 13.227L7.48338 13.101C7.41593 13.1928 7.33011 13.2391 7.22625 13.2391C7.11035 13.2391 7.01883 13.19 6.95107 13.0918C6.89818 13.0146 6.87158 12.9177 6.87158 12.8024C6.87158 12.6577 6.90642 12.5472 6.97608 12.4708C7.04543 12.3945 7.13188 12.3562 7.23511 12.3562C7.34183 12.3562 7.42986 12.4031 7.49921 12.4968V12.3774H7.71138V13.152C7.71138 13.2536 7.70315 13.33 7.68605 13.38C7.67287 13.4249 7.6487 13.4658 7.61575 13.4991C7.58079 13.5304 7.53923 13.5534 7.49415 13.5665C7.44348 13.5823 7.37952 13.5909 7.30193 13.5909C7.15595 13.5909 7.05208 13.5656 6.99097 13.5149C6.96184 13.4923 6.93837 13.4632 6.92243 13.4299C6.90649 13.3967 6.89851 13.3602 6.89913 13.3233C6.89913 13.3157 6.89913 13.3065 6.89976 13.2958L7.15943 13.3239ZM7.15785 12.994C7.17302 13.014 7.19266 13.0302 7.2152 13.0413C7.23774 13.0524 7.26256 13.0581 7.28768 13.0579C7.3431 13.0579 7.38965 13.0361 7.42797 12.9924C7.46597 12.9484 7.48496 12.8835 7.48496 12.7973C7.48496 12.7074 7.4666 12.6406 7.43018 12.5972C7.4137 12.5764 7.39264 12.5596 7.36864 12.5483C7.34464 12.5369 7.31835 12.5312 7.2918 12.5316C7.26601 12.5312 7.24048 12.5368 7.21723 12.5479C7.19397 12.5591 7.17364 12.5755 7.15785 12.5959C7.1227 12.6387 7.10528 12.7036 7.10528 12.7916C7.10528 12.8835 7.1227 12.9512 7.15785 12.994Z" fill="white"/>
<path d="M7.98633 12.0491H8.21528V13.2388H7.98633V12.0491Z" fill="white"/>
<path d="M9.2277 13.0064C9.19856 13.0887 9.15233 13.1521 9.089 13.1954C9.02566 13.2388 8.94681 13.2604 8.85181 13.2604C8.70171 13.2604 8.59056 13.2113 8.51836 13.1134C8.46136 13.0349 8.43286 12.9361 8.43286 12.8161C8.43286 12.6736 8.47023 12.5615 8.54528 12.4804C8.62001 12.3997 8.71438 12.3591 8.82901 12.3591C8.95758 12.3591 9.05891 12.4016 9.13301 12.4864C9.20743 12.5716 9.2429 12.7018 9.23973 12.8769H8.66656C8.66815 12.9443 8.68651 12.9972 8.72198 13.0346C8.73888 13.0529 8.75948 13.0674 8.78241 13.0771C8.80534 13.0868 8.83008 13.0915 8.85498 13.0909C8.88758 13.092 8.91954 13.0818 8.94555 13.0621C8.9734 13.0376 8.99289 13.0049 9.00128 12.9687L9.2277 13.0064ZM8.96233 12.5846C8.9472 12.568 8.9287 12.5547 8.90806 12.5458C8.88743 12.5368 8.86512 12.5323 8.84263 12.5327C8.81909 12.5321 8.79571 12.5367 8.77414 12.5462C8.75258 12.5556 8.73337 12.5697 8.71786 12.5874C8.68493 12.6239 8.6691 12.6736 8.66941 12.7363H9.01395C9.01236 12.6698 8.99526 12.6191 8.96233 12.5843V12.5846Z" fill="white"/>
<path d="M9.98755 13.2388V12.0491H10.8679V12.2498H10.2282V12.5143H10.8229V12.7147H10.2282V13.038H10.8913V13.2388H9.98755Z" fill="white"/>
<path d="M11.7072 13.2398V13.1109C11.6759 13.1571 11.6344 13.1935 11.5834 13.2208C11.5344 13.2469 11.4799 13.2607 11.4244 13.2611C11.3689 13.2615 11.3141 13.2484 11.2648 13.223C11.2206 13.1994 11.1855 13.1617 11.1651 13.1159C11.1442 13.0697 11.134 13.0061 11.134 12.9247V12.3784H11.363V12.7746C11.363 12.8959 11.3671 12.9703 11.3756 12.9975C11.3831 13.0238 11.3991 13.0467 11.4213 13.0627C11.4434 13.0786 11.4716 13.0865 11.5058 13.0865C11.5417 13.0869 11.577 13.0765 11.6069 13.0566C11.6368 13.0367 11.6601 13.0083 11.6736 12.975C11.685 12.9434 11.6907 12.8658 11.6907 12.7423V12.3784H11.9197V13.2398H11.7075" fill="white"/>
<path d="M12.4238 13.2391H12.1948V12.3774H12.407V12.5C12.4434 12.442 12.476 12.4037 12.5052 12.3847C12.5344 12.3657 12.5687 12.3557 12.6036 12.3562C12.6556 12.3562 12.7059 12.3708 12.7541 12.3993L12.6844 12.5988C12.6528 12.5764 12.6154 12.5635 12.5767 12.5617C12.5474 12.5609 12.5186 12.5702 12.4953 12.588C12.4732 12.6058 12.4554 12.6374 12.4428 12.6833C12.4301 12.7296 12.4238 12.8258 12.4238 12.9725V13.2391Z" fill="white"/>
<path d="M12.9032 12.5776C12.9406 12.5067 12.9935 12.4525 13.0616 12.4152C13.1303 12.3778 13.2066 12.3591 13.2911 12.3591C13.4216 12.3591 13.5283 12.4016 13.6116 12.4861C13.6949 12.571 13.7367 12.678 13.7367 12.8072C13.7367 12.9377 13.6946 13.046 13.6103 13.1318C13.5264 13.2173 13.4203 13.2604 13.2927 13.2604C13.2136 13.2604 13.1385 13.2423 13.0666 13.2065C12.997 13.1728 12.9398 13.1179 12.9032 13.0498C12.8659 12.9807 12.8472 12.8968 12.8472 12.7974C12.8472 12.7217 12.8659 12.6486 12.9032 12.5776ZM13.1417 13.0058C13.1602 13.0275 13.1834 13.0449 13.2094 13.0567C13.2355 13.0684 13.2638 13.0743 13.2924 13.0738C13.3209 13.0743 13.3491 13.0684 13.3751 13.0567C13.401 13.0449 13.4241 13.0275 13.4425 13.0058C13.4827 12.9602 13.503 12.8943 13.503 12.8078C13.503 12.7236 13.4827 12.6584 13.4425 12.6131C13.4241 12.5914 13.401 12.574 13.3751 12.5622C13.3491 12.5504 13.3209 12.5446 13.2924 12.545C13.2638 12.5446 13.2355 12.5504 13.2094 12.5622C13.1834 12.574 13.1602 12.5913 13.1417 12.6131C13.1011 12.6584 13.0809 12.7239 13.0809 12.8094C13.0809 12.8949 13.1011 12.9602 13.1417 13.0058Z" fill="white"/>
<path d="M14.4812 12.0491H14.8663C15.0123 12.0491 15.1076 12.0554 15.1519 12.0671C15.22 12.0849 15.277 12.1238 15.3229 12.1837C15.3688 12.2432 15.3919 12.3205 15.3919 12.4151C15.3919 12.4883 15.3786 12.5497 15.352 12.5994C15.3283 12.646 15.2938 12.6862 15.2513 12.7166C15.2105 12.7451 15.169 12.7641 15.1269 12.7733C15.0447 12.7866 14.9615 12.7923 14.8783 12.7904H14.7219V13.2388H14.4812V12.0491ZM14.7219 12.5928H14.853C14.9473 12.5928 15.0104 12.5865 15.0423 12.5738C15.0731 12.5621 15.0994 12.5411 15.1176 12.5138C15.1359 12.4864 15.1451 12.454 15.144 12.4212C15.1456 12.3823 15.1328 12.3442 15.108 12.3143C15.0832 12.2843 15.0482 12.2646 15.0097 12.259C14.9526 12.252 14.895 12.2494 14.8375 12.2511H14.7219V12.5928Z" fill="white"/>
<path d="M15.5973 12.6039C15.6204 12.5206 15.6607 12.4592 15.7173 12.4193C15.7743 12.3794 15.8586 12.3591 15.9707 12.3591C16.072 12.3591 16.148 12.3712 16.1977 12.3952C16.2415 12.4141 16.2783 12.4462 16.3029 12.4871C16.3231 12.5238 16.3333 12.5916 16.3333 12.6907L16.331 12.9567C16.331 13.032 16.3345 13.0878 16.3418 13.1236C16.3491 13.1597 16.3627 13.198 16.383 13.2391H16.1562C16.1479 13.2174 16.1405 13.1953 16.1341 13.173C16.1318 13.1641 16.1292 13.1554 16.1265 13.1467C16.0875 13.1847 16.0457 13.2132 16.0014 13.2322C15.9571 13.2509 15.9099 13.2604 15.8598 13.2604C15.7712 13.2604 15.7012 13.2363 15.6502 13.1882C15.6252 13.165 15.6054 13.1367 15.5922 13.1052C15.579 13.0738 15.5727 13.0399 15.5736 13.0058C15.5736 12.9573 15.5853 12.9139 15.6084 12.8759C15.6317 12.8377 15.6658 12.8072 15.7063 12.7882C15.7481 12.7679 15.8085 12.7502 15.8877 12.735C15.9941 12.7151 16.0682 12.6964 16.1094 12.6793V12.6562C16.1094 12.6118 16.0983 12.5802 16.0764 12.5615C16.0546 12.5425 16.0137 12.5333 15.9533 12.5333C15.9198 12.5314 15.8865 12.5398 15.8579 12.5574C15.8312 12.579 15.8118 12.6085 15.8025 12.6416L15.5973 12.6039ZM15.9707 12.8642C15.9073 12.8778 15.8662 12.8911 15.8472 12.9041C15.8335 12.9127 15.8223 12.9246 15.8145 12.9387C15.8067 12.9529 15.8026 12.9687 15.8025 12.9849C15.8025 13.0168 15.8142 13.0444 15.838 13.0678C15.8617 13.0913 15.8918 13.103 15.9286 13.103C15.9711 13.1025 16.0123 13.0881 16.046 13.0621C16.072 13.0435 16.0911 13.0168 16.1002 12.9861C16.1062 12.9671 16.1091 12.9298 16.1091 12.8747V12.8291C16.0635 12.843 16.0174 12.8546 15.9707 12.8639V12.8642Z" fill="white"/>
<path d="M16.4983 12.3784H16.7412L16.9476 12.9902L17.1494 12.3784H17.3853L17.0265 13.3591C17.0115 13.3996 16.9923 13.4383 16.9692 13.4747C16.9524 13.4999 16.9311 13.5218 16.9065 13.5393C16.88 13.5572 16.8507 13.5703 16.8197 13.578C16.7852 13.5871 16.7462 13.5919 16.7032 13.5919C16.6596 13.5919 16.6162 13.5872 16.5737 13.578L16.5524 13.3994C16.5882 13.4063 16.6208 13.4098 16.6497 13.4098C16.7029 13.4098 16.7424 13.394 16.7678 13.3626C16.7934 13.331 16.8131 13.2911 16.8267 13.2423L16.4983 12.3784Z" fill="white"/>
<path d="M17.5654 12.3774H17.7754V12.4952C17.8507 12.4024 17.9407 12.3562 18.0445 12.3562C18.1 12.3562 18.1481 12.3676 18.1886 12.3904C18.2309 12.4148 18.2656 12.4506 18.2887 12.4936C18.3267 12.4474 18.3679 12.4132 18.4116 12.3904C18.4549 12.3678 18.503 12.356 18.5518 12.3562C18.6152 12.3562 18.669 12.3689 18.7127 12.3948C18.7567 12.4205 18.7897 12.4582 18.8112 12.5082C18.827 12.5449 18.8346 12.6048 18.8346 12.6871V13.2391H18.606V12.7454C18.606 12.6599 18.5981 12.6048 18.5822 12.5798C18.5613 12.5472 18.5287 12.5307 18.485 12.5307C18.4534 12.5307 18.4233 12.5405 18.3951 12.5601C18.3659 12.5812 18.3445 12.6114 18.3343 12.646C18.3216 12.6836 18.3156 12.7432 18.3156 12.8242V13.2391H18.0867V12.766C18.0867 12.6817 18.0829 12.6276 18.0746 12.6032C18.0684 12.5814 18.0551 12.5623 18.0369 12.5487C18.0162 12.5358 17.992 12.5295 17.9676 12.5307C17.9328 12.5307 17.9011 12.5402 17.8726 12.5592C17.8439 12.5792 17.8227 12.6081 17.8124 12.6415C17.8004 12.6773 17.7944 12.7365 17.7944 12.8195V13.2391H17.5654V12.3774Z" fill="white"/>
<path d="M19.8361 13.0064C19.807 13.0887 19.7607 13.1521 19.6977 13.1954C19.6344 13.2388 19.5552 13.2604 19.4602 13.2604C19.3101 13.2604 19.199 13.2113 19.1268 13.1134C19.0698 13.0349 19.0413 12.9361 19.0413 12.8161C19.0413 12.6736 19.0786 12.5615 19.1537 12.4804C19.2284 12.3997 19.3231 12.3591 19.4374 12.3591C19.566 12.3591 19.6673 12.4016 19.7414 12.4864C19.8158 12.5716 19.8513 12.7018 19.8481 12.8769H19.275C19.2765 12.9443 19.2952 12.9972 19.3307 13.0346C19.3475 13.0529 19.3681 13.0673 19.391 13.0771C19.4138 13.0868 19.4385 13.0915 19.4634 13.0909C19.4992 13.0909 19.5296 13.0814 19.5543 13.0621C19.5822 13.0376 19.6017 13.0049 19.61 12.9687L19.8361 13.0064ZM19.5701 12.5846C19.5551 12.568 19.5367 12.5547 19.5162 12.5458C19.4956 12.5368 19.4734 12.5323 19.451 12.5327C19.4276 12.5321 19.4044 12.5367 19.383 12.5462C19.3616 12.5557 19.3425 12.5698 19.3272 12.5874C19.2943 12.6239 19.2784 12.6736 19.2791 12.7363H19.6217C19.6201 12.6698 19.6027 12.6191 19.5701 12.5843V12.5846Z" fill="white"/>
<path d="M20.8652 13.2391H20.6365V12.7983C20.6365 12.7052 20.6318 12.6447 20.622 12.6178C20.6135 12.5919 20.597 12.5693 20.5748 12.5535C20.5515 12.5379 20.5239 12.5299 20.4959 12.5307C20.4581 12.5303 20.4212 12.5417 20.3902 12.5633C20.3597 12.584 20.337 12.6143 20.3259 12.6494C20.3145 12.6852 20.3088 12.7514 20.3088 12.848V13.2391H20.0798V12.3774H20.292V12.5041C20.3674 12.4056 20.462 12.3562 20.576 12.3562C20.6261 12.3562 20.6723 12.3654 20.7138 12.3834C20.7507 12.3982 20.7832 12.4222 20.8082 12.4531C20.8297 12.4813 20.8446 12.5133 20.8528 12.5491C20.8614 12.5845 20.8655 12.6358 20.8655 12.7023V13.2391" fill="white"/>
<path d="M21.5435 12.3781V12.5599H21.3877V12.9082C21.3877 12.9789 21.3893 13.02 21.3921 13.0317C21.3953 13.0435 21.4016 13.053 21.4121 13.0609C21.4232 13.0687 21.4365 13.0727 21.4501 13.0723C21.4706 13.0723 21.5007 13.0647 21.54 13.0501L21.5599 13.2268C21.5032 13.2504 21.4422 13.262 21.3807 13.261C21.3428 13.2615 21.3053 13.2544 21.2702 13.2401C21.2415 13.2294 21.2165 13.2107 21.198 13.1863C21.1809 13.1595 21.1701 13.1292 21.1663 13.0976C21.16 13.0441 21.1576 12.9903 21.159 12.9364V12.5596H21.0552V12.3781H21.159V12.2059L21.3877 12.0713V12.3781H21.5435Z" fill="white"/>
<path d="M21.6694 12.9968L21.8984 12.9614C21.9079 13.0054 21.9278 13.0386 21.9573 13.0614C21.987 13.0842 22.0285 13.0956 22.0821 13.0956C22.141 13.0956 22.1853 13.0849 22.215 13.063C22.2247 13.056 22.2324 13.0468 22.2377 13.0362C22.2429 13.0255 22.2455 13.0138 22.2451 13.0019C22.2451 12.9845 22.2394 12.9702 22.2287 12.9588C22.2173 12.9481 22.1916 12.9379 22.152 12.9287C21.9671 12.8879 21.8499 12.8508 21.8005 12.8173C21.768 12.7967 21.7414 12.768 21.7234 12.734C21.7053 12.7 21.6964 12.6619 21.6976 12.6235C21.6976 12.5487 21.7274 12.486 21.7863 12.4354C21.8458 12.3847 21.9376 12.3594 22.0621 12.3594C22.1808 12.3594 22.2689 12.3784 22.3265 12.4164C22.3841 12.4544 22.4237 12.5104 22.4456 12.5852L22.2309 12.6251C22.2232 12.5938 22.2044 12.5665 22.178 12.5481C22.1444 12.5284 22.1057 12.5191 22.0668 12.5215C22.006 12.5215 21.9624 12.5297 21.9364 12.5468C21.9284 12.5516 21.9217 12.5584 21.9171 12.5665C21.9125 12.5746 21.9101 12.5838 21.9101 12.5931C21.9101 12.6095 21.9177 12.6232 21.9329 12.6349C21.9535 12.6498 22.0247 12.6713 22.1466 12.6992C22.2686 12.7267 22.3538 12.7606 22.4022 12.8005C22.4497 12.8417 22.4741 12.898 22.4741 12.9709C22.4741 13.05 22.4408 13.1178 22.375 13.1748C22.3088 13.2318 22.2113 13.2603 22.0821 13.2603C21.9649 13.2603 21.8721 13.2365 21.8034 13.1894C21.7364 13.144 21.6887 13.0754 21.6694 12.9968Z" fill="white"/>
<path d="M24.0515 13.2388L23.9486 12.9696H23.4695L23.3713 13.2388H23.1167L23.5774 12.0491H23.8305L24.3105 13.2388H24.0515ZM23.7044 12.3277L23.5423 12.7692H23.8726L23.7044 12.3277Z" fill="white"/>
<path d="M24.7009 13.2391H24.4719V12.3774H24.6841V12.5C24.7205 12.442 24.7531 12.4037 24.7823 12.3847C24.8115 12.3656 24.8458 12.3557 24.8807 12.3562C24.9327 12.3562 24.9827 12.3708 25.0312 12.3993L24.9615 12.5988C24.9299 12.5764 24.8925 12.5635 24.8538 12.5617C24.8245 12.5609 24.7957 12.5702 24.7724 12.588C24.7503 12.6058 24.7325 12.6374 24.7199 12.6833C24.7072 12.7296 24.7009 12.8258 24.7009 12.9725V13.2391Z" fill="white"/>
<path d="M25.9064 13.0064C25.8773 13.0887 25.831 13.1521 25.768 13.1954C25.7047 13.2388 25.6255 13.2604 25.5305 13.2604C25.3804 13.2604 25.2693 13.2113 25.1971 13.1134C25.1401 13.0349 25.1116 12.9361 25.1116 12.8161C25.1116 12.6736 25.1489 12.5615 25.224 12.4804C25.2987 12.3997 25.3934 12.3591 25.5077 12.3591C25.6363 12.3591 25.7376 12.4016 25.8117 12.4864C25.8861 12.5716 25.9216 12.7018 25.9184 12.8769H25.3453C25.3469 12.9443 25.3655 12.9972 25.4007 13.0346C25.4176 13.0529 25.4382 13.0674 25.4611 13.0771C25.4841 13.0868 25.5088 13.0915 25.5337 13.0909C25.5664 13.0921 25.5985 13.0819 25.6246 13.0621C25.6524 13.0375 25.6719 13.0049 25.6803 12.9687L25.9064 13.0064ZM25.6404 12.5846C25.6254 12.568 25.607 12.5548 25.5865 12.5458C25.5659 12.5368 25.5437 12.5324 25.5213 12.5327C25.4979 12.5321 25.4747 12.5367 25.4533 12.5462C25.4319 12.5557 25.4129 12.5698 25.3975 12.5874C25.3646 12.6239 25.3488 12.6736 25.3494 12.7363H25.692C25.6904 12.6698 25.673 12.6191 25.6407 12.5843L25.6404 12.5846Z" fill="white"/>
<path d="M26.1168 12.6039C26.1402 12.5206 26.1801 12.4592 26.2371 12.4193C26.2938 12.3794 26.3783 12.3591 26.4904 12.3591C26.5918 12.3591 26.6678 12.3712 26.7175 12.3952C26.7613 12.4141 26.7981 12.4462 26.8226 12.4871C26.8429 12.5238 26.853 12.5916 26.853 12.6907L26.8505 12.9567C26.8505 13.032 26.8543 13.0878 26.8616 13.1236C26.8689 13.1597 26.8825 13.198 26.9024 13.2391H26.676C26.6677 13.2174 26.6603 13.1953 26.6538 13.173C26.6515 13.1641 26.6488 13.1554 26.6459 13.1467C26.607 13.1847 26.5655 13.2132 26.5212 13.2322C26.4768 13.2509 26.4296 13.2604 26.3793 13.2604C26.2906 13.2604 26.221 13.2363 26.17 13.1882C26.145 13.1649 26.1252 13.1367 26.112 13.1052C26.0988 13.0738 26.0924 13.0399 26.0933 13.0058C26.0933 12.9573 26.1047 12.9139 26.1282 12.8759C26.1515 12.8377 26.1855 12.8072 26.226 12.7882C26.2678 12.7679 26.3283 12.7502 26.4075 12.735C26.5139 12.7151 26.588 12.6964 26.6288 12.6793V12.6562C26.6288 12.6118 26.6181 12.5802 26.5962 12.5615C26.5744 12.5425 26.5335 12.5333 26.473 12.5333C26.4395 12.5314 26.4063 12.5398 26.3777 12.5574C26.351 12.579 26.3316 12.6085 26.3223 12.6416L26.1168 12.6039ZM26.4904 12.8642C26.4271 12.8778 26.3859 12.8911 26.3666 12.9041C26.353 12.9128 26.3418 12.9247 26.3341 12.9388C26.3263 12.9529 26.3223 12.9688 26.3223 12.9849C26.3223 13.0168 26.334 13.0444 26.3578 13.0678C26.3815 13.0913 26.4116 13.103 26.4483 13.103C26.4908 13.1024 26.5319 13.0881 26.5655 13.0621C26.5916 13.0436 26.6108 13.0168 26.62 12.9861C26.626 12.9671 26.6288 12.9298 26.6288 12.8747V12.8291C26.5833 12.843 26.5371 12.8546 26.4904 12.8639V12.8642Z" fill="white"/>
<path d="M9.18243 7.37467H7.62443C7.62443 7.11881 7.59435 6.94717 7.5345 6.85977C7.44171 6.73057 7.18585 6.66566 6.7669 6.66566C6.3603 6.66566 6.0905 6.70302 5.95876 6.77744C5.82735 6.85217 5.76148 7.01494 5.76148 7.26511C5.76148 7.49184 5.81975 7.64131 5.9366 7.71287C6.02051 7.76354 6.13103 7.79331 6.2691 7.80217L6.58323 7.82434C7.25646 7.86931 7.67731 7.90066 7.84483 7.91871C8.37746 7.97254 8.76348 8.11409 9.0032 8.34367C9.19161 8.52291 9.30403 8.75692 9.33981 9.04604C9.36103 9.21894 9.37148 9.41464 9.37148 9.63219C9.37148 10.1335 9.32366 10.5005 9.22771 10.7332C9.05418 11.1601 8.66468 11.4299 8.05826 11.543C7.8043 11.5908 7.41543 11.6148 6.89293 11.6148C6.0202 11.6148 5.4122 11.5629 5.06893 11.4584C4.64745 11.3305 4.36941 11.0711 4.23515 10.6807C4.1601 10.4634 4.12305 10.1015 4.12305 9.59482H5.68105V9.72466C5.68105 9.99477 5.75895 10.1686 5.91411 10.2462C6.02146 10.2994 6.15098 10.3276 6.30361 10.3308H6.87646C7.16875 10.3308 7.35526 10.3159 7.4357 10.2858C7.57883 10.2294 7.6732 10.1389 7.71785 10.0135C7.7416 9.93587 7.75363 9.83612 7.75363 9.71357C7.75363 9.43934 7.65356 9.27277 7.45375 9.21292C7.37933 9.18917 7.03163 9.15624 6.41191 9.11476C5.9138 9.07897 5.56768 9.04477 5.37388 9.01152C4.86405 8.91589 4.52395 8.71987 4.35421 8.42157C4.20538 8.16824 4.13065 7.78507 4.13065 7.27271C4.13065 6.88226 4.17086 6.56939 4.25161 6.33379C4.33205 6.09819 4.46188 5.91959 4.64111 5.79704C4.90395 5.60957 5.24025 5.49937 5.64906 5.46644C6.02613 5.43511 6.40437 5.42011 6.78273 5.42147C7.43665 5.42147 7.90278 5.45916 8.1805 5.53357C8.85848 5.71597 9.19763 6.22644 9.19763 7.06529C9.19763 7.13432 9.19256 7.23724 9.18243 7.37467Z" fill="white"/>
<path d="M16.0359 5.38965H19.1563C19.5841 5.38965 19.9109 5.42448 20.1351 5.49446C20.6481 5.65533 20.9927 5.98467 21.1691 6.48247C21.2603 6.74403 21.3059 7.13733 21.3059 7.66268C21.3059 8.29411 21.2552 8.7479 21.1554 9.02435C20.9553 9.5706 20.5433 9.88568 19.9211 9.96706C19.8482 9.97941 19.5366 9.99018 18.9872 9.99873L18.7092 10.0082H17.7111V11.6159H16.0359V5.38965ZM18.7548 8.56392C19.086 8.5522 19.2871 8.52655 19.3596 8.48665C19.4587 8.43218 19.5252 8.32325 19.5582 8.15985C19.5794 8.05091 19.5898 7.8891 19.5898 7.67408C19.5898 7.41093 19.5689 7.21555 19.5265 7.08825C19.4663 6.90965 19.3223 6.80071 19.0936 6.76145C19.0487 6.75511 18.9404 6.75195 18.769 6.75195H17.7107V8.56392H18.7548Z" fill="white"/>
<path d="M22.6391 10.5399L22.3383 11.6159H20.6055L22.4751 5.38965H25.0018L26.8945 11.6159H25.1981L24.8783 10.5399H22.6391ZM23.7611 6.62782L22.9995 9.32676H24.5458L23.7611 6.62782Z" fill="white"/>
<path d="M13.7244 6.26525C14.0527 6.26512 14.3768 6.33841 14.6732 6.47978C14.9695 6.62114 15.2304 6.82699 15.4369 7.08225L15.7979 6.308C15.2082 5.75156 14.4274 5.44268 13.6167 5.44508C12.2971 5.44508 11.1682 6.24213 10.7049 7.37073H10.001L9.58521 8.26215H10.4909C10.4837 8.34535 10.48 8.42881 10.4798 8.51232C10.4798 8.61428 10.4849 8.71498 10.495 8.81505H10.0399L9.62447 9.70678H10.7265C11.2031 10.8066 12.3177 11.5789 13.6167 11.5789C14.2716 11.5789 14.8789 11.3826 15.3818 11.0476V9.95473C15.1752 10.1912 14.9203 10.3807 14.6344 10.5105C14.3485 10.6404 14.0381 10.7075 13.724 10.7075C13.3573 10.7073 12.9963 10.6158 12.6739 10.441C12.3514 10.2663 12.0776 10.014 11.8772 9.70678H14.1854L14.6009 8.81505H11.5378C11.5108 8.63198 11.5064 8.44629 11.5248 8.26215H14.8587L15.2741 7.37073H11.813C12.0064 7.03496 12.2849 6.75605 12.6204 6.56205C12.9559 6.36805 13.3365 6.26579 13.724 6.26557" fill="#F6BC25"/>
</svg>
