<svg width="31" height="19" viewBox="0 0 31 19" fill="none" xmlns="http://www.w3.org/2000/svg">
<path d="M0 1.36182V18.0598L31 18.254V1.36182H0Z" fill="white"/>
<path d="M5.1355 6.69818L6.93979 13.3383H9.04077L12.303 5.64551H10.1791L8.11804 10.8656L7.27644 6.78105L5.1355 6.69818Z" fill="#0058A0"/>
<path d="M13.1 5.61841L11.8479 13.3384H13.829L15.1102 5.61841H13.1Z" fill="#0058A0"/>
<path d="M20.9455 7.46274L21.2361 5.84478C20.6186 5.62707 19.9683 5.51203 19.312 5.50708C18.2645 5.50708 15.9867 6.16144 15.9867 8.06144C15.9867 9.96268 18.8336 10.0517 18.8336 11.0995C18.8336 12.1459 16.3004 12.0359 15.5375 11.3543L15.2178 13.0168C15.9104 13.2679 16.6382 13.4114 17.3757 13.4435C18.3953 13.4435 20.9346 13.2159 20.9346 10.7494C20.9346 8.59334 18.0877 9.0201 18.0877 7.71261C18.0877 7.71261 18.3783 6.40513 20.9346 7.4578L20.9455 7.46274Z" fill="#0058A0"/>
<path d="M20.7979 13.3605H22.9836L23.342 12.2509H26.0243L26.2459 13.3605H28.1422L26.4227 5.70605H24.6753C24.2333 5.79388 23.8748 6.10807 23.7416 6.52617C23.468 7.26341 20.7979 13.3605 20.7979 13.3605Z" fill="#0058A0"/>
<path d="M25.7227 10.6391H23.9463L25.0567 7.80151L25.7227 10.6391Z" fill="white"/>
<path d="M7.89656 9.79694L7.27051 6.78119C7.27051 6.78119 7.18453 5.67285 6.35383 5.67285H2.97168V5.82871C5.17316 6.32103 7.00168 7.8054 7.89656 9.82415V9.79694Z" fill="#0058A0"/>
<path d="M31 14.469H0V18.3482C0 18.6821 0.277305 18.9518 0.62 18.9518H30.38C30.7227 18.9518 31 18.6821 31 18.3482V14.469Z" fill="#FAA61A"/>
<path d="M30.38 0.0593262H0.62C0.277305 0.0593262 0 0.328988 0 0.662972V4.54214H31V0.662972C31 0.328988 30.7227 0.0593262 30.38 0.0593262Z" fill="#0058A0"/>
</svg>
